<mxfile host="app.diagrams.net" modified="2024-04-16T13:42:35.957Z" agent="Mozilla/5.0 (X11; Linux x86_64) AppleWebKit/537.36 (KHTML, like Gecko) Chrome/123.0.0.0 Safari/537.36" etag="KQtOvCMTTTYtaoFngX4u" version="24.2.5" type="device" pages="3">
  <diagram name="Página-1" id="8Tghl_S7foqHzeElc1nj">
    <mxGraphModel dx="1120" dy="426" grid="1" gridSize="10" guides="1" tooltips="1" connect="1" arrows="1" fold="1" page="1" pageScale="1" pageWidth="827" pageHeight="1169" math="0" shadow="0">
      <root>
        <mxCell id="0" />
        <mxCell id="1" parent="0" />
        <mxCell id="rtEwo6KJ-qp1Gtlreiss-5" value="Region" style="points=[[0,0],[0.25,0],[0.5,0],[0.75,0],[1,0],[1,0.25],[1,0.5],[1,0.75],[1,1],[0.75,1],[0.5,1],[0.25,1],[0,1],[0,0.75],[0,0.5],[0,0.25]];outlineConnect=0;gradientColor=none;html=1;whiteSpace=wrap;fontSize=12;fontStyle=0;container=1;pointerEvents=0;collapsible=0;recursiveResize=0;shape=mxgraph.aws4.group;grIcon=mxgraph.aws4.group_region;strokeColor=#00A4A6;fillColor=none;verticalAlign=top;align=left;spacingLeft=30;fontColor=#147EBA;dashed=1;" parent="1" vertex="1">
          <mxGeometry x="320" y="160" width="990" height="600" as="geometry" />
        </mxCell>
        <mxCell id="rtEwo6KJ-qp1Gtlreiss-6" value="AWS Cloud" style="points=[[0,0],[0.25,0],[0.5,0],[0.75,0],[1,0],[1,0.25],[1,0.5],[1,0.75],[1,1],[0.75,1],[0.5,1],[0.25,1],[0,1],[0,0.75],[0,0.5],[0,0.25]];outlineConnect=0;gradientColor=none;html=1;whiteSpace=wrap;fontSize=12;fontStyle=0;container=1;pointerEvents=0;collapsible=0;recursiveResize=0;shape=mxgraph.aws4.group;grIcon=mxgraph.aws4.group_aws_cloud_alt;strokeColor=#232F3E;fillColor=none;verticalAlign=top;align=left;spacingLeft=30;fontColor=#232F3E;dashed=0;" parent="1" vertex="1">
          <mxGeometry x="283" y="120" width="1077" height="680" as="geometry" />
        </mxCell>
        <mxCell id="rtEwo6KJ-qp1Gtlreiss-25" value="" style="rounded=0;whiteSpace=wrap;html=1;fillColor=none;dashed=1;" parent="rtEwo6KJ-qp1Gtlreiss-6" vertex="1">
          <mxGeometry x="747" y="120" width="173" height="320" as="geometry" />
        </mxCell>
        <mxCell id="rtEwo6KJ-qp1Gtlreiss-1" value="VPC" style="sketch=0;outlineConnect=0;gradientColor=none;html=1;whiteSpace=wrap;fontSize=12;fontStyle=0;shape=mxgraph.aws4.group;grIcon=mxgraph.aws4.group_vpc;strokeColor=#879196;fillColor=none;verticalAlign=top;align=left;spacingLeft=30;fontColor=#879196;dashed=0;" parent="rtEwo6KJ-qp1Gtlreiss-6" vertex="1">
          <mxGeometry x="77" y="80" width="913" height="520" as="geometry" />
        </mxCell>
        <mxCell id="rtEwo6KJ-qp1Gtlreiss-16" value="Elastic Beanstalk container" style="points=[[0,0],[0.25,0],[0.5,0],[0.75,0],[1,0],[1,0.25],[1,0.5],[1,0.75],[1,1],[0.75,1],[0.5,1],[0.25,1],[0,1],[0,0.75],[0,0.5],[0,0.25]];outlineConnect=0;gradientColor=none;html=1;whiteSpace=wrap;fontSize=12;fontStyle=0;container=1;pointerEvents=0;collapsible=0;recursiveResize=0;shape=mxgraph.aws4.group;grIcon=mxgraph.aws4.group_elastic_beanstalk;strokeColor=#D86613;fillColor=none;verticalAlign=top;align=left;spacingLeft=30;fontColor=#D86613;dashed=0;" parent="rtEwo6KJ-qp1Gtlreiss-6" vertex="1">
          <mxGeometry x="170" y="120" width="510" height="320" as="geometry" />
        </mxCell>
        <mxCell id="rtEwo6KJ-qp1Gtlreiss-17" value="Elastic Load Balancer " style="sketch=0;points=[[0,0,0],[0.25,0,0],[0.5,0,0],[0.75,0,0],[1,0,0],[0,1,0],[0.25,1,0],[0.5,1,0],[0.75,1,0],[1,1,0],[0,0.25,0],[0,0.5,0],[0,0.75,0],[1,0.25,0],[1,0.5,0],[1,0.75,0]];outlineConnect=0;fontColor=#232F3E;fillColor=#ED7100;strokeColor=#ffffff;dashed=0;verticalLabelPosition=bottom;verticalAlign=top;align=center;fontSize=12;fontStyle=0;aspect=fixed;shape=mxgraph.aws4.resourceIcon;resIcon=mxgraph.aws4.elastic_load_balancing;whiteSpace=wrap;" parent="rtEwo6KJ-qp1Gtlreiss-16" vertex="1">
          <mxGeometry x="169" y="126" width="78" height="78" as="geometry" />
        </mxCell>
        <mxCell id="rtEwo6KJ-qp1Gtlreiss-26" style="edgeStyle=orthogonalEdgeStyle;rounded=0;orthogonalLoop=1;jettySize=auto;html=1;" parent="rtEwo6KJ-qp1Gtlreiss-6" source="rtEwo6KJ-qp1Gtlreiss-18" target="rtEwo6KJ-qp1Gtlreiss-24" edge="1">
          <mxGeometry relative="1" as="geometry" />
        </mxCell>
        <mxCell id="rtEwo6KJ-qp1Gtlreiss-22" value="&lt;span style=&quot;border: 0px solid rgb(227, 227, 227); box-sizing: border-box; --tw-border-spacing-x: 0; --tw-border-spacing-y: 0; --tw-translate-x: 0; --tw-translate-y: 0; --tw-rotate: 0; --tw-skew-x: 0; --tw-skew-y: 0; --tw-scale-x: 1; --tw-scale-y: 1; --tw-pan-x: ; --tw-pan-y: ; --tw-pinch-zoom: ; --tw-scroll-snap-strictness: proximity; --tw-gradient-from-position: ; --tw-gradient-via-position: ; --tw-gradient-to-position: ; --tw-ordinal: ; --tw-slashed-zero: ; --tw-numeric-figure: ; --tw-numeric-spacing: ; --tw-numeric-fraction: ; --tw-ring-inset: ; --tw-ring-offset-width: 0px; --tw-ring-offset-color: #fff; --tw-ring-color: rgba(69,89,164,.5); --tw-ring-offset-shadow: 0 0 transparent; --tw-ring-shadow: 0 0 transparent; --tw-shadow: 0 0 transparent; --tw-shadow-colored: 0 0 transparent; --tw-blur: ; --tw-brightness: ; --tw-contrast: ; --tw-grayscale: ; --tw-hue-rotate: ; --tw-invert: ; --tw-saturate: ; --tw-sepia: ; --tw-drop-shadow: ; --tw-backdrop-blur: ; --tw-backdrop-brightness: ; --tw-backdrop-contrast: ; --tw-backdrop-grayscale: ; --tw-backdrop-hue-rotate: ; --tw-backdrop-invert: ; --tw-backdrop-opacity: ; --tw-backdrop-saturate: ; --tw-backdrop-sepia: ; --tw-contain-size: ; --tw-contain-layout: ; --tw-contain-paint: ; --tw-contain-style: ; font-weight: 600; color: rgb(13, 13, 13); font-family: Söhne, ui-sans-serif, system-ui, -apple-system, &amp;quot;Segoe UI&amp;quot;, Roboto, Ubuntu, Cantarell, &amp;quot;Noto Sans&amp;quot;, sans-serif, &amp;quot;Helvetica Neue&amp;quot;, Arial, &amp;quot;Apple Color Emoji&amp;quot;, &amp;quot;Segoe UI Emoji&amp;quot;, &amp;quot;Segoe UI Symbol&amp;quot;, &amp;quot;Noto Color Emoji&amp;quot;; font-size: 16px; text-align: start; white-space: pre-wrap; background-color: rgb(255, 255, 255);&quot;&gt;AWS CloudWatch&lt;/span&gt;" style="sketch=0;points=[[0,0,0],[0.25,0,0],[0.5,0,0],[0.75,0,0],[1,0,0],[0,1,0],[0.25,1,0],[0.5,1,0],[0.75,1,0],[1,1,0],[0,0.25,0],[0,0.5,0],[0,0.75,0],[1,0.25,0],[1,0.5,0],[1,0.75,0]];points=[[0,0,0],[0.25,0,0],[0.5,0,0],[0.75,0,0],[1,0,0],[0,1,0],[0.25,1,0],[0.5,1,0],[0.75,1,0],[1,1,0],[0,0.25,0],[0,0.5,0],[0,0.75,0],[1,0.25,0],[1,0.5,0],[1,0.75,0]];outlineConnect=0;fontColor=#232F3E;fillColor=#E7157B;strokeColor=#ffffff;dashed=0;verticalLabelPosition=bottom;verticalAlign=top;align=center;html=1;fontSize=12;fontStyle=0;aspect=fixed;shape=mxgraph.aws4.resourceIcon;resIcon=mxgraph.aws4.cloudwatch_2;" parent="rtEwo6KJ-qp1Gtlreiss-6" vertex="1">
          <mxGeometry x="117" y="440" width="78" height="78" as="geometry" />
        </mxCell>
        <mxCell id="rtEwo6KJ-qp1Gtlreiss-29" style="edgeStyle=orthogonalEdgeStyle;rounded=0;orthogonalLoop=1;jettySize=auto;html=1;entryX=0;entryY=0.5;entryDx=0;entryDy=0;" parent="rtEwo6KJ-qp1Gtlreiss-6" source="rtEwo6KJ-qp1Gtlreiss-17" target="rtEwo6KJ-qp1Gtlreiss-18" edge="1">
          <mxGeometry relative="1" as="geometry" />
        </mxCell>
        <mxCell id="rtEwo6KJ-qp1Gtlreiss-23" style="edgeStyle=orthogonalEdgeStyle;rounded=0;orthogonalLoop=1;jettySize=auto;html=1;entryX=0.5;entryY=0;entryDx=0;entryDy=0;entryPerimeter=0;" parent="rtEwo6KJ-qp1Gtlreiss-6" source="rtEwo6KJ-qp1Gtlreiss-16" target="rtEwo6KJ-qp1Gtlreiss-22" edge="1">
          <mxGeometry relative="1" as="geometry">
            <Array as="points">
              <mxPoint x="156" y="370" />
            </Array>
          </mxGeometry>
        </mxCell>
        <mxCell id="rtEwo6KJ-qp1Gtlreiss-24" value="Amazon ElastiCache for Redis" style="sketch=0;outlineConnect=0;fontColor=#232F3E;gradientColor=none;strokeColor=#ffffff;fillColor=#232F3E;dashed=0;verticalLabelPosition=middle;verticalAlign=bottom;align=center;html=1;whiteSpace=wrap;fontSize=10;fontStyle=1;spacing=3;shape=mxgraph.aws4.productIcon;prIcon=mxgraph.aws4.elasticache_for_redis;" parent="rtEwo6KJ-qp1Gtlreiss-6" vertex="1">
          <mxGeometry x="793.5" y="225" width="80" height="120" as="geometry" />
        </mxCell>
        <mxCell id="rtEwo6KJ-qp1Gtlreiss-18" value="Auto Scaling group" style="points=[[0,0],[0.25,0],[0.5,0],[0.75,0],[1,0],[1,0.25],[1,0.5],[1,0.75],[1,1],[0.75,1],[0.5,1],[0.25,1],[0,1],[0,0.75],[0,0.5],[0,0.25]];outlineConnect=0;gradientColor=none;html=1;whiteSpace=wrap;fontSize=12;fontStyle=0;container=1;pointerEvents=0;collapsible=0;recursiveResize=0;shape=mxgraph.aws4.groupCenter;grIcon=mxgraph.aws4.group_auto_scaling_group;grStroke=1;strokeColor=#D86613;fillColor=none;verticalAlign=top;align=center;fontColor=#D86613;dashed=1;spacingTop=25;" parent="rtEwo6KJ-qp1Gtlreiss-6" vertex="1">
          <mxGeometry x="470" y="160" width="170" height="250" as="geometry" />
        </mxCell>
        <mxCell id="rtEwo6KJ-qp1Gtlreiss-20" value="" style="sketch=0;outlineConnect=0;fontColor=#232F3E;gradientColor=none;fillColor=#ED7100;strokeColor=none;dashed=0;verticalLabelPosition=bottom;verticalAlign=top;align=center;html=1;fontSize=12;fontStyle=0;aspect=fixed;pointerEvents=1;shape=mxgraph.aws4.ec2_aws_microservice_extractor_for_net;" parent="rtEwo6KJ-qp1Gtlreiss-18" vertex="1">
          <mxGeometry x="61" y="110" width="48" height="48" as="geometry" />
        </mxCell>
        <mxCell id="rtEwo6KJ-qp1Gtlreiss-21" value="EC2 Instancias" style="sketch=0;outlineConnect=0;fontColor=#232F3E;gradientColor=none;fillColor=#ED7100;strokeColor=none;dashed=0;verticalLabelPosition=bottom;verticalAlign=top;align=center;html=1;fontSize=12;fontStyle=0;aspect=fixed;pointerEvents=1;shape=mxgraph.aws4.ec2_aws_microservice_extractor_for_net;" parent="rtEwo6KJ-qp1Gtlreiss-18" vertex="1">
          <mxGeometry x="61" y="170" width="48" height="48" as="geometry" />
        </mxCell>
        <mxCell id="rtEwo6KJ-qp1Gtlreiss-19" value="" style="sketch=0;outlineConnect=0;fontColor=#232F3E;gradientColor=none;fillColor=#ED7100;strokeColor=none;dashed=0;verticalLabelPosition=bottom;verticalAlign=top;align=center;html=1;fontSize=12;fontStyle=0;aspect=fixed;pointerEvents=1;shape=mxgraph.aws4.ec2_aws_microservice_extractor_for_net;" parent="rtEwo6KJ-qp1Gtlreiss-18" vertex="1">
          <mxGeometry x="61" y="50" width="48" height="48" as="geometry" />
        </mxCell>
        <mxCell id="8OT0HYLFbWtoue18eO89-2" value="Amazon API Gateway" style="sketch=0;outlineConnect=0;fontColor=#232F3E;gradientColor=none;strokeColor=#ffffff;fillColor=#232F3E;dashed=0;verticalLabelPosition=middle;verticalAlign=bottom;align=center;html=1;whiteSpace=wrap;fontSize=10;fontStyle=1;spacing=3;shape=mxgraph.aws4.productIcon;prIcon=mxgraph.aws4.api_gateway;" parent="rtEwo6KJ-qp1Gtlreiss-6" vertex="1">
          <mxGeometry x="217" y="250" width="80" height="110" as="geometry" />
        </mxCell>
        <mxCell id="rtEwo6KJ-qp1Gtlreiss-7" value="" style="html=1;verticalLabelPosition=bottom;align=center;labelBackgroundColor=#ffffff;verticalAlign=top;strokeWidth=2;strokeColor=#0080F0;shadow=0;dashed=0;shape=mxgraph.ios7.icons.smartphone;" parent="1" vertex="1">
          <mxGeometry x="164" y="290" width="40" height="70" as="geometry" />
        </mxCell>
        <mxCell id="rtEwo6KJ-qp1Gtlreiss-8" value="" style="image;aspect=fixed;html=1;points=[];align=center;fontSize=12;image=img/lib/azure2/management_governance/Managed_Desktop.svg;" parent="1" vertex="1">
          <mxGeometry x="150" y="450" width="68" height="63.2" as="geometry" />
        </mxCell>
        <mxCell id="rtEwo6KJ-qp1Gtlreiss-31" style="edgeStyle=orthogonalEdgeStyle;rounded=0;orthogonalLoop=1;jettySize=auto;html=1;exitX=0.5;exitY=1;exitDx=0;exitDy=0;" parent="1" source="rtEwo6KJ-qp1Gtlreiss-5" target="rtEwo6KJ-qp1Gtlreiss-5" edge="1">
          <mxGeometry relative="1" as="geometry" />
        </mxCell>
        <mxCell id="rtEwo6KJ-qp1Gtlreiss-34" value="" style="rounded=0;whiteSpace=wrap;html=1;" parent="1" vertex="1">
          <mxGeometry x="593" y="840" width="490" height="120" as="geometry" />
        </mxCell>
        <mxCell id="rtEwo6KJ-qp1Gtlreiss-35" value="Cadastro" style="aspect=fixed;sketch=0;html=1;dashed=0;whitespace=wrap;fillColor=#2875E2;strokeColor=#ffffff;points=[[0.005,0.63,0],[0.1,0.2,0],[0.9,0.2,0],[0.5,0,0],[0.995,0.63,0],[0.72,0.99,0],[0.5,1,0],[0.28,0.99,0]];shape=mxgraph.kubernetes.icon2;prIcon=api;labelPosition=center;verticalLabelPosition=bottom;align=center;verticalAlign=top;" parent="1" vertex="1">
          <mxGeometry x="653" y="876" width="50" height="48" as="geometry" />
        </mxCell>
        <mxCell id="rtEwo6KJ-qp1Gtlreiss-36" value="Conta" style="aspect=fixed;sketch=0;html=1;dashed=0;whitespace=wrap;fillColor=#2875E2;strokeColor=#ffffff;points=[[0.005,0.63,0],[0.1,0.2,0],[0.9,0.2,0],[0.5,0,0],[0.995,0.63,0],[0.72,0.99,0],[0.5,1,0],[0.28,0.99,0]];shape=mxgraph.kubernetes.icon2;prIcon=api;labelPosition=center;verticalLabelPosition=bottom;align=center;verticalAlign=top;" parent="1" vertex="1">
          <mxGeometry x="803" y="876" width="50" height="48" as="geometry" />
        </mxCell>
        <mxCell id="rtEwo6KJ-qp1Gtlreiss-37" value="Bacen" style="aspect=fixed;sketch=0;html=1;dashed=0;whitespace=wrap;fillColor=#2875E2;strokeColor=#ffffff;points=[[0.005,0.63,0],[0.1,0.2,0],[0.9,0.2,0],[0.5,0,0],[0.995,0.63,0],[0.72,0.99,0],[0.5,1,0],[0.28,0.99,0]];shape=mxgraph.kubernetes.icon2;prIcon=api;labelPosition=center;verticalLabelPosition=bottom;align=center;verticalAlign=top;" parent="1" vertex="1">
          <mxGeometry x="953" y="876" width="50" height="48" as="geometry" />
        </mxCell>
        <mxCell id="rtEwo6KJ-qp1Gtlreiss-38" style="edgeStyle=orthogonalEdgeStyle;rounded=0;orthogonalLoop=1;jettySize=auto;html=1;" parent="1" source="rtEwo6KJ-qp1Gtlreiss-18" target="rtEwo6KJ-qp1Gtlreiss-34" edge="1">
          <mxGeometry relative="1" as="geometry" />
        </mxCell>
        <mxCell id="8OT0HYLFbWtoue18eO89-1" value="" style="shape=image;verticalLabelPosition=bottom;labelBackgroundColor=default;verticalAlign=top;aspect=fixed;imageAspect=0;image=data:image/png,iVBORw0KGgoAAAANSUhEUgAAA7wAAAI8CAYAAADShKdbAAAAAXNSR0IArs4c6QAAAARnQU1BAACxjwv8YQUAAAAJcEhZcwAADsMAAA7DAcdvqGQAAP+lSURBVHhe7P3nkyVHep4P31V1bHsz3g8GA4+FB3aXZkmKIkXyR74vZRgKUhH6SWvE5Vd9UuiL/gF9kCIkBU0ERadXCgWDWnJFu+Qu1wFYYBdYuAEGGIy37buPN1Xvc2ed7Kk5c3oMMJju6b6vnmeqKisrK6uO6bo6s7KCL33pSwmEEEIIIYT4CCTJvXcpeS/WeasRBEFvTtxrbLTPV9ibCiGEEEIIIYQQH4uN9scKCa8QQgghhBBCiDvGRpJeCa8QQgghhBBCiDvKRpFeCa8QQgghhBBCiDvORpBeCa8QQgghhBBCiE+E9ZZeCa8QQgghhBBCiE+M9ZTeax5L9Ju/+Zu9OSGEEEIIIYQQ4t7ji1/8Ym9OLbxCCCGEEEIIITYpEl4hhBBCCCGEEJsSCa8QQgghhBBCiE2JhFcIIYQQQgghxKZEwiuEEEIIIYQQYlMi4RVCCCGEEEIIsSmR8AohhBBCCCGE2JRIeIUQQgghhBBCbEokvEIIIYQQQgghNiUSXiGEEEIIIYQQmxIJrxBCCCGEEEKITYmEVwghhBBCCCHEpkTCK4QQQgghhBBiUyLhFUIIIYQQQgixKZHwCiGEEEIIIYTYRAS9qYRXCCGEEEIIIcSmg9IbSHiFEEIIIYQQQmxOJLxCCCGEEEIIITYlEl4hhBBCCCGEEJsSCa8QQgghhBBCiE2JhFcIIYQQQgghxKZEwiuEEEIIIYQQYtMQBGkQCa8QQgghhBBCiE0HpVfCK4QQQgghhBBiUyLhFUIIIYQQQgixKZHwCiGEEEIIIYTYlEh4hRBCCCGEuEMkSbJuMYhB+e5mCLHeSHiFEEIIIYS4A2w0wZNwCiHhFUIIIYQQQgixSZHwCiGEEEIIIYTYlEh4hRBCCCGEEEJsSiS8QgghhBBCCCE2JRJeIYQQQgghNgHZ0ZFvd8Cq290umz8bQmw0JLxCCCGEEELc4wyST8Za3Go+Ie51JLxCCCGEEELcw9xMbPvxabcrukEQ9OZuDPP5EGK9kfAKIYQQQgixCaDA9setIkkVmxUJrxBCCCGEEJ8wpp+9H85fjWu5umZwbkZKf2o8IFw6xbc3n5IgVVqbZtx2VZB95v64OrlmmlndI5t67Roh1gMJrxBCCCGEEJ8g/eqa5Wra1RzZ3IN+VmW2F21bqHcSLLdiLDVjLDe7qLQSS+O6ALaql9dv3SuBxuv+2X+9Aq+TXk9vftAqwpKvXetz+KkQ64OEVwghhBBCiE+Iq5JqEfSmlh6bZMYmo7EtxLGlJVzTtei4iG0+Tixim4/b6ZTLlq9rUmo+i4ZtW48DzDWBU8sx3rjYxGtna3j9bB3HLrdwZiXGfCtAzfbTsm263AfLQNumVqZbTpU0SEIEVlbQ9WFpVj6DGZjHqunq7uZNljmfRnqMfulqME2I9UXCK4QQQgghxCdGYNrHMP0z8fTzlEH/k4qhzaWZTD4ZFEazTieOJDBhDdG0MuqWb7GZ4OJyF8cvVvH6ySW8/O4MvvXmJXzj9XP4xmtn8O03zuP7lvb26SWcvFzDleUOVlow8U3LiakBftc0Wbdzii/TsrW6Gv5/4npDZ7pEc12Sbmwh2RUbBwmvEEIIIYQQnyg0Q152ZwyRUmtSmFVgrnXdi920J462mAShqW+ERhxipR1gtpbg7EIH716o49X3l/DSO7N48a0ZvPzOFZu/jJfevoSX37qI7719Gd8/NoM3TizgAxPjC4ttzNeBaidEO4nMc20vlNuMm1JaXdg8tTW2/TN8lrR2KZwPLG96DD0yeYXYCETPPPPMf+jN4xd/8Rd7c0IIIYQQQoiPTc/+ApNLF5x3gti1iFNhZNi6VIojWiQ3cbk6Sc7kNIdGEmK+BpPWLj681MRbpyr44YdLeOPkIj64YDI718ZyPUSzk0erk0OlnmCpaoK7VMfsQhULy00s19qod2yvQQ5RzsJEOrR9BaGFq1ivZZbCywZgRq8unIRO0n3900hr6Q8yjXSLVPD9EQtxN/mzP/uz3pyEVwghhBBCiE8Mp3pOZtN5yi3ba4OgYwtswU1bcSmIXMPoWELbpk0zzkUT15nlDi7MN/HhxRreO7uCt08t4/i5Gk5daeHyErDUyKPWKZgYl0yQiy7aSQGtboR6C6g2YqzUu1g0AV5Y6aBS66LejNFpw/bFFlyrkdWBkYS81zh2sus91dV7NbzspvOp8F5d7/638jj1P36NEHcLCa8QQgghhBB3iVT5+GNyaDIZuBGh0lGhOJAVJZf31HaTyGQ1QMPMs9IOsGCye262gZMXq/jgfMXJ7ntnlvH+2QrOz3cxXw1NdEsmt2WT1WHT6JJFwcosmmOb+CKPVhyhYWJbaSZOeOeWmlisdLBS7aJp0tuwavC+XsuSCm9kMya9TmTprlx0dU/nSTp/tXU3XU5/uFHaKuxT/FZC3D0kvEIIIYQQQtwNMr7nxmc20U0sTHXdeMzs2NwNcia6kclpgJqZ55yJrrtH93wNb56YxVsWx8+t4PTlGi4v8pFDJrKU3KSIbjdnpeStzIIFp7YcRC5iWHBqaV3k0O61+FbqMRZWWia/DVy2mF1pWpmU7wBhLnJdnCm5bKel+zLMy7lkwQNKZdjBdX7BTS2Pa+FNNTlz+ELcNSS8QgghhBBC3DXYisuf2ESUXYY5/nKItkloM8mhbiK63AxwZaWDM5freO98FW+fqeAdiw8vVHB+rom5SoLlhglrO29yXEAc56xck1N3X7AVaLKZtrUabkIT5TzXhUg4SJXl78YR2nFoYh1gpRljsd7FQq2FxWoLK7UmqvU22nxwbxIiCqOetqYSm5gIp+X19kkJ5n29TnR761zedLmXKsRdR8IrhBBCCCHEXcLJbq/7Mh801DEpbJmA1ro5rLRCzFUTnJ9v49SlOt49vYS3T63g2JkqTl1uYWapi6UGuzkX0ImL6JrsUl4plq4d1d0T7J7qa0tpd2k3IBa7TrtlS7a5VD+5BVuTc2iZ9FY6gWvZXa53sFRtYnG5gSWLZtOknM/k5X5MfFlSEto0I7xOZXvDO3vhdR2cKcY2ddnSXELcdSS8QgghhBBCfALwMT/9pG27JromkR0TSD5eqGKiO1sFzs628c7JCt44Poc3P5hz9+qen+tgvhKg3i6YmBZMXwu2Pe/NzVspbNllmyu1MkaYdE162y6iXoQBlbpt6zn8lelq4pQ1bQ3mAFq+y3OYN5HNm0Tn0GgFqNVNftnVeb6GuYUG5peaqDb5CCPbW2TRk116b0IhtppwlOercD7NQ6jX16wW4i4h4RVCCCGEEOITISu8qe3FJsFdS+aAVMuNGLOLHZy+1MD7Z1Zw7OQy3jtdwcmLDVyYZ/fiCJVmzj1aiN2W49jE1LW0mqQ6haREurZUCxPegMLbQS7soJTvoJBPUMglJr5dk9uObcfO07al7Z/34aZ35qZSSvflf667s+2rY9HqRKg3gBWT38VqBwuMStO1ALfbHNrKyg7Z3Znim5bWO0wjLTedSnjF+iHhFUIIIYQQ4g5CzWVLbj/UUspuqwuYM+LCbBMfnqvh3ZMreOfDZRw/U8G5mRZmVoDlZh6NuIxunHcSytbYhOGUtWeOTna96HaRD2OUcl2MlBNMjgSYGM1jdCiHIqWXLbwmvQHvs3Wym7bwrg4yxfry+UMUahRtX3k3uFWrE6LWTLBS62B+xeq2WMfCSgOtVtvk2yQ3ClEoRCbVJhO2OYtL23sNL7yG7wEtxN1GwiuEEEIIIcTHIeO2nE0XOSgVR2I2waRhmvhRWNtxgOV6jDOXGnj93QX84Ngi3jvXwvn5GAs1k8tuhDa7LIdFdPlIIUqplUhhZPfjIAjdyMkwuQ3CjqU3kLMohS1MFBLsnsjj0M4hPHR4Eg8cmMSh3aOYHsmjbCIcJW2g23bCy9bcLp895MrM2T7Sga8Y3Cc9dfU5vGaq7BjdbEeotUIs1xI3qvNStY1GK0GxXECxGKFU4L3ErqLux832pmrhFeuFhFcIIYQQQoiPSp/sevioofRuXZ9KbQ1QbSa4vNDCuyeX3f26Jy62caVSQKVTcKM0d8wKeZdtbGLL5/GyBZaimG5tP66FlqLbRD4y0c03MDUUY89kDvfvHsPDBywOj+PogWHs31nC7ukCto/nMDmaw3ivtTdv9hm6gaxYVhdx3HUCzG7J7JgcJ+kjkxB03NQNtMUBq9jVOSmg1cmb+CZotLvo2LblYohhK3uknEOOZfNoU89NZwwJr1gvJLxCCCGEEEJ8VNaQuNhE0o3DHFIX027IlMbFWhdnZ+p44/isyW4Ll5ZyqHSH0A4KiN1gUNRkyjJV2QoPKbwUXepv2jU5QtNEt4nRcgvbxhMc2FHEA3tH8djhaTx8yGR33zD2bi9gaix0XZu3jecxPVbC5FgBw8XAtoXJcmzBe3tbJrJtq5vbFWtp89w/nxFswhtS2lkXKiuf88uBs/JoxRFa3bZt20IxH1v5RUyNl1CMKM5pOdRn/uN/qwIsxF0mK7x8FwshhBBCCCFuh6zJmThykbLH1lIGl5zwWtRaXcyt1HF+bhFL9ZaJrsmxGSJ7ETvJjU0w2YrL9l1uavNM47pc0MZQ1MRkoY79EzEe2VfCCw9vx088ux+fe34fnnx4FAd3501ygaF8ghLv6bUYsfntYwGO7Cnh05/ahs89swufe2oHXnhgCI8dCHF4extT5SqKwZL57TKioOn2z3t6kyRnc+kgWezaTCFPnx8cotVOsFJp4vKVJSzZMbU6Xafq/OkdjZVDybB5Lgqxzkh4hRBCCCGEuE283jl68utaNCmxzvVMH81oW+aQK40Y89Uu5mtdVLoxWpapbQLZdS27lnm1KZQbpk/qZdfiXNjGxEiAgzuL+NR9Y/j0I9vwo4/vwPMPTePhfSM4MF3AttEAI6UEhcj2aDvudmJ0bKdJJ0HOihvOhZgayuPAtjIePTBqZUxbGTvx6cd24PGjJsu78pgaMUmO2sgHHAzLt+pa8Jm6PJ7ej6uZCXGzE2Kp2sGyHU/N9sV0J8X2w47dZus2FWJjIOEVQgghhBDiNqDWeeipzlUzUz6Ll9LbtZSmiScfRbRQS7Biolg3YWxZxg6Ft6eI4KBUdlnutnfdojsITUALhTZ2b8/hkSOjeP6xbfjMY9vx/IPb8Oj+EeyfyGG8EKMcdlHo3ZvbsX1VV1pYnK9jabGO6nIT9ZUmWpUmypZnz0QBjx6cxLMP7TDh3YVnrcyHDo9i9xQHuOogH/JxRqxHbyArpwrpUVHMKfAcxbkd51BrBlipxajUY7TtIKi46YBd/j7htKVXiPVGwiuEEEIIIcRtQU3Nai+1MF12osuw+bb5X91scMnEcKGeoB7n0TZh7LLfctTr0mx52aOZJXA05jA09Q3byOfqGB9t4eh9RTz/5ASee2wUR3ZFmC51MGbrh4IOiibH+YSdj62sOEDV9nPm7DzeevuMxVm89c5ZHHv3PN4/fgGzl5fRqdve4wQTpRAHtuXxqSNjePS+CRzcM4yhQrf37F6TcCvLVY6q4Fp8UwLWm4NsdfNotCM3cvNitYumHbCTd9fK69TX/RNi/eD7Nw0JrxBCCCGEELcJ1Y5Od63X9ZaCtDtzx+Sy3uq6R/ksVrpo8Tm3YQ6JiaPzSYab9OTSTdky2kI+bGB8qI2dkyF2T+cxNRxgtAgMRRxCKjBxDRBZBLFtZ9PY9tWObV+1GhaqFbRtHw1LW6rVMbOwgKXKChqtplWtiwKf21tMsN3K3D1VsH0UTHgT5DhglVN1Z+CuXqnIs8WWNWT9Ijs2Pqs3h+VqbMfVRsM2adn6LmXZ5Sa9gxNiHeBdAv4tKOEVQgghhBDiY8AuzKuaZxfZThNtpmPeyMf4UHiXLdompxz4KWFDKbv/um2YO2KCa+1lWRyVuZRrm/DGmByCE92ciSrvsXWPF6J6JrZNnEbXimp3OybXdTS7DcQ5YHhqBMVx27gYodppoNKsoWHTJOwiDNl9uYOhXIypoRDTYzmUC7aPiHXywpseE4WXA1D5cMdm+253IqxUu1hYaaLeMdm2erOV13V95pbyXbHOuLeg/SfhFUIIIYQQ4hbxastwzZ5uyv9685mm29gksNmKUa22UKHwmkuyu7NrHeZjgJzhmkIGOduC0mtKaUmFKDLJLZiMFjBSiFBwV+wcDZllmuBapOKcCnQ3tn3Uqrhw8Sw6SROT0yOY3jGOnXu3YduebSgMl9AxWW50mlZGKrWhSTUFmo8s4rN6+TzdgokyZTikFJtgh0kXgZUdWp0ii9Aq51p5rZ6dNrBcaWJ+uY66GXfbjoP3LFOXPbaJEOsKP4kSXiGEEEIIIe4Eq4aXttZyEKlavWPRRqPZQezujbUVFoHJcqrG9uOafCPXakvxLYQU3SFMj4xjKF90Xt3tmmTGERo2dYNFNWJY0WjbFuw63W61UVupoF1vOauO7DI/tryNZnpvb7Vq9bBpq21SaunsBs2hqYq5AMMmuxNjwyiVbCvexxt0rFTqa2zCa5LLsIMLe/IbUG67gTuulWoT9aYJr3k0NZpPDk6HrRJiYyDhFUIIIYQQ4jbIytw1YudafGmEbImFe2YtW3YpvW0zwoStv2zRtTxpV2GXtdeDmEsU3hC5MGeiW8L06DgKUQHNVoJqPcEyB7+qtHBxbgWXF2pYrDTTAaNcJQLkkDfrzKFZD7G40MbsbAvz820TXqtLK0K3E5mEpyLMbslumzDAUCmHyclhDJn45nqtu66t1su55UxFN1VZHkcnDlFvcZTmtsl3141G7dby/mVOXZ2EWH8kvEIIIYQQQtwGacvsVeh2qd85K3TTjvkihZCDOvFZtR3Krl16u8cPmdy6rsHMG7CTMe9+Te+dpVDmTTjLhRgTYwU3ENTluRreP7OA46fn8M6Hl/D6ux/gnROncPrSLCqtNuIwwvDIOPYfuB+T04dR70zh1beW8dbxFVyZS2zdDmzbthNTU5PI502qI5NdDp5FwbZ5tuxumypgbAgoBBzJOUZk9WUtOUozXTw2400s2EjdtbROkEPLpLnWSrs2N1sdK48/2fMhxPoj4RVCCCGEEOIW8bLLIK7RllMXbP1M783txgnqzS7ml+qo2pSdhNn6yS3Tbsxua1Nc+wlNFl034o5dnKejKA+XEoyN5kx4Y8wuNXDywgpOXVrBxYUaVjodzFWruDC3gDOXljC/0kadLbtJCQu1CJcWYswsBbg018QVy982gc2XcigN501w2Zs57bDMMHdFsRBgYjTCaClGyeqSs32GZrlsM6ZMdyxPJ7R6mpx37RA6YYh2mLf95VA14Z1frKNhx5geGbtrx3aY0l6xMZDwCiGEEEIIcRtkhZe4xttegte89JFEbcwu1lBttE1c2dXX3QlraxlUQ25rcmgyibBrSexOHKOYTzBcBkaGOSBVF4vLFNcWFmtdtMxYhyZGEUcRZpfr+OD0PM7N1DBX6WLO1l9aqOLy3IrtO8FKtYGllWU3enPHfnjTrmtLNiFnl2v2pOajdQt5YNz2NVoOUM4lJry8X5eVSwfF6lByTWA5bBaFl88R7kY5tKzAqu1n3o6x0aCwuzZhd2Q8WiE2AhJeIYQQQgghbhmvtNfD+1YZ7jFBnS6qtRZm51dsasLLvsBedl2zcKqG/JeWx5bRBFFk0lksmvCWUMxF6DQ7aNbbKBWK2LVzGx44uh+PPnIIO3btQScZxgen5vDeyUV8eNGkd6WB5eV51FYuIq5fQtiZQxBX0GjXsVxrYqHSRNXKardMrq2S+aSNvGls0aoyUs5bFFEuFUy6WR8+YCh90BDVlZLsRNnW8VDiMECbUm8yP79QQb3esmNPj5GDWhHXoC3EOiPhFUIIIYQQ4rYZIL1meGzBjU1m2cK6XI+x0ozR7ASWlrNNojTc+MjsMpz+sCx2hWY34FwuRKlk4lks0ypNdluoV2omvg3bIkEhX0CxUEYQlk04i2h0C7i40MSHFxZxbmYRBbPXowcn8PRDU3jq4R24/9A0cvkQ5y/P4e3j53Dq7DyWl+pIOh2rRQc5k1o+27dciDAyVMLQUNmkm8dCzWWdbEJ4bCa5qeym0su7jpvtLirVFmr1Ltpty2N15kZuswGnSIi7jYRXCCGEEEKIW8IbXDo4U7p81erSjrwBuia8lQbcqMr1doi2yW46KjIvvS18664TQ2+UFMy0hbdUMqktFk0eLaUb27RtglpHo1bDynIdK5UOKrWuyWaAXGkUKy3gwnwFlxeWMT5RwhOP7MELT+zG80/uxyMP7MbwSBmzCxW8/+ElXLy0jGrFNoj5nF3eMxwjZ1UommiXSya8pTJCqwNbm5302jRgUy1v9uUAVhTftOquxny2cM3qUjO5bzZNhPnIIzu+q8clxPrCT5sQQgghhPgYcJAiH1nWShfrS/Z1yb42/ek3CvvPRDQNOi9l17XuWrRsecUEcLGaoBlz4KnIpScZ0fWwKAplEJokhpZu/8IwQj6XQ6EQYseOEezfP4mJiTwqS3M4deIUzpycweWLs6hUV1AcKiFfLiHI5y1y2LF9FPftH8dOy79rqoDd24exa+c0RscmUDQ5HhoZQ6lcdC3JrhbpoRgBolweUaFgFWAlWDG3wuHU3NLpvgm7Nduh8Jg6rjXbjrcSW3TRTZ+R5LYQYiMg4RVCCCGEuINcI0ViQ5N9rfrDr4/jOBNczuTJvMRuMWHrbuBaPZeqLcyvNN3oyR228LpuzJRAL4ImyG4blpUus7xOp4tao2XC3ELD5ofGSti1ewy7do2hXLK87SqSTgOj5RA7t5nM7hjGxBjvvc2hWMi5Z+kODXE+cFEqRigXC64rdJQrmLBGJqypmMdWJ7ZGtzoBlmsJFisdrNQ66MTpkFO2N7Nam2NDby/SSqdTCn43jtBoBVhcbmNhqekG63Kr08MRYt2R8AohhBBC3AG8BDkR6tG/LDYO/nXhlDLrX6tsML3b7fatZxfjdH5V6ZiXYbMU3laXz99tYG6pYcLLO2VTybzK1dZPV4qzw1SAO2bLSysNzCzUMLfcBG+onZwaMeEdx/bpIUyO5TE5HGH/rlEcOTCJvdvLGB8CimEHeatB4uts5TpX7Vi92onJqhVuCc1W0wS3A0tyd/A2uiGW6wkuzrZwabaOedunG9OKQs5qWr6AFesJr+vpbMs2saS0+7YX3vnFhhNe7jvNQfxUiPVBwiuEEEIIcYdIJSid+hD3Bv2vFSW3Y2LIaLfbTiLT1zSVOf+83V7CKpTMphnjkgnvfKWZdmk2sXR9gV0XYR/sHhwipAibWfKRPhzMqtulPDZx5uIK3ju1jCvzTds+xMT4CI4c2ovHHzyMowd34KGD0zi6dxSTpS6i5gJaSxdRX5rF3OwCLs1VsdyMsVSNsbDUxtJ8BbXlChqVJSxanuV6FbVugprVa6ER4uxsB2+9v4RT56vumb6tmK2/7KKdVpsPG4pYQ0twPZ25xh2LCa/lbTQTLK40sbBct205trM/Jen/QqwnEl4hhBBCCCF68H5aiiwl9+TJk/je976H73znO3j33XcxOzuLZtME1OR3FXO6VP24HbszJ6g2ulipd1Az6WzFJrF2yX1VAC164uvu3TXhdYNCMU/CiGy7EFcWuzh+egnnLlexUjVlzuUxMTKMHZOjmB4uYapcwFQpZxFg32QRB7eNYOdYGStLy3jn+Bn88L0LeOPdC3j/g0tYnFnGSKGA/bumsX3bKIpDBbRsjwv1BKevNPDu6WV8cNbkeqmDejvtgs0uz+lRUXQZpr1OzJmaBgew4ojU7W6Iaq1jkt90o1O3Tfq99KbHLcT6IeEVQgghhBBbnlQ+0yBeeCm7f/EXf+Gm77zzDi5cOI+lpSUT3wbiOG31dVbn5I/P341NUNuomfA22onJIwesYpsoM9lceiNsGpw4dewNaGURILIyciaPAU6dr+HUhQouz9VtfzGiMEI5n8cQH11k2Yds0+lyhPt2TuCRgztxePc0mvUG3j95Acc+vIJ3P7yMM+dmUVupYXpsGEcO7saB/TswbPN1k9dLJrjvn1vBu6cWcW62jqW6CXtScC3SvL+XdeMzdRmp9LKF10R9tVWbIm/HZ4Jct/qtVDuomEQ3O64HdNolWoh1RsIrhBBCCHGHyEpTVp7SrrCDQ6wfg14PBgnD0LXkzszM4Lvf/S6+8pWv4H/+z/+fm776yqs4f+4C6vU6Ot22bdO1wtKBrZpme4tLNdQaXXTiyAkvW3gpvc5tbSlAx6TRZJnC3LU1sYkuH1vkHl9E2SyYNOYxX0lw4mwVb7+/gA/PVTC/3Hatp4GZZ2TiXIxiTA7lcGDHKI7sm8K+neMYLhdc3YdGRjAyMoyR4RJGLc/UWBHbp4cxNTmMqFDEQg1471wV75y0si8soWqS3QnyiE2qE9uejyByzwu2egVOxu39bHpL4eWa9F5el2L5c2jZfK0Vu0cxUfTdPcA8XCHWmeiZZ575D715/OIv/mJvTgghhBBC3CpebPuhALGlsNVquej07gdlcD67fDfD73srhj9+P6XUZtf74Hq25FJ43377bVy6dAkXLlzElSszmJ+bxfz8PFZWVmz7DqJchFyeXYEDLFXbOHF+CR9eauLSMlBNhk1gc6Z//AMINdCHia7lD00oQ5Pc3l2yziRji669pToml67V2CyX76UCR1wu83FFbCnuILSITH5zJqlhlN4nHJt4j4yUcHjfTmyfKGHbaMFNd24fxdg4H1+Uw8xKFx9ebOCNEysmu3VcWeqimZTQDtLWaJYRWlmsE+vmnkFE0Q1M7vled/cd2zFZ/dkOnDN5L4UdjJYD7N4+gonRnM1HyPOILP/gT4cQnxxf/epXe3P2dv3Sl760+seX3/zN3+zNCSGEEEKI2yHbQkgBpkhRcilGlUrFLbPljet8nrVE+W6wnvteL3zrbT8+Pbue87xn9/XXX8f//J//EydOnMDy8rIJZxnbt23Dvr178cCDR/HkU0/isU89jiP334+oNIZLi118+4cX8b0Pajh2OcJ8PO26/FJwo6BpEtmyebbwAmFctGnJhLJge7T3RRBbtNA1eUxCk2ITyaJJ5kSpi/3bQjzz0CSeODqGwztzGC9QMk2lYypnHm2b1toJFipVtO29NjUxhtimcaftRlfOFQqIozyqnQRvn6nitRMVfP/9ZVxZbKPagAl20fbN0aStOhRek3SnrN28Jdh7NTa5jmo2a+/tgANxUWfZBtxGMaliqlDB4e0hfvzpfXjigXGrYwnl0ITYMm29d5pYb/7Nv/k3vTkJrxBCCCHEHcE/usbTaDSc7L700kv44IMPnPxGUeREky2I6ym8W1F2iX99sueeU//acT6bh12WL168iFdeecW18FJ4mbdo8jg8PIyJiQkcOHQATz39JH7h//l/sPfgA6gnw3jxzYt4+fgKjl2CCe+U6a1JrZWXym7btcyyv29oohuY9CKh8JKuCWfbhJctqWzFNVGN2yg56W3hoUPD+NTRcRPKSeyaMOktWpldC7NUd6+t5ecjkbpxgnze3mtW18C11oboxCEqzQSX5uv43nszeOWDRRPyBNVWHp0kbyLLhxpRuhOrGu/TTbtZB1ZHDljFCgcm7Pa/5Q0t2NU5Nu1toRxUMZFbxqFtAT737EGT8gkT3rIJuYRXrA8SXiGEEEKIO0xWmgi7u54+fRpf+9rXcP78eRw8eBC5XM6ty4qxWH+yktsvvOfOncOLL77oXkv+AYMt9RTeEQrv5CT2H9zvhPeX/j//X+w7dBSdcBSvvz+H7749hzfONjDbGkMrGHZC6cYuNtlla6/bR2xpJpuB6x5MleT6NuKwa/ktj4lmRKlMOihHTeyaDHBkbxlPPrIDB3eVMD2as/Umt1ZlvrPY1suSKa58F4a2rR0R94RmO3CPHHr/zDxeOzGHY+eruFAvo2XCzXuGu7Y1W3cpvGkpBqWXUt7rku2EnCUyny1FSduEt44yVrBzpIUH9xbxE88dxoP7R7BnsgDzcQmvWBckvEIIIYQQdxgKL/HCSznio2z++q//2onTL/zCLyCfp/SkAyJRrLKCfLfZytLtj73/HPjXwqcvLCzg2LFj7n5Admnma8o/WoyPjWHHtu3Yd2A/Dh4+iEcefRQ/9uM/hm0796IdDOGD8xV8581L+MGJJVxYyaMWj5r0lp1GsuXW/regXLOVNL0XNh3WisNbtc0zE7fEkZvZepuz/HkT4VLYwLbxAI/cP40Du014x02IQ9NVqy+ll3l5jy2llHAM5XRE5QCNToiZpRbePTmLE5dWcGGpi2owYnssWa4curYvtuya4bLpOZ237QITcko5ldqXy/qzW3Y+qaMQVDEUrOD+XXl86r4J/OjTB7B/uoDJcuiEN7TwWwlxt5DwCiGEEELcYfolinLEx9h8/etfd12Z/9W/+lcoFotOqnyIu0e/3Hqy6Zzn68IpW3KPHz+Ob33rW/ijP/ojzM3NuT9U7NixA0fuO4yHH3oITz71FPbs348dO3diets08sWyu5d2ZqWDV47N4vvvzeHd81XMNcqodG1dUEBsL7sTx4B/9ODgT3wUEVtnTXaTjkkqW1EJ5ZWtv+xazG7LfFBQE6VcG5OjAYbLJsD5FvJREwHvD+d9tsjb1qnwBrxfPOkisuPJ5QpWrzwqrRCzlQRLjQS1jrur2PKmI0O70ZYtJeHAWiHr0Dsvto7Ca0pt+dj1mvf3tpFLmibhFQxHdWwfbuPJ+6fw9EPb8dh9Y5gaCjGcY20ovKyXEHcXCa8QQgghxB2mX5wovGwdpPCWSiX8+q//upt60ZXwbhz4evnXj68LZbfZbLr7r/n6/e3f/q177Xbv3o0HH3wQR4/ch8OHD2PfwYMYHR9HqVx2Lb+UzI6JZ7UNfGCi+9bJRfzgvSs4ORtjppozXS2jE/CxQxZu2nsvmE6mwmuCapG2zTIooxRi3kNrqU5g28iHLRRMNIsmvEMltgrbNvYvji1/GFk9TFJDE013/y6QzxXR7EQmvBEWm6bNJuWxk2jbyD0OiZ2hbX8muwnvL7ZIW6JZP5NiCrHJbsz7eS0PjySfUHar2DbSxf17ynjGZPfxI5PYM1Uw2U1QsE3ZEVrCK9aDrPDqsURCCCGEEHcYShMHreIov7z3k12Zn3/+edfCy9ZethT66F9W3N3ga9WfRvntdDquGzPv4WWexx9/HJ/97GfxYz/2Y3jqySdx5MgRTExOoTRksmuvrxc7m5hghvaa50yCQ3sftFCtt1BrtBF3TaqdXLJl1abMzH8coMopLltPjV4eSmgqv+layixbZdvd2ITVUqIQ5aEhFIqsQ8kktYB8aQT58jBCW47y9n4z2Q1zJZPcAuqdHCoWvPOW+w+tOnwsEh8uRKl29bc9uG7NloMJrjXa18MkOTIZzgcNFE14J4fa2L8tb6K7DY8cHseBHaW0ZTdg6ayxnZPeeRHibpJ9LFH65yIhhBBCCCG2MBQzQtnlPP9IceDAASe5v/Irv+LiZ3/2Z/HQQw+l3ZcL6cjKbBhm9LY2gYyRs4TxcoAD20v41JHteHD/OPZO5DBsolhKmiiw63JvQClGqpUWJpSU3fS+XraPUoptNe+p7Q1kxWf0uhZck9soGsLo6BR2bt+Jg7t34eDOKdy3dxpHLA7sGMO+baPYPTWMqeECxgoBylEXubhh0bKS087PJH1EElt8bepaflP9TUd/dllsyY6Lrcsw2UUdI7kG9k4V8NCBCTx23xT2TJnsWnVT2WU5/pwIsb5IeIUQQgghxJbHd2n2sIvy3r17Xcvu008/jfvuuw/T09MYGhqydflUkDNGl0pvKq7sYlw04xsvhTiwaxgPmhQe3TeObSMhhpx0ti3YhTkrvcQ0M+Y9swzTRgqwlZWgbYU3bb5peflYowT5KIdiroBiVHCCXTAh3j5RwvbxPEaLJsaN5fQZvkN5TI8WMVaOUGZXY3Tc6Mq8Xzjdd3oYLrzspuNWOdlNgyLP7tYNE946hnMt91iko3tH8eDBCdeNecz8n3cQ8wm9HFn6qigLsX7wbSjhFUIIIYQQW5p+2aXMsqv51NQU9u/fj3379mF0dNR1d3YwP0Wwp3NusVcEZZRdk3kvbsm8lQJ6354xE8NJHNg+jMly0JNOBsWQ3YcplWxNNeF1LbyUXXYh5hquN+Gl7Jr0BiaxvI82b1mKuciE12a6tr7Twmg5h+FSYOvaaNYrSLotyxNgqJRHqRAhZ9UPA3abTvebim5Pem1nVwWXdemF+6E0sOW6gVLQwEQ5xqFdIzhqIn9kz6g7pnLEO5NNdl3ZrHjvhAixDmTfgVtCeP0Bf/KxEX44jHw6lHz6M6iea4cQQgghxFaDwpuVXt+92eO7Obt05nNWmObjfa0xN+UmnDKvySTFN2dRChPsMOm9f+8oHju6G/t3jGHMpJRy6EZlZl4nvmmxKem+uDsKqZNUPr+XQfll66wFBXZkqIjhoWHki0NwHZWjHKJSGUMTU0jyZTeA1kqzi0qri3o3QSewPBZuhGare6q7/N+H/3F34KZ1YR1M0gu2h4mhwI5hBI8+sBuH945hejTEUM4E3EQ8sjxOnHvnRoiNwJZq4XXfQZ9YZH+8dK5HZH8G1XPtEEIIIYTYimTlbJCo+ZbdVEK5nstpPs7xnlUupYIYIgnS9RwhmVI6WgR2T+TxyMERPLC/jP3bQ4wWqigGdRPfVk942ZJr04CjNLfs2qxlRdi8leEGlUryve7O3FuIlslrpdHBzFITV5bbuLTSxoWlOhabMWpxhOVmgCtLbZybreHcTA2zlqfWtOtDFumejUTpLVhwCnTdPcK8fuQxFGzKhwrZfp1s11GMKpgqNXDfzgIePTxuAj9kIh9hKN+1Y7RjsO2DVWNnGQwh1p/007sF6Je7Tyb40y+d6/0zqJ7XB8nOCyGEEEJsJfqld1D0VqbREzq25EY26y+q03bSdGRl5mF6yRx1aijA4Z15PHighCP7itg22sJIvmFq2UQU8/m71E5eu1E82xZNE2d2ZWZyziS1YD5sEmoyiyAy4QWWaia0MxWcYcxWcdqmFxebmK20TYRbuDBfx9mZqhPeeRPeRsPK71jNbFdsv6XUsmNzN4wtOunUjo2dk/lIJOZiy27OhHcoX8OeiQQP7R8y4eWAWHmMl02NbRt2saYYu4O17RNG7/iFWG82lfD67ij9Yf+59f5jtxqWvmYMyn9LsVF+BtVt7XDYcTMGnkMhhBBCCHEVu4C6ei2VXjumS7y89pFek6WDTCUYZXfgPSN4+Mg0jh6YwvaxHMpBC0UTxsjyUKpjhm2aWLhRma1s/jA9scIYbIntWjS7HSxWq5hbrmB2oYJLsxV8cHIB770/j8tzFSwsNbBk8rtSbaPWiJ0kU8aD0ETcRDUI61a5hu2vaWGSHXat3BjtuIvEIuDAWt2W1bGL7SN5PHRoGx48PIGDu0sYLQbI8xDdZSKPksFFJlhY/XorhVhX+DbddAwUNhdcmQni5u2/geHX32JsKPiNaJPbjPTQ+86dEEIIIcQmZrX19mOyVjlM9d2bp0bzOLiLraRTOLSjhKmhxIS36QaxYpdmd39tGDrppfAmJo5p269FwGfxuiGnXHQstdXtotlJ0GgDtXqAxaUO5pfaaLb4vN4cOrFFwojQtULTe3d5jWcbBHUrr2HlskXZ5Dq0dNtvGFldTXJ5z245aWLPRAkPHtiGh++bxr7tQxgrhShYvsjsO3QDbeUt2N3aqwVrvFprJgixbvh35aaHf2Til8010Utb/SxmYmD+m4V96DfMz0epv0V6Aq5F0iuEEEKIzY7vtvzJBIWXg08BI4UAuybyeOgA74Mdwb6pPEbzbRPIltWC3ZkDk14KL+8F7l2aWhoDvDeY6yzNtQTbPJ+m6+7DNensdAtotEI0GlZGXLRtLYKC5WPXZd6rm7N5C5bJga96jzliH2dXHq8GrZ5RGCMfdlCOWpgsdnHfjmE8dmgbju4fw/YxPgopQM4qR+FNR5Zm92cGu1ubNDtRt73wglSIdWbLCC+xj/A14elP9+sGpd84+KHfILH6M6ie14cQQgghxFZksKB+tFirPEdiImlKSfUcyQXYM5HDIwcm8Ph909g7XTAR5qjNLctmCsuGi1WRtMt1tpwm6ajK3V6wNJjIMoKwaFG2tJKJb9HWFywotgXb3oQ35p5NlHvCDJNpVzf3Y+WYLKcDVVGcE8vfMJmtYqzQwpE9w3j4wCge2FPG9pEQw3k+yze9wzeyrdMWXpbBYD1thfuPg29JeMX6Y+/KrcLVLro+0uQ1Poh9eVe3YQzEvnh6q/vjTjGo7JvH4ONwEcfXhqWtRXyT9UIIIYQQYm3ovRzKKhfEKIUxxovA/m1FPLB/DEf3jbtW39Fix9Y1TSTbCO3aKzSxDeOwJ5WpWKaRs8hbeWlXYt/C6uTVBS/xLb/9cMepdHPqJi6deUMT46Brstw1Me7kEdm+8na9x4G0xqwue6YiPHJoHPeb7O6eCE3KTaGt/nx+sOm37TctC1ZPF5x3wWtGXTeKjcGWEV73sfOiR3HzcQMG5ecWPrKkawbjNl39Avho4YdCuD2446vHcG2kAsuIbZ5Cy+mgw7h2u6sZsvNCCCGEEGIwV4WTQ0bF7v7Yci7GtrEIB3eV8eDBCRzYWca2YWA4rKOYNJGLOyaglp/Sm4nIxDdnusmf0OQ3tGnasurU03Wbjmx/rvXV5rm/dCTpdOzodPxohol0XEzDhDfqRMh1YfvuYChsYcc4cHhPCY8cHseBHUVM8l7jqOvqzjJdGe7yND22q+HJzguxfmxK4fXdR3wQqhkfOdYf9t1g3xH2kb0mBud14cpKf0wZV4Plu7LWCu7/Y8RNyx8Qg+rv1vE7kfeFZI7ZfSPyXNk/IYQQQghxJ+ldl7ofXnKxg3EXpSjB9EiEB/aP4EGLQzvymMxXMRxUUUgaJrztNJI2ciaiuaTrWlfT1l92gbaw+cjKitCxy7mWlduyfVjYvJui3Qves9ub58N42djRNRG2i8OCbVWyehW7TZSTKiaLDRzZU8Zj90+5EZmnRkIUIooz651K8yp2QLy+THFHZ0HF2JSaIe5BtsY70b5gvAT68PLHadc+tD5Sgb02bza/m7f1txccBGBQ+p0P3i3hw6Vl6r16HFafVKA52EE6Xc1j6UIIIYQQ4k5jF1ouelAe2b05D2wbz+HovhE8dngU9+3MY7rUMgGtIp/Ue9Ew2WU0keNzexk27yN0U9532x/X5ouSlgtKMSMKLU/QRD6om2BXMBxVsW2k4wT8oUNjuG/vMMaHAhRNzNlpmuPE8BjSSWLTbKTXktSLtNs1W1gyxyvEOrElhNfJHaXTCd7VyMqhDw4Iz+B8f/401kq/UaSi+fHj+rI5Ml+27n7e1X/AMaeRlsfnt7l55rVpep7SEEIIIYQQdxgTQF6TpuKbNkHkwgQjpQD7d5Zd9+FHD4xi72SI0XwD5aiBgsloLqmacPqomfBejZDTpDddjXomTGq9JFNyXdh8YPlCKy9csX2soBQsY6rcxIFtER47MomjB8axa7qIUo73HbOu/OGdu71O0e4w7KrRRe+Q3H/UC38vsUsUYl3ZtMKblTd2OGbrbSeJ0U4StG2+lQkuXx8YkObDyrku0nVemLPRtkoMitaAtDWD5fSV219+JxuWnj02P8/ntWXrmpbpu2Xbhi6EEEIIIcSdxVthNtg8wftiE4wVQ+ydLuOJB3fg4fsmnQCPljsoRjXkUTEprZjsrpjcLpkAL6fzFpzmbD2lmOKbRnbeImaY/Lop0yoITXLDYN7Ed972sYDxcg0HdhXw8JEp2/8Udk2WUM4FyJstsKaprFMd0qDwxq7xhI80sitJF7yOTI/NtwYLsd4EX/rSl1YN5zd/8zd7cxufrJa5z5aRCptNTWrZaunm7XPWjhNUml1UzDDbSWRCaF8t7jOY/mXNbe8+lJbkFno34mf2cvOPa++ejAE51x7caa1SB+W3vOm/a2DRA8tnS67l9s9tYw43aIHl5THyoeY8Qu6rZMo7mgdGC6F9qeUs37VHwfJdCv9ZWX4tz7dPF0IIIbY6/b+P5+fncezYMXzjG99AqVTCl7/8ZZTLZfe7NEv/srh3Wfuar4dbzf/Sm+iYP731LWfaG6DZTrBcbeG9s8s4fn4FZ+ZqqNVaaHe6CO0azT0yiPtYfc+k++tdxg7Ar7BpJlMSdC3J9mjBK79SlLPrwDwO7h7HkX0TOLx31HVlLkd8UBHvFeYVH83XyugVwz2n14KcSxPTa0T7P62WS9b7W6wHX/o3/yad4cflXhTe9AOW4j9Q/Ci5Nkr7EmCwRZcfSn6J1O1L4vJiCxcX21huhmjEIdr88IXpo7pZBod8Zyn861QQdizN35Cf+ZC6faWaeJWrSyzhmvwO28httwZWj+wWPIaB+V2m/rIJj7c3myH9+gnRDfnMtfSriIMdpI8nN/GPCu6h5hyxb1u+g32jEfaNF1HM5y2NyusKcfB8hu65bemyrzHrulr7QVUTQgghthD9siPh3Xr0vweuY3U1r6K4kF7HuatLex/EMdDqxJhZaePScsOuXetoNFvoWlrIazrLzH3wLZN919Bl15Tea1ak816zea2bs8KKUYQhE97tU6PYPjGEieEcChE7Jad50q3Sa0u/47T+19YjpXd1yNU2o/e3WA++9KWe8Br3tPAywl7t/UfJPWLHvghcF137gLHb7kozxvELK3jr1CLOXG6i0jbh4wZhIxVA+yLgkOz8OLNrRhKyo69JX5z3H9kM/OT2ZjMwKU2+fov0C+H6jVxK/5eAZfVfINeTEcwe6ffqoPzuzlw7lnSO33X5hIMa2LGxa3d+CHFkX2a5EA9uL+KJvaN4ZPcYhop55OwL1Skvi0134L6srj+yDDdYJYQQQmwFJLzipsLbx6D83ThBo5ugZlHv2nWcLaeSa8JpU24x6C3jpLc3fyu4Bh/bgtd8kW1L8S3kIhTt2pDdmJnmZNe1Lrm92uSq8N4qen+L9WBTCy+/CLqUXs5bIgdfXzDh/eHpZbzy3jw+PLeCln1Y86UIUVRHGHB4d8sYl2ybCLEV2A2pyZET3lv9VDNXGtfnX/PLz74ABpU+ML9lXEs4B+X3w1m5Q7PlVHhb9uXWsfwx6mEJ9Tb/utfFUwcn8MLhKTx1YBwjhci+5Ci83Ij/cdpr4b0Rg6smhBBCbBn6fx9LeLcea17zrcFa+f14LLyaI9lca71beK3npunk5vQ24BUe5zj1rbnuiZW9+VR4PTe5HhyA3t9iPdj0wutaeS2BXXk5mNNsC3j15ApePDaPk2cXkS8UMTk9hKFiA4WwJ7yJCW8QuXt7O5bGD7R7kLcv2e2nt7MBMFcavfw9WJ8bffdd/yUwOL/LZXmvzz64PTiwc0DV5VpqLVu7c73W3U6cYKEdYXapika9jufu34bPHp3GswfHMdb7q577OvMF2z4kvEIIIcSNkfCKjyO8fp7vB9dY0bsQu5ojfZ+kN6oNxkvvzUhcxnQ/vHZlmS6lVzTfkqtpLtEX7Ke3jt7fYj3Y/MJra/zjdjgS8mUK76kaXjq+hPMXljE9OYIjByaxZ5oDNSUoug1ztk1osgt0w9gkmA/iHvyx7u3ymnWcT+NGWwzAvgSyW6TfdTfIP6D8tb5cme7aed0XJ4caiNG1k1JrJ/hwpo0T5+cxO7eIpw5P4YUjk3j6wCgm8gEKEl4hhBDitun/fSzh3XqsdU22FszP4HvAzxO+JVKxTZf5/y29T27xrZTuZlVp3f4yu0txdbBYXUk4f3vo/S3Wg00vvBwSPW3fBBq2fLkV4BUT3pffX8LF84vYt3MMjx/dgft3R5gqAWUriYNWpc+otW0pvJaWYwHXce2HNru09sd59RRfw2A5Zu5B+dcufXDxqfinwmsi3xPWth3TcjPBm2cbeOvDGZy7PIsnDk2vCu94gcLrxuG7Wq6dQwmvEEIIcWO8rHgkvFuP/vfAzejPf1V4Vy/CetNPksz7j7tzi+l13514b+r9LdaDrPDexGLuMexLgh8pimT60eKnNk3jlPeuBnEHBdPAkUJishtgeznATotdZWB3KcGeUow9xS52FxPssvW7rwvmG5RuZTCK/YEBaWnstHU73TQba+Vfuxy33+uCx9LFnnInPSaXFtqxhpi2+dEIKNp5iGIONW/nxZ07O1/ulN2NL1chhBBCiK2Nl0FOswE2NPSmiQ+7bE+v1q4Py3jbwf/TUnkd2LsWNNF2a+0/Xzch7nU2l/CuAT+ufPwOh1Z397aaz/EPZ7wh331NWBqfT5uzaS7pIm/B9aaD6CA3IJieRjsbSd+yi9xN4nby9+e9Gtk6MTiIPEmXunZcPL60m7YLW8fW8TC2LzqbDvpKc1+6vakQQgghhLjzZK+zUtlNJZbXculDgXqRld++4G15txMsL9UAd6W3ut/VZffDJJ8uxL3L5urS3GuZ5H34aXfexHVpnm2FeOVUFS+9t4hzZxewa/s4Hrl/O47uyWO6lGDI8uVjfrBt+yBGN+ymshvkrLTb+JD36nLXYbV7sx4+bokqbF9r1F2LdMRpdmleaib44ZkG3jp1BReuzOOpI9vxwv2TeOrgCMbyAYr2/Rfal1v6VWfYOVydX4vbOE1CCCHEZkRdmsXtdmkeBEvIxq1yO+8iNuz49uF0L+nW6ZzN8zqw9750dfgYx6X3t1gPNu89vL0P42DhreG77y7h5JlFDA0PYe/ucezZHmK8AJTtU5+LOSqzbe+Et2Oyy2f4RlbWLX5Is/W4m9h+uev+/VJ03TOGbd49bsmkl+eKDzSvthJ8cKWN05eXsFyp4PmjO/Dp+8fw9IGyG7RKwiuEEELcPhJecaeF95avr3q7vdXsFN4Ujn3T287vkP/cdWCKS/4Yx6X3t1gPtqTwvnyyjm++s4S3P5hDtW2CW4zsl04HhaBjspsgjHNpGUEXcdiyLfk3r8xjiW4Bn/PWt/j4uEMe9CVk32RJGNuxUH1zliWHvOu+bOelG2CpHaHRBYr5ED/6yA78yP0jeGZ/EVP5BCUJrxBCCHHbSHjFnRBekg5gmpZ1qyXyXXRVZG9Mep1rMeC9x5T0tr+rfJzj0vtbrAebd9CqAfAj5oIfNn/fgllyEHbt4Nnlt2NfDqbGFF0LTinRfCwR7+fNJSbE2Yg7iAYE030MWv9JhatTr9NyNnjfrhuMKuZ9y2zpbVu07BurbcfYsWON0bVvRT53mE8d5teY+z5iCCGEEELcw1DQbhZZBq2/1YjtWmtQepZBaWSt/JawGm4wqWzY6qvB5TTd5XdXdNcHB251++jl8dtxeTU9s96n99ctO3+rrHV+Pm4IcatsvhZem2GSb+Ft2sJcK8DLpxr45rsreOfUIsJcgunJCDuGOxiyAqKEAwNEtm364ecjidK/kGULN3qLa+GzrRuZCvhz4Do2m8my1TuyL5zYZurdEOcrEWZWWuh0OvjM0R348aNjeO5gGZN2boqWVy28QgghxO3RfxGuFt714UYylF2XPe/923DdoHKy6f1lMSh3nv7yfZ4sTPfrCKc+zdbaskvug+X0Zi2Py9pjUHauZ71W9+8y2X/u+reHK5DXe27BtfCmdUjx9bumnFvg6rGkZfjtmJYtI7uvQay1v1uth9h6XNOl+Ytf/GLi3yyb4Tm8hEl8ni6FtxWzSzPwysk6vv3eMk5erGLnjiE8emQMD++IMFkMkbeN2dLpyrPg8E5coCT2syE/V71zcC1pIr+6YqszgxLftG+2eQ5ada6Nt0/P49KVRTxzaBo/cmQczx0awbgdvIRXCCGEuH36L9olvOvDWvKUTec557JP45Rp/a9FNo9fz/Ctltl0X4ZP6982O/UMynM1jXF1n1c3zZbBvL1Zo694B9eviqpbtm3SVW6dL5tTX5cwDFfnCdeRQcLLfNllD9Oz+W+0TXZft0N/uUJ4rhNeN2Nvls0ivMQLb9M+QPNN4NVTVXz3vSWculTB/t0jeObhaTy5p4htpRAF27jTK4ADV+XMdLlISexnQNK6M+g7wtfTnSdb8H/Bq9vMTCPBK6ca+MEHV3D2whyeOjCFzx6ZNPEddaM0F3QPrxBCCHHb9F+0S3jXh7XkaVB6fxqXs6+HX59N4zzT+9f1v47Zsm8lz1rz3IbBtEHlDNqPx6/rL7s/XxauYwwq16ettZyF6waV4ckuZ/PdiP79cTpo30IMvIf3Vt9o9yLslsFuyu7+1qSNPNooooOyaSAfScQYdtMuhgILSy/30l2YPLuweaZvtFitZybSdb3js9d22F5eTsu9KPB5w717gPnc4SiJ3X3LQgghhBCbnX5x8jDdr8u24mbx6f2RJZt2IyG70f6zMI37Zdwu3NbvJ1s203x4+pcH0b9+UH1Jf1lr5RPik2bTD1pF+AFL4q59Q3XsgCl2sYken0xLAY5N/GIngAWT4HzS6klgBwXbxqVz6udtm4KVsZEiH1wfrp52bKv1tbSiSTu7K7NFm8cd2TEFHTsndn44HjVbdbfEG0IIIYQQW55BAsmuvAwvalzf7Xavycd5L2+c+mU/9fOebP5+uC67XTYf5znWSrasfom8Ffq34TzL5nGxfE657OuS3V8/vpxbrUP2eHzZ2bTbpf9YhLgVomeeeeY/9Obxi7/4i725ewf/ls++9e3rwn5saokcgbhu/11YbOHsbBNLlTYmRovYu20Ie8dyGMmFJr6W0WQwMCl0z69N7IuOP/xQ2fbXxKC0DRt2TJzjF0Ov3h07KbUOcG6hjQtzNSytNLB7ahT7poewe7yEvJlv5LIzP7dIyc4P5CarhRBCiK1GvV7H7OwsTp06hVwuh+eeew75vF118PdyBl3A3x38eW42m+51effdd/HWW2/hxIkTaDQa7jUqFovXvB7VahUXLlzA66+/jh/+8Icu3nnnndV4++23sbCw4ESO3dUpj1z+4IMPcPnyZVQqFdedPYoiV26/7HGZ0lmr1fDhhx/izTffdPtiucePH3f7Jiyb9cvKeLYsP89p/z76YV2XlpZc2dwP68gyC4WCq2d2H7dLtm6+HjwnPI88HzzPJPs58PkGHdda9Nfvo9ZXbF7+7M++2pvbpMJL+FGh7lF4azFw3gTv7FzbCe/4iAnv9iHsGc1j2ISXT+BNTHhhwstyAvBLiW2dFvwAZaOXY+NHFh6LpVn9W3aYVRPeswtdXJivY7HSxK7JEeyZGsKu8QIKOQmvEEIIcSeQ8K4/lKfs+aXsLS8vO8n95je/iW9961vuPmvmGRsbw/j4uBM+D+/Dphj/5V/+pcv74osvrkqpj8XFRbf95OSkk9crV67ge9/7Hs6fP+8Eb8eOHU6kKZP9ctdut119zpw548rm/d7f/va38f3vf98J9dmzZ50wT0xMrIoz68dysi2m/ZGF+/LpzE8BpXzyuP7+7//e1WF0dNQdP9+fvnyfP4tP9/j9k+y6bB4v19xfq9VyYj00NLRar+wxDCKbxy8Tvz2n/nwK4dlCwssW3gA1s97zix2cmW1h0WyPLbz7tg1jzxiFN6LeugGq2CJMOQwCPqKI0RPFezXch59DzlPo02glISo94T1vwruw0sROE959U2XsmSigqBZeIYQQ4o4g4V0fbnR+KVwUUgol5ZJTyh9lb/v27di1a5cTMkofJYvC6+WYwnb69Gn3ms7MzLhyGJcuXXKtusPDw267lZUVJ8IUWYru4cOHXQstZZW4aywLls/t3nvvPSfUrM8PfvADJ78XL150kkjhZT5uyzJYHutHaWVQsNlizfmsFPpj9lOuY14G87B87ve73/2uO/Z9+/Zh27Zt7n3K9ZRgBvOz7P5yic/Hc8rys3Xw+Vg3/kHhlVdewWuvvebKn56edueKeZjXb+/r6Lfn1KdxPz4P98P1PNec+hAiyxYTXpjwBia8bZyZa2G50sLkCIV3KBXeKG3hjc1tE1cI1Y5fSPf4B4cffptQcjnP1m7Oty2t2klwdrGD83M1LK7UsXtyyIS3ZNO8hFcIIYS4Q0h41xcKE+H55TyDrY0USgopp+zOy9eG0sdW1IMHD662xlKuKKTM98Ybb7jXjutfeOEFPPbYY7j//vuxe/duJ2MUO7bwshwK2fvvv++mLPPo0aNO8Lgfd31lwbK5DbsxUwS/853vuPrt37/flf3ggw86CeU2hNLH1ueRkREnvKw3W5rZKszWZHa1ZhdoijjLoRyzvtyOLdCUW8o94+TJk06kz5075+q5Z88eHDp0yAk/y+X79aWXXsKrr77q8rNsSj3ry+PguWHLNVuwKeiUZuZj93D+QYDng8fIffP4eGwMtlizfK5nazXPLevCMtgFnH9YoBzzM0MJ5rFznutYH78P33JO4eVr5cVXiCxbUHjZwtvG2dkGVpzwFrB/Wxl7R3MmvKa3tvGq8FqEQfrB8bJ4L4abuLPC4LlwCanwdhOcs/Nxcb6CpZWaiW4Z+0141cIrhBBC3DkkvOuDl1uSPbeUTLbIUqwoThQyCiQllRJHCbvvvvuc1FEqCWWRgkVhpBg+++yz+Lmf+zk3feSRR1wa81CkKbyURpZFkaOIsTWT8souvFnhpQxT/ijSFDnW6eGHH8ZP/uRP4qd+6qdg1+dOqCl0lD9K4s6dOzE1NeXKoYB+/etfx1/8xV844aQ0so58v3FfzMfj4L2zfP+xhZr5mZdSyvNA4WTrNiWerdCsK1uVKeC+XMo0/zjAcglbwLl/tl5ThP/mb/4Gf/3Xf+1acHk/MLf3rdE830yj7HI9/3DA80RxZmsy60AJ/tu//VsnupRvtqLzc8N98PWgMLMObAF/+eWXneSzdZpl8LPEc87XivsUIktWeK/epLBJSb/mEoR89A44InEHkQWXOTox1/P2XT7P9+pXYqrLfCbvvRps07Wv9l7w4NI0HyHs+Hk+TIF5PiIu9345CCGEEEJsJrwEU9TYCkrZo5w+8cQTePTRR534sisyxY7CRSimlFbKlA+KGIOSRRmlXHKeacTvJxsUP04Jy+Q8BZZ1YSvr3NwcDhw4gCeffNKJLluEH3jgAdfS+yM/8iNOgH/sx37MiTNbjCmxFHbKILflgFeUZ4qgb5HlOh4PJdO3IFMmmYcCTHGkbHN7yiPl399LzJZiijCXWTaFnkLObbit72pNAaWwUr5ZJ+Zn+cxH4WfZbIml3Hu4Hy/wPM98LSjq3IbCyzr7FlvWhfugrFPS2b2cwWP/u7/7OyfKrIt/vYRYiy3RwlvvJLi42MR518LbxNRIHvtdl+YIw7m0A3PibtdNBdg+Zhbp8tWSBsVGJFu3TB3twHhs6SjNCS4stHBhroKl5Sr2uC7NZeyeKKHQa/F2f4F0W6SohVcIIYS4PdTCu/54wfRdiClzFD+22rI1l62olEhKHeWMLaNs6WSrL7fzUko5pJxR7ihZFD1KGlswWRbl9/HHH3fdkClsFE7um+VRYCnG2VZI1oVCyHJZJluKP/WpT7n6cN8sjyLNllKWwZZVtvBSzFk+YT52qaYsc2As5qWg+mNg6yclkvugMDIvBZ/BQaooohRMyjVlmmXwfcqWYc6zezX3y2XC+vP4eCwUXLb88pxxX5RzXw5bvo8cObJaJ+6D+Vk2/7jAzwHz8xzwXLLLMvPy/H3605/GQw895PZBaeZ55D64Hf8gwHU8Lm5Lceb54vHyvAiRZUu18BKnbuZ+/HXC1s2UBG5kZi7birTls5eHSS6ubRW9F4OsHpNN+YI7t+8FSXMJIYQQQtzbUFJ9ZFtWKXeUQUorg+sofRQttvRSLtlKypZLtv5SprgN8zG4zD9c8J7Z//N//g/+9//+3/iTP/kT18rIbroUVooty+IfNXwr5SB83Vgmg/j7cym6FEtuz3nKJMWTUkuxo0BSdCl+P/ETP+Eaq/7hP/yHeP755538UU596zHrRRlnqyuP7+mnn8Y//sf/GP/8n/9z/PRP/7TrQs1zwPpSRimZ/CPAZz/7Wddtm+VyniLLfbJ1luLKKevILsc8f5RbCilFmvtgKzXTKNjcB+vKc8P7hNkV/Ed/9Efdflgmy+FxMw+7c//SL/2SK4dl8w8NlF0e/y/8wi/gV3/1V138/M//vCuL9eAxMo8Qa8FvgC0hvCle80J3r256zy6ll+t6NmhwkrZmMrwe3sPhvmzTY0nbrdPlBFEaQYTYpu4JxFwlhBBCCHGPkxVfhpdAtqqyNZcySgHmMoOSSxFm111252XrvBdWL86UTQooWzkpoLz3lWLHbsf/4B/8A9dq6Uc6HoQvz9eJUGw5z/1Rfrkvj5dttmZyPac8Duaj6LF7L+vKOrPFmS3Xvks281EEKaicpyzv3bt3dTRmCjqXKZusL/dDgaT0swzeX8vWVd/1Odt12Is4j50izVbk//W//hd+7/d+D3/8x398zSBXPD7m4TYMnkOG7+nA9RRtlsfWZIo/01kP1oFCzHTWlS3clGiKPYWZ6Tx32XMmRBbfqEcD2jJc7Zbba/t07ndVdq/FrbxJbEQG1I9fsNdVN5PP1lP82SYshBBCCHGvQlnKBoXIt+6ypZP3hbKllpLIe0O/8pWv4Ktf/aq7z5Xdftm9lnkofdyO21PKKGmULN5L+yu/8iv4tV/7NfyLf/EvXIvjz/zMz7juyJRKSh3zc9/99fFwniLHMn1XZ+6PAkvR4359ndniTOHkvbns4kspp3xyQCne38o6e/lk/djCy/K4Dy/e2eNgGsOfF04ZlGiKP7toc4Apnh+KKltm2fpK2eSxEcoqpZldkz/3uc+5bsj8AwDz8zg4ujNFmS20lF4vpNw/g/Xz54jB8tiiy/K5jvXzrc4kW3d/bAxfdyEGkX1nbCnhdXLXL3U3XPT578Ug2fm1yOS9lexCCCGEEBscL0WELZe8j5RySAljqyjFkXLnRyKmWPoRmSm8bKGkBFKoKFkUMo5k/JnPfAa//Mu/jH/2z/6Zi3/yT/6JS2O3Wy+7Hr9/T3aZ8sbWVd6PSvFlayb3y+A868c6sbWU3aj5WB7f+sxj+Pa3v+3S2QrLVlHWjcJLgfZiyPp4iWTrrG/FZvhzwFZgnh+KKffLAaF4Pij+LIdl+vt7KbSEx8H9sIWb3Y8pvOzKzDpQVNnSzFGXvfB6ged+WA9KvU/35TH8uWMZPDe8t5rnn/Vm3fx54R8uOGXrtRdnIW7EFhNeIYQQQgixlaBcsfWUEkdJYusk73n98R//cTcCMrsj875StmRSsNhKSaminFHKvFBRrih9vlsug0LpBdPLl295zAbh1Msdt+E9rBRlyiRbV9myyscBMdjqzODjeNhiytZd1otSzqCwUs7ZnZiCymCrKtPZMkxYV5bN4+Xxs5w///M/d8FHFFGmKZM8P+z27Lszs1z+cYDr2YrMRx5Rvlkuj4FT5uE6ijjllmV4SSW+67Vv3aXsst4cNIyt6WxlZxdzrmdkzxPPKSWe3a6ZRtHnqMw8L6z7X/3VX7ljZXn8Q4QXcSEGw6fTCCGEEEIIscmgLFGm/P2glDjKFEcD5sBHHMCJLbSccvAnSi8FlK2e7DbMVmGKmxcyQlml3GbDiy7D5yF+G07755mHdeG9qRzVmK2oFGxKL7tZc0AsPt+WMkmhY9ditqhSXjnQlH88EVtTKYNsraZAUjoJj4H1ojTynlcKJFuP//7v/94NtMVHATG/rxfzeoGnqLJcCi0lmVJMYWVeyi7ryW0p4czzta99zXUPZ7dr7oMSynpyAC+2BLNOLJuvA4+H21DUWa4XYg/PC4+XLd88Zp4f7pdC72WdIs58bFFmV2vuQ4jB9N7f7n8hhBBCCCE2GRQqtj5S1DjlQEccRZgtuxypmCMRc8plCi/vxaVQUhiZn7JFCWRrLNMpbpQtL7V+3i9TgClszOvzUyb7YX628rI+/nm7lFNKLGWQQspWVELxY7dpjnjMQac4cBPT/ON5KJmUVEomR1TmPb2sB7sGUxi5HfNzfxR/yjyPi0LK/VOeee8v70FmHZhOqWW3YQ6Oxf0wH8v1sP48t2wRZgssW25ZD9af+6SMcspy/YBUPB8sl93Fvez6/XIdzxvPlW/9pqj7Y2Y92CrM4LFS/tmNmueC51iI6zHZpe9aBF/84hdT9TV+67d+qze3senV3UXYq336NZOS2A//XsTgYO9zzQSvfljBS+8t4eylZRzaPYznH57Cs/uK2F6yL6YkXB21ObRtwySy8qxEFpot+J7CTox9maV/N+MgXe6IULOEK40YL56s45Xjl3HywhyePLwNL9w/hacPjWIsDxQsY8gvb3/wVs7q/Frcs+dJCCGEuDP41jIPu5GyResb3/iGa/X68pe/vCpMWfqXxceDrwNlygdfB8oYu9JSrihLbFH1A0YxP0WMMsiWTcoY11Go+NpQ6tiCym3ZAswBovh6+pbdLBRrlsNRkwlljxJKsaPI9ednyym34T65b8oj98eu1MzPllnWg92t2VLKfbLlmYLJYNdrlsE6sbWTrahc5naUd0ok81OifdkUeEosp+wW7Ae8omTyvlt2/WZ+bkuJ5jFTZCnXlGM+EohTdp/meWFLL9fx2FgGzy1llfLMMnj+fRdptgzzM0CR5blnuSyH+6eUc38Udb4mLJPSz/uUeT55HDx+5uE+WG/KOY+DZQmR5Ytf/FJvzr5jJbwSXgmvEEII8fGR8G4M+DpkpZctgpQltljy/FPKKIQUSgoU81IS2apLAaT8UqB4/ytfG6bzHlu+hr7l1str/2uXFVhCGaMcUuK4r358Pbkd9+H3zzTm5/asB2XbSx27WbPFk3kpuJRjrqdU81hZFutH2eZ+uezz+2PjeeCUx8bj4TmhnLLu/pFH3Jb5uJ77ZHgJZzqFlALNcv29ziyDdWF5/KMBj4H5/P3BrB/3S+FmfpbJOjE/zxOP158nnhuuoyT7bbkN9819sB7cH/MPOrdiayPhlfBKeIUQQog7DC/Qs0h41we+Dtng+WVQIv259q9V/zLxaX5KfDl+nnA5m4dkyyHZ7QaRLYv0588u96f7bT1cn03z2zJ47KS/LJ8/m5fzfnnQOk//er8d8euyeYhfJjdK83AdI5vuX0efTtnNliEEyQqv/hwihBBCCCE2HZSgrAxlp/3pftmn9ZNNv1m+7Pr+fNn1/eHXeyhzPpjev5zdxrdw+vVkLRH0ZXkJJv3lZbfrP1fZyMJl5s2eS1+X/rzZdD9P/HaM/v16snmy6UKshYRXCCGEEEJsKgZJUXaerLXcn36nGFRmdl/96/06RlYKSb9IZpf708ha0urJzvcLKGFaNp1k99mPL59xo3wkm56d79+fX+en/euFWAsJrxBCCCGE2JT0SxaX+9M8TM+2UN6Mm+UZtJ5p/ZElu8z5G9XFr/f4Zb+N387P+3U+LTufxefvT19LMLP5B21HuO1a+QYtr0V2Xf92QqyFhFcIIYQQQmwa+kWI034R9MvZ8PnJjfL4dX7+RtG/7SDW2mZQWjaYTrLLg/Jn0/sjm+9mwcGmBqUPKtfHWvnWSu9ffyvrhLgZEl4hhBBCCCFugc0mWbd6LB/nuDfbORP3HhJeIYQQQgghhBCbEgmvEEIIIYQQQohNiYRXCCGEEEIIIcSmRMIrhBBCCCGEEGJTIuEVQgghhBBCCLEpkfAKIYQQQgghhNiUSHiFEEIIIYQQQmxKJLxCCCGEEEIIITYlEl4hhBBCCCGEEJuOxELCK4QQQgghhBBiU0HZJRJeIYQQQgghhBCbBi+7RMIrhBBCCCGEEGJTIuEVQgghhBBCCLEpkfAKIYQQQgghhNiUSHiFEEIIIYQQQmxKgi9+8Yur9/T+1m/9Vm9uY8MK+wh7tQ/SiSOxn9imjJbFXDPBqx9W8NJ7Szh7aRmHdg/j+Yen8Oy+IraXIhSSELGpfxIkCG3bMImsPCuRhWYLvqewE5Ok54EHkaRHhJolXGnEePHDOr53/DI+PD+Dxw9M4tlD43hi/xBG8wkKQYDQHT63YDl+/gbcs+dpfQjsHOdyORdhGLplIYQQ9zaJ/d7NMj8/j2PHjuEb3/gGSqUSvvzlL6NcLl/3na/fAUIIcWf5whe/1Juz71gJ79YU3u9+WMPL717C8dMXcWA8woPTIe6fBIajDgp2UkP/y9edaL/1Gtyz5+jO0X+Rk8VfyDAP5xn5fB6Tk5PYsWMHhoaGEEWRy5O96NEFkBBC3FtIeIUQYmMg4d3qwls34T1Zw4vHLuCdD85iIqhid76CXYUahoImInTtHPRObG+7GwovuWfP053hRsKbhfkYzWYTBw4cwBNPPIH9+/djeHi4lyOFrb5CCCHuLSS8QgixMZDwbnHhvWzC+yKF950LeOv90xiNl7AtWMKOaBmlxIQ36di2cXr49kvY/6QlXUvv9N/D5+nOcCPh9ZLLc8lpq9XCqVOncOjQIfzkT/6kk96pqSm3Po7tvNtUwiuEEPceEl4hhNgYSHi3sPCa6+JyI8Z3TlTw8nuXceLsFTy0ewRP7BvCIzsLGA67yPM88PDtF3B6Cux/K27QqXCnf9AK4fAXP1nprdVq+JM/+RMntU8//TSeeeYZbNu2zS1LeIUQ4t5FwiuEEBuDq8Jr199f+MIXEv9FK+HdAsJryWzh/bYJ7yvHr+D0xXk8cWgaz983iScPjGA4it09vJG9J/i+SE9BehLs9AwkuWfP0d2BEusvgnhOq9Uqfv/3f991a37sscfw3HPPOeHNXvBIeIUQ4t5DwiuEEBuDVHjT72R3Vd3/BS02L/6VpsRyYKowDBCFkRs0KRflkO+NHNwf+VweuXzeDbaUjUFpWzUGnTeGX+fz8VwzeIGT/exlpVifSSGEEEIIIT4qV6+lV5uRdIG9Rei9zOlfkylWTGJXW7YqMtLutG595i3BPA6mZ4L53I+f38LB89Yf2XWcevpbfbMhhBBCCCGE+Pjwalv9JrcoplYmV70Fj3NYrunhZiRgnwRebLOCu9a8EEIIIYQQ4vZwTUv2n4R3q7KWTzGd0suQ7H6iDJJad94lu0IIIYQQQnxkvOwSCa8QdxlJrRBCCCGEEJ8gPdklEl4h1gHdMy+EEEIIIcQnj4RX3BC1Q358fIuuD8muEEIIIYQQdwcJr3AMUrBst1tTtd6c+ChkzyVHbF4LybAQQgghhBB3DgmvWMWrFtVsVXDZKtmbz0qb+Gj4c9h/LrPLkl4hhBBCCCHuDBJeMRjzL0qYE7HevLgz3Eh2hRBCCCGEEHcOCa8QQgghhBBCiE3JlhJedRQdhM6KEEIIIYQQYnOy5YTXB9n8qnejI+w/E+l8NtVxzcIaqEeuEEIIIYQQYgOyZYQ3MSmju8Wc7wW5FZ+7t8ke8Y2PNnE/mdw+e99m2TySXSGEEEIIIcRGZUsI76qg9eRsdZpOUmnb1OK2egZ6QVaPvkdm2c5Fdu1ap8afRyGEEEIIIYTYiGyNFl4vtBS5nqRJ1vrInJ9+Fb6OTL6b5hVCCCGEEEKIdWJL3cMrhBBCCCGEEGLrIOEVQgghhBBCCLH5SCS8fWyiDrqrI04JIYQQQgghxBajp0MS3uvgmUkjMWm8Z8PVnyM03yGsTEa2/PQ8CSGEEEIIIcQGIqMpW0Z411azIB2wKZ1L2UQu548pO109zo+DnZ9NcoqEEEIIIYQQm5Qt3sKbql/gfjYv7tiCzXyEQgghhBBCCHEtbKBTl2YhhBBCCCGEEJsSCa8QQgghhBBCiE2Fv/1yiwkvD5sDOXGaZLox3+Bu1DTr1diI9NfRB/HTDIGlubCVQRL34mr6raJO0kIIIYQQQoiNzBYS3q5F2yytZdOOiZ2ZnUU6NQmm6CV2OpLIwlSOXnxPB4+Bx2PzDEsL7D/KbWjHHCUdRHEbOYtC3LHoIh8ntu56keXm/TDP7cixEEIIIYQQQtwNspqypVp4E2d9Jr7O1EJbZjDdP2THtXlek3JdUJAHpW+4MJy52n8UeMOviXtz6dGmZ4Gi62TXh+UYOM6Vpbl1LuyHRQkhhBBCCCHEBmQLCS8VjWrnFS9K53tSR29jsHE0MYtLQtPC4B4JM9X+uGqi6TGmxxYgNovtughdxG4auak33FRme/gFrrO49qeH35UQQgghhBBCbCC2hvA648shSYq9yCNOTHhN4BhxSBGEiZ9JoYliN+xaWqcXnPcRp2GSuTHD6ujD6pv4sHVdHpcda9uOsWWveiPKoR4VUYtKFmWbz6Np58H/AUAIIYQQQggh7nU2v/D2GjvZ6JmLE0RxOs8Dd42gvXt4k14bqGmhTU0S3VKYichNex2AN1iw1ZrRl2bHliQmv+74TIhtms650+Lk1t3qayeCU/d3AQmvEEIIIYQQYpOw6YSX4upkrheEDheZ7OVM/iJ0THi7JrumfhRCk+CYYfNdCzd1aYFFLhMmvBbdZGMGW6yz0U1CiwAdOwk8Ln9sdmjO8flfYOfBclnYObFpqs39+LMohBBCCCGEEPcKTno2mfDS5Hoy17M698NpEJjQhW03ZffftqW1TGrrcYhaN7IIV+fr3XyaZutdmDiuhtvmNqKLjxaDyrpBpHVFL5hmx2KiXo3zFjl3fA07plbH9LZjZ8T2EcYxcnEH+bhl0UGOEuzPmM2nc0IIIYQQQghxL3HVY4IvfOELq0u//du/3Zvb2KQKmwa7JxPXMtmTNN9tl9GyNXNN4JXTK/jO8XmcuDCPbRNjeOTANjy0PY+JApCzfJ0wZ/lD1805l5gRum6+vcI/Bh+lh/Dt7vXafdjWvcGlkKTdsVkeg48jascJFlsJ3r7YwHtnZzE7v4AXjkzjs0en8MzBMQzlA+Rse9fl25XDU3ELR/FRDnQLwD8ceDjPc1qpVPC7v/u7qNfrePTRR/HCCy9g27ZtvVwpzCeEEOLeIvudT+bn53Hs2DF84xvfQKlUwpe//GWUy+XrvuP1nS+EEHeWf/35L/Tm7Dt2UwqvTWNLoPCa6+JKK8CLZ+r45vtLOHZ6FuViEQemR3BwBBjNcbxmDuZUtC1zPeHl83rTAavSvXx0MmMZ3zK33bKayc5tQ464TNFl92an8ybylh7FHXQtb9V8/tRiBxfmK6g3aviRB6bxo/eP49mDwxg24bV/1wov/79ZlW7/MLcEEl4hhNg6SHiFEGJjsKWEt2FxyYT322fa+Nv3q3jjxGV0O11MFkPsyDdRdvf0woS3nMphYsKXtGwrbt0r/Ibcwi+p2/k9diu7zHCNHPMXre0r1dR04CreoWu/SZ3AUuSZuxmHmGnlsdzuIoqAH3toGz53dBTPHyhhIg8UbHMJ751BwiuEEFsHCa8QQmwMssJLr9nU8FcIu+RSaiOLnB1yMcq5Vt5h+6UzMjyEkRGGzY+UMDpaxKhNxyxtdGT0JjE2IG1ADI3cegxbDCpjjRizOoxxOtybH+YyY9iijPGRYi9KLsaGS3bMJRSLOeRyIQKelN6jlm67ZVkIIYQQQgghNii0m83fpdnWX2kGePl0E988voJjZ+dRKhawb/sIDowDo/kEOcvbDgq2jfm/bZt3oxdbYhL5kj8evTqmZBduUPbt7jZTbPqHYiaYxJrIsjD+hEnHjdq80g5wYqGD8/MrqDWr+MzRSfzokXE8t38EE/kABStALbx3BrXwCiHE1kEtvEIIsTHwLbz8Vt70wtuy9bONAN8/WcGLxxfx4cUF7JgewyNHduDB3TlMFHnPaoJOwPtdWQrv6U2Hr06bv1PpW4ve7lenDlvw26Qlpmv5P8d/4jS7vj//1aWruBKuT17l6u/YVKqCXgL/T7e1tDhG0yqwYCfljXN1vHPmCi7PzuC5+ybx2SNTePbgBEZyOTsfPdH1097Ob7D7G9ZtKyPhFUKIrYOEVwghNgYUXv+NvLm6NLtfGBb+90Z2GnC84g7KaGMi18XOcoK9oyH2jwU4aHHY5hmHRiNLi3CAYcsHRwObZsLyZuPgmOWxOGCxvxcHxtO01XQrk/vaY/OM3bbdLovdlr5nNIe9YxY23d+LA5aeBrfnfmBlcZqWNygO2j7dfsdZd9unn/bm99nx7BnPYbfN77T5yaEQw/kEBdP8XBKb5PM0ZaTWziXfJD7Itb/GM6xuJIQQQgghhBAbh80lvMTky4lbRn4TO8rYBVtvYxTDGMNRjJFcjLF87AR42tZNW57JKMB4LsBYLrHpgIgSy+8Dbmoe6daNmUBymqal681lYQ6LIduuaNKdQxe5wIKiafMFi1KQYNj2PWr7HuP+zT4n/H5sOm71TMPm87Z+jWB35KvLtm/Wx4J1GLPlUUsftWMbseWy7YODU1F0QztBAcO9HXjOeO5SUuG1/5m0VgghhBBCCCHEBoSGs/noya5zMbZUWsRhiG5oisnn7YaRSbBF4HTP8oUILTOXzAVTCVy1uWzwdGUjTU//Zwty23bXSiNsW5a27aeLrgltoxNjsdbG5aWmRReXllq4vFDD5cWKpTfQiGO0LV/XxDsxIed2fDQSgy3TaflX9+h/fEp/8H8eQ5QEdkwWnFrwEUxMo+SGcWTh1lpQem0jIYQQQgghhLiHWdUam6FDbS5ck6T95++j4axNYpPebi84OBWjlyPFJJDCx3tf0/tfr1lrUCHXximwbcJw21twElu57TjB/EobJ88v44fHLuO1d67g9Xcu44fvXcQb753D6YvzWG600bJ8fPIv7z1e3b9tz8GzVltfHVyXxrUdjzNh/3g8rl5WrgurUFq/Xj1deRRdy8Vwyzc+TiGEEEIIIYS4V6DlbB56opr+z0XOpz+USA5ktbrOxI6DVHHqJK+3gimmw05aU5n0+K0G4x59FLPVlAJpguoEMn0WbrsbYLHSwZkLK3j7+AzefHcWb703Y/OXceyDyzh7aQmVescJ72o9TczTlyeyhZwlckop71U0E+lRXB9U5yDpHUs2bI0LV57bmS37VCGEEEIIIYS4x6EOGZtKeJ3+2X9JHNs0Nt1LR2xmmiUiiDs27bp1jHRFT/56ksig8EboIrQ8IR9R5KZpBEy39dcE081Sw27OouAiiPMmkyapJsC2Gt0u0GoHaDRDiwj1RoRaLbQp0G6l65mPB5GKqImz63LMKYNCTWG1/dnxXRdMz4bVi0pvJVt07FAzO7DwfwZwjy1afQavTxdCCCGEEEKIe5SM0GyuFl5Pr6HSt1mynTUdJCqNyMTPtXy69TwbV0UwlV4vi2laut6HLVMcV6OXxyXb1pkktqaGHKjKzvLoSAF7d0/ggaO7cfToThy9f7fN78XRIwewa+c0yqU8cpHtm/ftom2R3r+LwES1J6Xcf1rvAcH0TLiKWHoSmMDagaa9ljnvH9lkP1Y2O1HHq9GruIsUd45ca7MQQgghhBBC3FtsPuE1N3MddE3S/JQHGZl85k3k+Age1yLba93lhGroWjYphm6eYfLKZdveBZctiJ9Pw5Yto5u6/FxP0aSocrCpLnK5GBNjORw6MI4nHtttsRNPPL7LpvvxqUcP4OC+aYwM51w+Ci8HvUIvkoADX3XcIFZpa6yrwjVcrXM20h/euxxHaXRD3sOctvlSbym4sZXZm0Ns54Xbenj+Bu5QCCGEEEIIIe4BNmcLbwavbG5AqdiELjYNNG/kYFIdS2vb2g47MAeM0EUnyKHDEZ2DvAWn6ejODLfO8l4ToW0T2bY5E8ucqaOJa2ySGpusxkHTdtxAudTG5FiM3dsC7NsRYu+OCLt35rBrRx4T4wEKBQqyya0LjuzcsXI7ts+2RcvCFJXCGkY25UjTabBusdWBkR5DGmk982jZtGXH17KXum3HxmAbsjtWO/aunYNVoc/arhBCCCGEEELc42x64b0KtTd98FBsIkghbJr01pMQVYuKzVdN+FZsuuKWmc60a6O2VljJ1SCx4HyIhu2nkZhwWnSTnAllDqHJas7EOJ8DCnkgbxGZJNsK8K5b5mvHBTTiokXJ6la0shh5i8j2E6IWWz0ywX3Xe9G4Zj5EPY5Q73JqaRYNi6Z5dcumlHmeBxdWN965HJgECyGEEEIIIcRmYfMbDlstTQB5qO5OXsquiWW9E2KxEWO21sHlSheXq21csvlLdQtOq5ZucaU/bN1MXzDtMsO25fRKLba8AWarEeYtFis5LFdDLFdg0cVKpYMVK4uxZPOL1a5NYfksfyWPuUrBti1ixqZXqjmrR2QRWLDcrkV7NWY47dXjmrCyZy3mOLV9cjpXaWPBpsu1LpptCnYeSVKwMAMPGL49/CppZ20hhBBCCCGEuPcIvvCFL6wazW//9m/35jY2zmHTWfCZsm5qsfoYIpvGlsB7c1u2frYZ4PunanjpvUWcPbeIyYkRHNg7hamxFspRG7mYIzHnzItNAkMrJ+xauQEijo7cJ4COviRfH+6bdwyHblubo2i7G4Qt3bXiujtlrW6W28L5peVxjwaK+axdi550uvIsD+/b5X22QcAOyH705atwn4NwnZRdH2UT/V6XZcQxOrZc6UY4sxLi5KUlzC0s4tnD2/CZB8bxzKERjOYS5C0r/xLi7oF2pbGu6d9GsvsWN4fvRQ/n+fpWKhX87u/+Lur1Oh599FG88MIL2LZtWy9XSvo+EEIIcS+R/c4n8/PzOHbsGL7xjW+gVCrhy1/+Msrl8nXf8frOF0KIO8u/+tdf6M3Zd+y9KLwk+yvFS6+XXSe8veW2zcy1Q7x6qooX313AyTMzCKMcRseGUCxSIDsITATZ1ZliSBmlZPKe34jJt6h4dFZWw0mizVBinfD26sZfZq5+vR8Wu1qyy8elq92KuZkLN1AV5zhlff2aq/T9fnVwb5Rj4o6Le+O5sfIpvStNoFqtI+m08NSR3Xju6BSePDSKMRPegmVNhbeHzbBeq8vilpHwCiHE1kHCK4QQG4NNIbyD8LJLYiexcMI7b8L7+tkqXn5/HqfOXUGt1TWxjczqIqeEsW1CPbzqp7bkRnO+9hfXjX4dOV919GZ6m/o20pRryxtM2rp7FV/QDbbNrPKzV1uDe63dJqxcx1+qoS2HcQeFpIOxfIBHDu3Bp+7bhocPjGM8F6NgtstaZ2sehqmIi9tDwiuEEFsHCa8QQmwMNr3w+iAds9mldoAPZhp4/3INCys1NDp8+ixHKY5MVCm+mfZMiqX9ox5SDK+F5brVjuxqpvn0j0f/Tm9cqst99b9V3LN4bdve4Tjh5SOKXJpFIelatDEUdrFrbBgHd47h4I5hjOQT5HvCm0XC+9HIXvxwXsIrhBCbl+x3PpHwCiHE+rCphbd/ysfuNLrAbL2L2Wob9XbXPY6IbZ+u/ZNdiBlG+uuGQpjOD/r9wzJXT1gfa6V/org6Xl9RSi3v4U2Fl12102fwso5M59jMeZPiosVIPofJoQImhvMoRAkiCe8dI3vxw3kJrxBCbF6y3/lEwiuEEOvDphdej5dT8103eFUrTufZxZf3tV5Dr8swJ26N/Xdtd2SWZ+FKvJ6rXZrvLqmeXw9TKbbUVOZZPW6utP/cA5psmrNzwmneDpxPSHL+zzx9xUp4PxoSXiGE2DpIeIUQYmOQFd5NaTFOdHu/dPgrJDLDKwUxRsIuRsMOxsLYIrFALxKM2/qJoIsJyzNuecZtfszSrgnbbnyt6K2/2+H3P9EfVh9fr/TYeIxIIwzsPAQYtmMfsmMvWT62+LIbd8/7hRBCCCGEEOKeZ0s02znpZSumTfO2lE8CFGz5uohtfWzyFydpmDRno+BiwHbrHMVrlnv1NHktJKnIMgoWRTe1dLPavE1zPC82z9ZevhEku0IIIYQQGxvfsNMfQojBbA3h9Y/8SSIXYZI+K5ePHlqNOH2cEKcu+tcPjDSffwRRtC6R1oXTbHCEaaa7bs0ccbrXgsvWbjcglzsj2Q7RNscFH0IIIYQQYkNxI7GV9ApxPfxUbErh5b0w2fAWl9W81UGrfLiBqyLL1ovVds97I7zG9oc/9utwyfZfb9CuJLSwqZ2x9Oe6cyiEEEIIITYy2RbfbAixdTEj2hIfAu9rbMJ1wfk0EhcU3gFhGW4c6V8NHCzHJusfV+vHSjnx7R2Lxwmtm6aR/meTaxKFEEIIIcS9Qr/k+hBi65K+/9kEuAU+DHZ8q7Jr4fr6Wmo2mKs3n0pfJv+tRFrC4HXrEpljSQ/IhW+t7S1dnfO2y4kQQgghhLhnuNG1vKRXbE0SZ2fECS/Z1B8GJ4BdBGHHwqacD2KXnqxGfE0w/z0dfBARj9tLLYXWySzbejOduX0ycfmFEEIIIcQnwk0utbj6miw+IRNJnCD2kcQueGnPH9g1XhrZjfh/Os2SzeHW9ie46E8Q4t4j+PznP7/67v2d3/md3ty9ydrSnn7wg57QparHe1w5vQoHeErXUgLT+dvBtahuGAI7nvRIiDuSTP3SWfvfNWu7BVtc+3h1H+9HI/ue5DzPo57Du/W40R8U/bpsnji2C5i+8Oi9sbW50XuJZN8ffH56FEVuyvRs9OPTfPmD8oib0//66Dm8W5O1Pqf26bOVbmaVbM50Pv0/+45wl2e9i0yW7eXVzTHZrbJrDBPf1Stbl+aaNtIFe48FfmwXZnHr02LdrKVxP2lyrww39YncG2fSHLdGmlfvb7Ee/L//+vO9OXsPbg3hpWj0ZnukH+FBH8DBqfck7nRkjua6Wfs/c8r8F+gg9GX10ci+JznP8yjh3Vqs9b3kLlr6gmLbbrfRaDTc+4PTVquFTqezKr397w29V7YOfI9kp/3wveCDFItFJ1kULE4LhQLy+fw1eTyU4my5/evFrdH/2kh4tx5rfT79JVbaGMGZ1aTMfPZKjNejtmT5uY2T3thSfOONTV27Lrfl+KNJ1yJ9Iodbz//sfZWWws88n1bCfVtm/jrhrK2P3ba9RUt3U7e1jzQx3W9v+9si/YObEHebTSu8N8cf6q1+8FZPzT2Ivlw2AtlffJznl76Ed2ux1sUP07PRMaml4F65cgUXL17EuXPncOnSJSwtLaFWq6Hb7aqlVwx8P/k0vicYbNWl3E5MTGD79u3YvXs39u7dix07dmB8fBy5XM4JblZys+8nX464ffpfHwnv1mPQZ9TBZAv7dKXLhpdX4lTXrUrTerrLTKmQukjXOeittuzKsHm3yv6j1DoJ5mLvx2W39xifxUFdpdj6AVq7IcvvpVvWq1W6WgLrxf34mmeP4eZIeMX6sCq8fAtvLeEV4u6S/cXHeX7pS3i3Fmtd/DCdAkuR9aJ7+vRpnD17FsvLyy4PxcV3SSX9ZWXfJ3rPbH7867/We4r49wHz8I8oDL7HRkdHnfg+8MADmJ6exsjIiJNi5vPlcdtsiNun/7WR8G491vx8Mtmt6r3Wq2Z5dZrKabrMR0Wm0mv5rcxUduOrm9l7hn8CTfMA7W4anQ5bftkqmzjJzeUsIgsrJmf5QlsXWllXhTeyrKnC9sZ09VVwEy/P6Y6vPvDy1pHwivVBwivEXSL7i4/z/NKX8G4t1rr4YTq7L/N9cPnyZZw4cQJvvfWWu0DmhfGBAwewf/9+996gnLBVrv994Zc51Xtm83Oj91IW/0cUvq/YU+DUqVOul8DY2BgeeughHDlyxMkvW4D9+4Zl+FZfovfTR6P/tZDwbj3W+px6ibRX2yJdSFU1nb8qu+lybMJ7bQflrpXd6+VDC7X13ZhhktsNUG0kWKl3sVRr23LL3lMxivkII8MFjJYLKOcDFM1oC5YeUYjto74qvPbjZJfh6peKNvfqwr09OQe37e29WyW8Yn2Q8Apxl8j+4uM8v/QlvFuLtS5+2LrL7soXLlzAa6+95rovM40ysm/fPtf9dHh42N2HSdllSy/fF9nyuKz3yifLRjq/a15IG1zH949/j3CeklutVl2PgTNnzqwGW3kffvhhF0NDQ+79xfyUXf+e0vvqo9H/Gkl4tx5rfk5Xk/la+wUvj1z2QeKrwmsZ2GLr7tjlZ9vS4oTrIjTaAWr1GCuVLi7Pt3FupoHTFxdRqa6YvLYxMVbE/t2T2LdrHDsni5gYzmG0SPHldwXD9sfPve2RouuE19mtr5WXXk75v2Xndm7trSLhFeuDhFeIu0T2Fx/n+aUv4d1a+PdAdsrg60/5ePvtt53ssnspW3UPHTrk7ruk7PoWNy8ipH8qPlk22nn276N+/PsqW1+29LIXAQc+m52ddV3m33nnHZfGbs1PPPGE++MKW365HSMrveL26X99JLxbj/73wLXL/a9ztlMysamb9V2O08X0YZOJRYBGN0S9DVQaCWYX25iZb2JmtoaL8x1csri82ESz1TDNbGG4HGLHZAm7psrYPZ3GTlueHMljuBSiXAhQiFxjL9Xa1Y5dpym/rq6sjquSzfeSKMmczZI9xuvfyxJesT444e29NdO+S0IIIT5xeFHAljQKx9zcnLtf94MPPnAtbBTdp556CgcPHsTk5KS7OOaIutl7eAkvHLJSovhkY6OxVh0HpfP9Q7lil3gOWsUW3eeee871GmB35/fee8+JMIVYCHFn4GfP0y+/vSZUCz+fXo/HZrap9rLllvfm9vTTGW+AjhkvW3MrzQBzlQRnTGzfOV/DD04s46VjC/j22/N4+b1FvHGmitOLIS7WirhYL+PUQog3z9Tx8rtz+M5bV/DisRl8/4NFHLtQx5mFDuaqQNXKbHZsHzFbjq0OLlgrC5u6Rx25KSOtepb+Y7x2uT+3EOuDhFcIIe4iFN5ms+nu2WULLy+O7r//fjz44INOdNnS6y+YOB00L0QW/97o/0OIh+n8owrv2eX7jOLLVl3eM8734OLiontfCiHuDNnPX4oXyF7XZBds32WX5TQ436XwBpGLbhKhnYRoWayYlF5e6uLExTre+HAR33t7Bt/8wQV8943LeO3EEk7NB7hSL2K5O4RaMIR6MIIaRlFNRrHYGcalagHHL7Xx6vEF/P3r5/GN1y/i5Xfm8OapFZyaaWKmGmPFpLdu0tu0/XUQWf16imAV5dFQdjnY1e3A03DdqRBiHZDwCiHEJ4i/8OFfvRlsTeO9u3z0EO+x3LlzJ/bs2eO6mPrW3OsvllLWShfiZvC9wxZftvayNwEHrfIDW83MzLjRnPtbaoQQdxLeBRun0rsqvvw/cF2VO5lpKwlQMQGdrQGnZjt450wVP3hvES+/PW+yO2/zS3j/bAvn54H5ah4rrQKacR4dirLtKS0nhxaKll5GzUR4uV3GTCWP03Ow8momv4t48e1ZvHjMyjuxjGPnajgz18FcPbH8aR06TsBXOzvb1B3GLaHfV2LdybxXJbxCCHGXoFBQMtideWFhwV0Q+JGY2fU0C9f1hxAfBb7vsu8jDojGLs6UX7buUnr5hxi18grxyeFk10luGnyGLlO6dlGeFd2GJaw0u7i80saHM0388HQNr5jsvvTOPF45togfvl/B+2dauLyYQ6VZRjspWxl5K5N/LKWWdtx+uMcEFOCCpQyZDI+izhZf24ai/O7ZOl5936TXymW8cnwJb7FL9GzTxLiD5ab9vjLx7SShlc9u1qn03irc+1Vu0ZKF+ISQ8AohxF3ASweFl4NUcUAhdivdtWuXu1+X6/rv1V0rhLgd/HuG02z3Zo7WzJZdtvCymz3fk0KITwIKHyOV3VQHe8JrQUVt2ULV/ptbbuHUhSW88cEsvvvWFXzjh5fw3WPzePNUDecWC1hsjJqIjqPVHkLcLSIw2eUjhcJuG2GngXzSRCFpIZd0EdnvnTCw3ytB3vZVsH2VLEx+MeJafWfY1flyGz84sYTvvn0F33njAl588zJeOz6HDy/XnPhWrYLNuKfR9lVi7uuOJA3+T2zqZ42rqemPEOuNhFcIIe4CXlYpFmzdpQDzkTBTU1Ouq6kQnyReevm+Y9d5tu5yhGYKL7vYc8oWXq4XQtw+/ORkg/+7TsB8di7/4LmaaoJr1sh7c+u2aqWdmFh2cepKA2+dXMb33p030Z3By8fm8LqJ6AcXW7i0FGKpWUatVULLJDdOClZKzg0yFXdjC37Gw/TxdW4PV/eVDoLFaWjViCzRft9YxHERHSur1ipisRrh0lwXJy7U8cMPl/HSu0v49rElvHyigh+ea+DkQgcztRjmv67Vt237painMsvS0/35Qba4xFGl007bq2uFWDckvEIIcRfhCM0rKytOLNiyOzo66oSXQuJlw8uJEHcS/75iKy/fe+xKT8nls3o7uodXiI/M9Z8cr3mp6DrltM8XU7omuhwYivfoztcTXFhs48SlGt74cAnfOzaP77w5h+8eW8ZrH1bx/qUWrqyEqHbSVtlOUjLJZfdl+yxzFCnTypj3A8eWQuF1Y0BYshtO2VTXgu3HfKAR7xvmKsthq0OEJr8BipanjG63hHojh5lF4MTFDl47Wce3363im8cq+O7xFTf684krdatrCwtW56qJb8u29tLrjtEdLud6I03bMoVXiI2AhFcIIT5B+iWW3Ub9/ZL8azzFw/1V3tb7EOJOkX1fMXy3eXZr5rOe+f7M3r/r8wkhPgZO/nrhJuk9sJTdTpBDpRviciXGsXN1N3DU1189h2+9dg6vvjeHY+ebOLtUxFxjGNXuiImlCWlgohsUbfuo14jKe4Bb9nmOwQ5CUc520rXPcauKXLeGAhoohQ0UwhpyqCKMa4jQRBTwbmHb1j7vFFI48WWX6ILNl9CNy6h3hjFXH8LJudBEt4GXTMK/+fp5fPO18/je21dw/FwNV5a6qLbtu8PKSO8Y7h0o6R13b5JdI8S6IeEVQoi7DKXXy4dkV9wNsu8vP0/ppfD6rsz+jzN+KoS4Na755u59lnrtnqtBWa11Ivd4oXdPr+CVYzN4yQTyB8cX8PbpGk7NdHF5OcBiPW/SWUIbQ+iGJRPkAtomye0gtDDBpPCGVj7lNWghFzRQjGoYK9axe7SNh3cX8OTBYTxhcXR7hN0jbYznKihhBVFStco2zZBNeO07wOmvSW/M7tGmyTHS7tKd2JS5ncdSLcDlRXZ1ruLtk4v4/rszePnNi3jtvSt4/9wy5qpdqyu7aHM0595ZCOxo7SvEtSS7/4VYfyS8Qghxl6BkZMWCwjtIRIT4pMm+1yS4Qnx8+Gnq//bmJyu9f5b3vUZYaQBnZpp444N5vPzWZbz63qxr5T27CMzVi6h0yia6Zdeam4SFXuTQtc9qO4htaqIadk12O/b7o4182MBQro7JoSYOTMV4dF8enz46ih97eBI/+tAEnrtvGI/sinBwooPpUgPlqIooqCPMWRkmvV0z07TNN33+b2JizeD9wUli+43zqLVymFkBTs+0cexsFa+aqL/6zhW8acdwfq6JZTsmPi/Y3clL2bWpU11Liyw4zx8h1hMJrxBC3CW8WPQLRlaChbibZMVXf2wR4vbgt/bV4P/pvbqcZZfhtHWXMhii3japXeni5PkKPjhXwclLLVyuFLDUGUENE2gEYya1wyagRcQxB5jiJbp9JtlcaoKLoGVX7XX7nNaQs2k5qmOi1MKeiQSPHxzGj35qB376uX343JM78OmHxvDpB0fxE09O46ef3W1pu/D4oRHsnUwwmq+iGFZNluuIQnaLNuV1wzyz6uzxYRLctalFJ45MwItoRSOoWv0WrK6XKkW8f6GJt08s4v0zS7iy1ELd6tu1qrK7NY/aFefCvl/SRCHWFQmvEEJ8wtyK0Eo2BuPPXX/cjEHbDAqRonMhxO3BT4wP9//qgn23pDP2f+/eXYtqI8bMfANnzi/i8nwLy40Ije4QWgklt2z5ipafI/bz0ty2jDsI4zZycdNS6yapFZPcFYwX6tg52sH9u8t4+v4p/MjjO/HZx7bjqaOTeHD/KPZMl7BzIm+Rw8HtRTy0f8St+8xjJsKP7sDTR6dwdFceu8baVpbJb1Qx8a3a76CG7bpj8mt6Hpm00lgNyno7LKIZllE3Ia/GI5ivF3BhoYtTFyuYXW6h2WFLcXrk6UlIuzW7WSE2ABJeIYRYR7ItbOLWuZGg3UzevOz62Grc6D2n96MQN+c6l3MLaWoqfSSV3XTEYhPeehdzCw1cuLyMpUoH7S6fjVuyfCa6ScEiShtz7TspTEwzKbtdPle3jqGw5kR321AD+6diPLSniGfunzDR3YkffXw3njs6gaN7hrDDJHe4FKGUD1A2dx4rhU5+j+wx6X1oGp+xvJ99fJdtO4ZH9uRxYDrG1LCVX2Crcc0kt2my2zUBji1MWoPYtdp2w8ikt4BmUDbx5WBaJSzUIpyfbWBhpY2Gu483PXqZrtiISHiFEOITxkuEF4ns8lohxJ0i+37Se0yIO8f1WpdJ4UfMwj0YyJJrzS6Wqm0s19poty0xySGIQ+eHoUluRMlNTDbRcZGzyCcco7mOqWIT+ydjPHagiB9/fDt+9vl9+KmnduCpw8M4NB1geqiD4bwJctB1A1rxGbgdK5PBGuVzwORQiEM7C3j6yAh+6smd+NnnrIwnd+NxK2PPVIDhYst1cYbtM0nMYC16w1pZCbH7P72XOIdWkkejnTNxB1ZqCRot7styuu8V7tGHEBsDCa8QQtxFtrpo9Leu3ixuxKD8DPHRkAQL8fFxn6LeR4nfRuzq24oTrDS6WKx1UTOnbHVD1+oLPhs37iJk92UTzNDltghiRBaFKMZIIcaRvcN4/pHtrvvy00cn8NCeIRycLGCbSeyIyWwxNFFma6x9/7XaMWYXlnH2wgwuzCziis3Pm5kuL68g6LYwUQ6xb6qAh/cO4Zn7x/Ejj23DE0cmsX/HMEoFEwMTZv7wECjibG2OelMeUWLqmwRW0yRCowFUTXhrdd73y5Zsy8HDMovnVIiNgoRXCCGEEEKI2+DaP61xaUCKSV9sstgwCV2qd7BY76LeTdtw2dXZDDUV3qTthDeVXZNFXp2beOZyCUbKEe7bN4ZnHt6JZx/cjgd2D2P3aIjxPFC2IiLbE4fGItxXs9XGxSvzeP/0eZy6MIuzl+Zx7vI8zl6cM+mtunuDR23bXWMRHthVxLP3T+JT903h8O4xDBVzJrzOWF1w0KmclZnnc+MtQqure/Iu62iVtF2hWo1RrXRNeHk4aXswN3dN1wwhNgASXiGEEHeV/hbZm8UgBuXrDyGE+KSh212dpt87Po1LnZgtoB0sVFpYqHXQdM/VzaPLxwBRVgNT315wCyplOwjQso2TMMTwcBFTE2VMT+Rda+9w2EHJcrlWV8vLZ90mVh4fJ9S1bZrNFmZmTXDPXcb5mSWcurhg8nsZb79/BudNfqvVJpJujJwJbMn0dCofY/d4AbsmhlDKmfBy4Kwkb2KcN8GNTHQjyxuY9MLk1+Qcbafr3Le5M2rspr3cQocjO7sjsLBjid3RpctCrDcSXiGEEHeFfhFdazkb2fS16M+fJbvuRiGEELeDl9qUtI017QhM7VtVP5hbot6K3b27S7Uu2ny+LSXVfe9YcBMT3MQiNsGN2V3Y1oc2LUYhRksRRssmvsUAxTBxXZd5b60VAHNWFxTdTtxFs9XCygpHXA4xPjmOXXu2YceuaYxPjSOXj0xKmaftuh6zhryLwZIxZuVPjZlQF3MoWB1CU1reY0zxhRtMi1pNyWbX65Zt2bWfBC2rxmK1hbmVOhocqdnypRpuwWOyOSE2AhJeIYQQnzj9Upld9tLZbDaxtLSEK1euYH5+HpVKBZ1OZzVvbFd2jHa7jWq1irm5OVy6dAmXL19enTJmZ2exvLyMll38de0Cj2VwfmVlxaXX6/XVclme378QQtwqqdrZ98bqV4czV1vkdwq7/aZtnF2zy3ozMeHtuvt4OyaQVFauc626rgszZTcy6U2DHZVzNh3KRZgom/AWTHbNPyNn2WwFplymMt0x6YyT2KZtNBp1zC8s2dV9hOnt0zhwcCcOHNiFXTunMDxcsk1TKW5zW6fNVqD9K5VCjA1bDEUo553uWrVythfbqQtmY+62hX132hFw/03b/2Kt6YS33rE6xKxg6IQ7cD9CbAwkvEIIIe4KXjAZHp9GiT137hxeeeUV/Mmf/An+5m/+Bm+88YaTVK7z+SiuFNq3334bf/Znf4Y//MM/xB/8wR/gj/7oj1bjT//0T/HSSy/h4sWLqNVqTnAp0T/4wQ/wve99DydOnHDiy/I0UJMQ4nahrvKbg48QStsx3ZL945TL7JjcdffUshW0YsJbqZv4Nvj9l4ogb5UNKbsWTmBdSWzZNdm1adkyjBci7JooYbSUMwnloFCRE+ZWHKJmgtnscjvDyorjLmomvBftu25mYdH2V7fqWPn83my0UFlcxNLign2nLqPd6aTSa9t1TU4jM9yhIjA1Eppcd1EIvLCb5tp6emwc2J74nN7e8bJLdsPqudyKsVBro9oE2k54mZmjT6fKyxQh1hsJrxBCiLvGoEfiUGgptsePH8d3vvMdJ7Jf+9rX8Prrr2NmZsa1/PoWWLbYLiws4N1338XXv/51fPWrX70muO1XvvIV/OVf/iVefPFFnDlzxuWnJL/55puuTKaxhZhlDqqPEELclN530lXS7xH3nWI/SWxCGQPNdoKVasdktIOWzTPNLNflS0vg/2lQfjnl0E+FXILRoRDbJkvIRya41bZ7ju+MxcXZZbx/+hxOX5rDzHID9U6ITpBHUCxhZGIc5eFRE+08TpxawulzNcwtUljHEOVHLMxs2eM4NMU2iWUt8hEfSxRh23gRwyV2mzaVDVqWKW3NTT2WypAGxZzdrvkQpYYdU6XetWPsuuPrHYn7Yeu1EBsBCa8QQoh1g9LJVlt2Yf7ggw/wwx/+EK+99pqLY8eO4cKFC66V1sspp5TVs2fPuvVs6T116pRrHT5//ryLd955B6+++qqT55MnT7quz+wqzXxcpvxyn0IIceehQrI1lt2N0xGaFystE95uOrCTya4fbsrr4NU/uTGFEtpBPt/B8FCCKRNettQuLjZw7kIV5y6u4PSFBRw34T1x/grOzVUxXw9QTwqIysOY3rkDQ2MTaLRyePcDE+OTK7g8Z8Xmt6E0sg3lkVFEucCklo8yorImKIQ94Z004S3HiMK6CW/DKta2tWx/Zs0sp7unN2fHwHuQOVhWhHYXTuaXVtq2z7RVO1l9hJGEV2wMJLxCCCHuOhRXBqHQsvsxg629+/fvt4u9vJPU06dPu+7HbNkNw/RXlt9udHQUjzzyCP7pP/2n+PznP4/f+I3fwJe//GX89E//NHbu3OkkmPf2shy/Demfzy4LIcRHhl8lFhReBmWwajK4sFRHvcmRi9P7cymPThp7XYD51RaGlESTy4Stqh1bbqJQbGF8zPJ1upi9UsWHJxbw4akFnLu8jKVGG5eWqzg1s4yTM03M1YEWCkBuCNVajNn5OhaXO7g028Cl+QbaQRnF0XEMj48iCFk7DkLVBe/UzVs1yoUAk2M5jJS7yEcmvGHN8jTTOrnjYb297PI+ZDuWoIBuHLljm1+solZv2XrYOp6D9GRIesVGQMIrhBAfAS9K2cgyKG0Q2e1vdZt7jf5jyi5TZCm0FFt2PR4aGsJTTz2FXbt2uXXsfry4uLjaIuvPEVt7KcXbt2/H448/jmeffRaf/vSn8cILL+DBBx/E1NSUk2du5weo8qzVhdmXLYTYGvjP/O2Hbcvte5HOpIlpmgliEKLVTVCtdzC3VEOtydbPVHbTNl12a04Hd3LbJTEChuliGMQoFBKUS0CpGNh3WIxKJUajkbcr92EMj01h54G9yI+MYK7axrun5nDyQg1X5hMsLSeYm69hdm7R9YZZXlky8V1CpdlAsxujY8JqX4mIO7Zf3k9s++ZgWMVcgNHhACNDts8CW39bVpd0ROa0VqnwIqAip/N8HFLbjqlmwruwzGPsWG5/DtL/hdgISHiFEOIOwQuh7NTTv3wzbjf/vcCgY6J4UkgpuhReXpxRVJ955hkcOnTICS27KHM9B54aNNhVfxqD5eZyObtgLLgyfMsw4Tofa7EZz78Q4lo+3uec2/bimmK4kMosn1TrBqxqdDC/1HBdmrtsHbX0tEtzOpox87rvLjaNUi1NdjmgVbEQoVTOue7HjWYblWrHhLmIoeFxbNu1E/sP78fI5ATqto+TFxZw8lwF5y42MTPbMultotVsIp/r2ndh28TU9t+qYKFSxfxiDcvLHNGZ0svBpVIZcPfxlkIT3gjD5RCRG6AqvYfX1ZGSyxGkWeeQ08jkNocOW3jbiQlv3YS37R6RROEn15waIdaRq1cBQgghPjb+IopTL2QSqKtkhZPnhY8e4j21FFumsSsyW2gfeOABTE9PO9nl/b0c1Iotvtnzy67KHMmZIzX/l//yX/Af/+N/dMFRmj/88EOMj49jYmICIyMjiKLIlU8owL4Ofp6wTB/+dWMIITYvd/5znrbuUvpaHXZpjrFUM8FspyM0c70Lfu+4rx7bP9WQ5mn1YFIUhSa7JRQtmrwHeKlq34VLJr4NRAUT05ECyqUCCqWSG4Sqm0QmunWcOr2ECxeqKOaGcOTAHjz5yH4888RBPPjADhPnNs6cO4/X3zqBDz6cxdwspZjdk+270PYZmmUXCnmMDA/Zd+aQCS+/I3vVdMfT66psy5x3g1bFIdoWHLhqYaVux9p2IzVT9v19yukxCrG+SHiFEOIj4i+U/MUSp5LcG5M9V+xqTGnlSMwcWIotspRTTtm1mSLKdN7b6wea4nZeVCnAFGHeq0vB5eOGOCgVy92zZw+ef/5511I8Njbm9km83PbDcn0IIbYGd/7zzj/ksVy4Z9JSdperXdRafDwRRdDWObl1Wd1SOsgTRTdNDJIQuTCHcnEIQ6UR11tlaLiE4dEiwqiNSsW+M+37cH5hGYvzS6itUHBzaLfaWFquolZrYfvkCB47uguPHp7Eo/dN4YEDE9g+UUbHvkPn51dQs3p1TFRTMU9/+NWYy0UoFYtu35HVIQj4MKSsKqTPFqb0spszH1nEYa/aMbs1d1Gpx1Z2OhL1qvDqK1VsACS8QgjxMegXpez8WnIl7GIpTp+9S6G9fPmyE1p2W6bAcjRlPjeXLbuUYd7HS+nl44kouTyvDHZXphizJZgtw7t378bevXvdQFa8p/dHfuRHcPDgQSfRN8K/Xp7+ZSGEuDn++97E1oSPIzKzG/JipYNmx+TQLJENvHz0kH/8kPuf3zcW3JrJFN/IRDIXFZHLlyzymJoaxc7d4xgaCazMBVw4f8G+N2exML+Aln1vjg0Vkc9xv3yUUBc7tw3hwYOTOLxjCPdZHNoxgl1WRsnK6rISEQe3yrEp2YlrKuKuBgiDvMmuybVNw4DSm0qxk11XwXSatvTyGb2R66rtH7+0Ukm7NWfLFGK9kfAKIcRt4IXWS5GXL8K0/i6yYjAUXrbYUmTZMstHEvG5uX/8x3+M//Sf/hP+x//4H/jmN7/pujrz+byU4Gy3Zk7ZcssBrjhC87/9t/8W//7f/3v8u3/37/ClL30JP/uzP+tadzmSc/YeXiGE+KThN3+nG2O5wpGSa+jw/lfemOv8j2t7bb2p4TLRkvm7xH5/2E+3k6BR76Je66LdAUYnyti3bxx79o2ZpzZRWZ5BfWUJpVyInVPj2LtjEru2j5gYFzE6FmJsOMBoESjbPoat9NEoh4nyCCbHJzBuUSib0BatTpRk+36M7XdWJ7Z9NmLUbb+cxl1bz0G2TGbtP1dfX2f+8Djozq6l1/Kw+/bycgMLS1V37O7xS7RiITYAugoQ4i5wI/HhOonRvQNllq9X9h5PzlPGGP2DK3l83rViK8Hz02jYhdHCguuOzFZe31pbKpVcHt+9mffgcpRm5mNrLx9hRNmlxHKbyclJHDlyBA899BAeffRRN2Lz0aNHXZfmcrnsugMyb7/0Zs+5/wOF/+OFX95qbLX34XrxUc7zVvye+KS4lXPp82TjKr35ntClS/zf5zGJtPS2SetSpYH5lTqaXd7zanndV4vPZ1MrN+R3jskwd0HZZaZOO8bCYhWXLi3h8kwNrVaMoeECdu0axv59Ezi4bxp7d07i6IHteODQNuycKKEUttFtLaPZXEStUUW90XGPRWJw+3q9ZRLdQK1ewXJ1ARXm6bbRtprUTFbnV7o4w+f8XubAVg0TWBNhN8gWq+nbay1cPZnKAbascJvvmizX7SAXVii8dSe8TOcPp0KsNxJeIe4i1//ivEp23Vp5xMbBv16UN3bNZbdcdr3NjipMMfPc7LXd7K95Vip5rDw/7LbsuyofOHAATz75pHu0EO+95ZSjNT/88MMuP5+nS+n1rbxeTN39bSbKw8PDTpDZosv5YrG4KrrZfWdhuf68+/Kysdnxx+/PAcnOi4+GP4eDzu1a625Efxnio3Oj8+dfE5+HU36/87uKj05j8A9u7Xb6mDOXrRecX93edJDC2zDhXay1sFBpohFzvGNecve+i9z/KfyuCV23YRbF7sVsbeVAVTWcu7iE02dWTCJbToqnp0q478A2PHz/HhzZtw1HD27Hkb0TmBoOUUQLSbOKVmPFhHUFF+aqmKm0cWXFYqmB2YUVVGoVtNoVE+Il1Fs1E94O6rbjhVqMc7NNvHvS9nehgtnlFpoxR2Gm2lJe047PoR1XaOmhbWM6bGmmywEfRWTnqWXHu2LHyxGi7dg56HQqxsRPhVgfJLxC3CX8RfTqL0X+hszQn55dVmy88ELEeXbNffPNN/F3f/d3+Ku/+iu8/PLLbvAktmJ2Oh130eSD+f2U0Y9/n2wm/DFlj40XjhcuXHCtuxTVz33uc/i1X/s1/Pqv/zq+/OUvu+m//Jf/Er/wC7+AHTt2ONHlOeVFp+/W7INlDmrF9cvM4885yab3r9tq+HNABr0/FR8tBr2n/Hvf4/Nm5weFR6/LnY/sdxLJruP55nc7b6f4/ve/j5deesndfsEeJ/xe52OELJttZP8sL/PHCSMdoKrSAJbrMVaaCRrIucGd3IjI5o8uOG/htmdYUdzWDWJlAlw3l5xZaOO9DxZw/qLJaS1BOZ/D9FgZOyfLmCwHmCjEGMvHGA4SbB8uY8/kBCaHx3B5ro5X3ruI752cx4vvz+D7H87g/MIC8uUIe3ZPYuf2EZSHC+CjeJfaCU7NNvD2qWW8c8pEeSFBpVMyfc659UloomuGS9mNYvuejQs2jRAlpvBB3Q6kacfWRcOOeaURwDwdDat7l+9XE2E7GnduhVhPJLxC3AX6L3Q82V+u4t6h//XkhQ4HXaL0/vmf/zm+8pWv4C//8i/dBdKxY8dc6yQvnHyL71rvh82OP26+3znP1ll2PWZ35CeeeMI9jojdkw8fPoz77rvPdU1mF+VPfepTLo0tt9yGXZU5OBW3Yz6fPui8Mo3do9nyy1Zk3tfLZ/0ybau+Dh4evw//mog7z6Dvd6YNkuIb4V+f29lGXEv/e5zn0p/P/vPKZYote+7wu/yrX/0q/vqv/xrf/e538fbb7+DS5cuo1dh9l+2blFTbxsrn4FQcwGmx0sZKrevEtZ1wYCcTXpNe2BQ25ejHDKuVpbNe2bqxnBwqzRDnZ5o4ea6KUxeqmF/uuOfe5nJF5CIObAWUCwmmx0Pct38cjxzZhfv27UDSbuPiuUu4dGHWxcLMPJJmG9vGRnF4327s270ToyMjJuZWvsnu8dOLOH5qAZdNsCutCB0UUkF3VUprxzZoV8s0McWdMlvjji+Pesuk1455pZ7YOeitNvSOFetN9PTTT/+H3jx+6Zd+qTcnhPgk4C9Qis/rr7/ufpFu377dXbizS6Zf7+G8YuMGL1b968QuzW+//bZ7Juz3vvc9nD171nXX9ff1UnQpWIQtmqdPn3bzbLm8//773Tzx8rHZ4bnjOWNQVvfv3+/kliMts7WX9+byublebjm/bds291lhHm7De335nF1KLEdiZhq38+cvey75GnGe5bEcSjall2Vkn8/rp/2slX4vw+8f9kD44Q9/6Ob5hwV/Dkn2va649cjCZfZk4L3nbCXke42jh3PKdfwcZN+jNwpPdl58PNY6x4SvC18f/r5+5513XAsvB9XjHy85enw6lgBbPk1Y3fNqTV1NQANb5nNpF2sdnL5UxXvnlnFuvo1qXLZ95EwWI9NDSi7DbNW9/ox0/36JyZThxMpqtngLB2UzRjEfoVzMYaho35GWh+NghVZMqRiawBYtyu4zPDczh+WFRYzy8W7dFqK4gxHb7uCe7dhvMT0xbBvmsbDSMdldxjsn5vDhuRUs1fNoJUV0AxNeqwTdlvtOZTf9Yd2ZbmfNCT4fo8T0yM7hcC7B+HCEvTtH3XSoaEfBPAy3rRB3j//zlT/tzUl4hbgrZH+Z8hcoLzI55UX3rl273IU3f7n6oCAxsmmKjRMUBEY2jfLArm6UWV4Q8d5UPhuW3XZ5fy/v66XgcUoZ5gUA5W0rCa+/sOQx8h5b/sGHskth5TzlNnv8FAP+MYjniS25lFsOUsXRmf22DC7zDwq+q3L/OWQ5LJvb7Nu3z0kv5Y7pxOdf69yvlX4vw/cv7038wQ9+4L6LOOCX/+OCvns+evjvbn8Oq9WqE152x+f7k/epc+o/C/3bZ6O/rJvlvxuxEepwJ8O/DtnInm//WeHrSPHlHzP5vc5WX36PLywuoN5sOPMsFEuI7HuoFQdYqLbx/rlFnLxcxeXlBPWkDMQ5hBnh9RrpVZffMxRYCiYTOWAUW4XjMOfuG+bntdNqY6hccGJbMPkNAt5Hy0H8Oq4Up8UxS+5g++QwHnvgAPbuGMPOqSFMjRYxPTmKkSGrZz7E/EobH16o4AfvXsHpi3XMrQRoxkPoBBTevBu5mSWG1wivYemsc/oM315rtRlwlJiQh22MlhLs3j6EyfGcCXcOkR0Uj1jCK+42WeENPv/5z6efNeN3fud3enNCiDuB/4Xpp6RSqeD3f//33S9MtmZReNjdknmy9xaKjUv/68op//JPeeB9vBRctgBQHtgK6VsV2QWXUsH7UNla+cILL+BnfuZnXBnkVoTrXn9vsP4Mf0yDjofrsul+vv/8ZNOz2/SXnS3Lr+sviwxKu13WKiNbhzvNR6m3/wPNf/tv/80NtPaZz3zG/eGAf3zz5X2Sdd7s8Bzy/LGHB88v/8jJlref//mfXz3Ht3J+mYffI9zWD8S2Xq+P36+f3qvc7Lxl11N8+QeLt956C3/6p3/qhJfyyz/E8Q9oe/btxeEjR/DAgw/hoYcfwSOPPorS6BRmVxJ86/XzeOXEMt67nGC+O4EgLpoURq4zsxsGynZjnmgnlPvj73/OdmxtlztmiosoTFAKapgotLBvKsRTD27D40encN+eIoaLJplRFzkT39hKbncDE/AEleUVxCbqk+OjToDbnS5anRihSbm9mVA3qX//zBLeOrGI14+vYGYRqDTzJrujFgU3wFYccMgqk2kXJtauUxNll+vS7tlWokvJJW0U4yomCxXctyPATzy3F08cHXfPAS7ZcfGY7+13jbgX+X//1ed7c/bOlfAK8cnhf3FyyuCFAoX3D/7gD9wvUP7ipAzxAoj4Fqeb/UIW6wcvgPg68sKTLQH+dWUrGVtxXn31VddtmULBdK7n68qLVXbb9feP8r5UDtSUFV7CbQbh07PvDb/vG5HNs9b83Yb7Zvh5kq0L5326xy/7C/7ser/sw5fl5znl65aVBT/NMijto5Ddf3Z6p8rv56OUy5GxKbz/+T//Z9cdn63n/B6iWPE8+TqL28O/5xh8z7FVjj0+fJfmp59+2n0X+PVkrdePZTHYFZ/b8PXx96rf7uuz1j4+CneyrLvNzc7boPV8DTlCPLs0U3j5ueF3fxAFGBo28d25C/c/8ACeefY5/KOf+wXs3ncY1U4R33rtHL7/4QqOX0mw0B63wkumh/b5okbaS0+lZZdgW4HApJazqex2LKmbSiU/i/aTTxoYChqYLLZxdO8YHjsyhacensSOiRBjZXNYJ7yJbW0lmEUHtj1bXPMsk++XIG0tbiQhFhtdnJut4rV3L+Ot9xdx6nKIarOEdlxGHA6lsstaBW0rLV0K7bykXm7vWyszCXK2NwZbd2MT3haKyQqmiismuQE+9+w+E95JHDLhLYeB5eKxCXF3kfAKcZfwvzyzv0S98PICiOLDLpZs6eXFkL+QuN2LGXH34GvT/zpxmX+8YCvO1772NdeNmRdJFAfC15mt+LxPkn/gYH4OwsRWtX/0j/6Ry3MjmJ/B/WXfG/3vE1+vLP35fR4/n93G5+1P/yhk95vdp98vp9kL/qxk9ef355HcrF795Xp8WX5f2X14blb2zfBl+XJYD18fv18yaD/ZtP5yPNm6ephnUHk3w7fw/tf/+l/ddxFFjO/RbAuvuDn+XPG1yb4+Pp3f97y9gX9U4B8Tfvqnf9p9H3A983Pq59eCXWp9kP782WXODyL7GboZvqz+Oq1V9kblRue0n7XyMp3f5fxO5/gMH3zwgevKzM90lI9QLJcwMjqG/QcPmfA+i3/yT/4pDhx+AJ1oBD94dwYvvjOLt881MNcaMeE0M02KCE0Wu7Y79y3lXpf0eyLtnmxhAslW1a6JYtdWU2SjuI1C0sZQ2Mb24RD37RrG85/ai/v3F7FzMkQhMtk1I03bZCmYbHW1cN2RrVQT1ZZFpQ1cWmzhzQ9m8dYHczh5vobF2jBaJrtdlGxfBdeV2b61rG4mvCbOTnht0d6pVk+rDxdMdhnpfclt21fdhHcJu8daeGh/CT/1/CEc3TeCXRMFE1628HJ7Ie4uEl4h7hL+l2j2l6nv0sxRfdnNlffO8b7E7MXEvXZhsVXxQsO/9h8/fhzf+ta38H//7/91XeB4vy7lgYLL1jOOQPzAAw+4/OziyK7OfM7sz/7sz/ZKWxu+Hxjc1ssc5/37yq/vf99k85BsOYzsNoPyfRz6yyN+v35+EIP2O6g+a21P/DniNv41Yvh0Xvxn/8DUP/2o9NfJ79en90sH07lPHx6fv78+Pj1L/7a3CoWX95P/9m//tmuB/Lmf+zlMT0+7rpoftcytTva19vD2BT7Kho8qo+j+6q/+6moLb/Yc95/v7HvAD/DGVvn+8m/lderf143Ilt+/r4/Kre77TvNR6s9tGL7O/M7g72r+wYKjNLMXz9LSknsNJ6ensHvPbhy5/34cMOE9at/x/E6f3r4LHZRx4kIVL759Ga9/uITzSxFq7ZKl8w9KRSe8bInlTbtpLW2fDO6bgmnRDe07y6Jr6aFrRY1hW2I4F2PbSA737RnDnu05TI8A+bDDxleTXqBjBfr215yVw/trqb2mpah1c5irdK1uKzg/W8PccoxG12TXRNzJLrfioQddi7btl/ps1YztPZSkrc1xwD+8UGFNdq3cKG4ijyqGoyU8sLeIJ++fwGef2Iu9kyVMmO0W7GvP3ZtsWwhxN7lOeP0Hm7/4hBB3jkEXD7yn6/d+7/fcX40ffvhhdx8npcjjP4/rdZEgbg1/YUTZ5WvJll0+ioiPreCFKe/V5SjM7MbMgWo+/elPu8GXeK8vH3HB15d/7Lhd4eX+GFnxJb7V0r9vmJ5d5jQrXH67QWS3+6hky/dlMc0HYX14HNnjYV4vo9no50b1z4qtlwV2Oednr9PpOPHw96v27+vj4OuUrRvns8c2aB/+tfP47fvzDjrmtcq8GRReiu5//+//3b1f+Qxkvl/Z26S/PuLW4Ovjg/Ac8hzz0WRf//rX3fvtN37jN1Zb0XmefV7OZ8mWwc8H37d8H2fTb4fbye/3cae43breCT7OMfjPK+F5f//9990fM//wD//Q/TGTrxXv3z183314+JGH8ezzz2Pfvv3YvmOb+0NmlCuiFUeYW+ni++/N4Qfvz+G9cyaXddPCThlJWHKyy1ZXtunaCXL74v+p8FJwKbuxE1628LI7Md8hOcvEBwYVTUiH8jFGS8CwTXNIB85izTtx2rKbtyWKshskKzD1jYpoJgVUWiFmKx0TcKAZhybJVOO8nTMOVGUia2UnpuaBiS3rw/2Gcc5Oavp+jYMWU6yeHICL3a1rGMpVMT1cx9MPTuO5h3fgU4cnMVmKULI65bh7d3AWQtxFssIbPfPMMxqlWYhPGP6SYPAXvx+lmRcvfjAjyhHpv+gRGxP/evp5CgPv7+J92bwgYosuBfeXf/mX3X267C7KLswTExOuhZ8DlhEKBp87ezP4vmFwX7wYo7ixCzUHxqJs+/DLlBm+z3ihzO0odf695S8+/cW2D78Ppvs8dwpfnp9yf37KerLOPC+sNy8wWQcf2brdKr58bsN5tsiw2+63v/1t96xkdklkCw1bM7Otbbezj0H4/bLeHr5efK14bJznPZjZ9Tfa963UZ61tbwbPM+vER2nxfeIfS+S724pbg+fKv+7Ey5J/jfneZgshP/N87flYInZtzp7jG51v//5nedyOZTD4OnH5TgfLHpT+ceKTKPNm8VH3md2O552fE36vc0BCtu6yFwQ/Kxx74Sd/4ifxmU9/Bg8++BB27dyJ8bFRlIr2+pjkRbZtsRCZZ5pImkQur9j3cytBvcMWW3td7Se1WP/5T19vTmwpdUMT4vSRP1aOKS1bVXnPLBWULcSNToxmO7Zyu6i27HvGnLfaSFCpddFoBu6ZuDWb1lqR5S2gjTKqzQgrjcDlbXfTQad4f6/bc7pTm/Y6Rrsu1vb+40/C/af5Eg6sZRVmG2/EwaqiOiZHOjiyv4wnHtiOhw9MYttwT3Ytv/sopAcmxF1FjyUS4i7CC5bsBREv8HmRyV+k/jEpvNBMf+npN8K9Bl9bvpa8GCKHDh1yssuWe4ouH5vDP2xQrngxxQGt+FgLcjvCS/hHEt53+corr+C73/2uC16IMV577TX3rEg/z/pQjPneotRx39n3WPY96dP9OpKdz+Ylg9bdSn6m+3UUAx4PzwX/APSd73zHSSm72VLQWWdedPJCP1v2reK3odRRcNnlnOLBPwpwv2yJYWsm71tl3kH7yNZ7rflBcD3X8Q8h7NL63nvvuUFvuG8vKszj405wu+V44eW5p/ByEDWeDwnvrePP06Dz5d8bPMf+2dv8DLLLa/9n8Ubn2+fLBj8T/nPBINnljRYbuW7ZIH7KOhN+NjjqPv8g529D4dgL/G7nExZ2796NUfYWKRYQ5SLzV+oow4QwtOXIXiuLVgeomPBWTExbtFXKrttX77V3bxerh/s/nXOyy8cY8T5Z1/LKCBHbe4ttsNykyzZiK39kzL7PTLiHR/hHq7x97w9hyD7PpSFbLpURFUpAroBmnJj8csRm29LKMade3aObsI24dy9xOmU9+L/t2+rDnbLNmc8A5sjQuaRhshtj/64innhoOx7aP+66Mo/kAti3nJPi1JN9+ULcPSS8QqwjvNjmRWZWeHmh6X/RerK/iBUbJzzZeV7csiWHXZZ5IcRWHD6CiEKbbTXjRRRbgDnwCeHrn30O71r4ffmL57/5m7/B3/7t3+Kb3/wmXn/99VXZ5TzfW7zfjF2nCZ/zzB4EvMj2XSN9KxTrzTS+J31wvYf1ZV6fh1MuMw/Dp5Hs+chuky2X6T4fl3kRyVGtKbt///d/72Se+2RLuH+2bnbfDG6f3RePgWX59T64L66jZFJ0KRwsj+eC23O0bF7AMpiP+bkfX/dBx9gP8/7/2/vPH0my9DwffjLSljftfff0eLOzs96RXO0ujUguQQkSIECC8FJazmI+CfoifdV/IYwocCEIgigS/IHec3fI9YZrx+2O7Z72VV3V5dNGvs91Ik9VdE5Wu2lXVffV/VScOHFcREZEnjufEydimmiURfks+bzwLjOklYmLgH3jxw/2M19HrIcyIe5nbBvp+LGMdIRJy7bYMYf8cbkelEH7OGco6+mnn77qXJVd3/LE9biM50G8Zvkxh2swenj7P7fNLL89lhnjI8RDf/x7IdZzO+x+Ih7DzWB7/ngS5prj2uDHyQ9/+MPhWuF7e3JicuOxCP84PbUX4Pc4X2T7nvhnjmeeOQNKttJIbWmtbWt+HZOUVmRVEQqqMIQy83Z2/TvDBW/w8Oa8sMzHnHo9vtHjU6tWy/5ds8t2TY/Z1MSQjQ2XbWpyxO+hw1atVa06XLPKUM0Kfv61/F7S5J7DPSTsK2Uiz6nVg974KHZDFPvRE949+Rq2FQsdKyctGy7V7ciesj12bNw++NheOzpds8lqwSqel9ThWIdywgq5hbhrSPAKcRfJvviyGz2dHL48ESgs8x7e2AGK6WVbw+JnhpBheDoCEzEVPbp8rvm0iK/oDUYQI3jj9s0sgjChA80zZQhnwnTIorCiLgQdk6BhDL9jSYeM8w2PL6ISzyNxCCjyIcZ41pBteCSph7LomEcvJV5SxCNlsE4nHm8s65SFkYf2UC5p2FfayZJ0tIEyScM6Xk880rzqAxADPO9Mx5Ljx36RN9aFQOaYUhdlINr4oYFtse2kYUk8aeIxJB8imuPBZ8R1x+eEJ5n2ko+6WNI2jHXKpSz2jXrj58ExIh9tYx85PtRLHPuYPyasUxfXO0YnmbZzzKkj7mPMH/NSF/VE0U49GGn5XNg/yo5Q140SBW/08MYhzRwPyonHTXZzBjHMceRz4rPjmucc/MhHPvKuHxWg/5hHNgvnyecZ9NlBf9y1bLt+/vE49MN1FOnPw7HguuBezWgdrl/Wue7icUpIS17+uXhERGJsK/olyaRNIxWEqn//t9NwnXc77eBM7TAZFAN/8d5mJfgyE51BQJMoxOCNTYMxZXIh4fnautVKqY0NJTY+kli10LCRYtP2jldscrQUJrJauDIf2jo0gvj1+47X12Bo9VrH68YXXfJquYcgrv0vx8Kb4M23NKEtvo8ueEtuRd/ka8bjvEVbs5HSqh2abNkzJ8ftQw9O20N7/LunXLRaOCZejO83Aprywh+PF+Jukhe8hS984QtcUQFNWiXE7SX/RRo733Sov/SlL4VOLJMWMfSVL9F+SCvuX/g8+w343PIWiWlefvnlMMEV4ccff/xd7+GFzT57BCPPg+IxRCwimJjxmXU8dQynZjZozivgHEPQxg42nkI6P4g90pCfjjjPqCGASINgZhuGl5r8eKTxxFIO7UYokZf0CEg68UzOxXmMYMO7TJvYV8Q06fGk0j4ELUO8EW0MzcZLTRvYN7zjeFAoj3rYNwQxHcRYF9cL+4g3nboQy/yAhOBEmCIUAVHLPpCPV4pQDm2mXIQvdTFpHG1iHxlaTRq2c5wwhArQ3meeeSbsIx1f0nAdM9QxvqqEtHSEjx07FoY9skS0I5yZoRfhTN4oLGkvXnlm8CUv7eZHE57/Jj/PfNPO+BnRNrzU8YeNQ4cOhePAftA+RokgqG4UPhN+KGACPUQZswdzzAaNNhE3DucGBhxHPr/8pFXPPfdcuMb4DPPp+o953NbPZvEwqBxxNfnPB/Lr8djl1zHuBf1pIIY34rI0JI3p+Zv6n4br2zcvt+3Fd1bsuy9fsFMXV21mIbXVzlB4trZTcEWM+PR8CN0wO3IoiLKT8Kog3n/LzM0FnrFlQql0zcZqBds1UbVD+6dcaLZc8HZt78SwVaolqzdbdurMrJWHJqw6PG5tL392fs0uzi7bzOySNdvMBc2szHhvIbQ2mxk61EUUQrhgFV8pegMYst0ttV1oL9ve0ZY9eWzIPvLIbnvq2KTtGy1btegi3/PyXuHMS0yZ2Q8DvuImxN3jqkmr5OEV4u7BTZ9OOuKEDj4d4Ojh7Sf/xSruL2InKd8JogMbLU//54iHLj7Di0Dc7BneQZ8/ZSM6ETuIUZ67xIvLOYU4REx+5jOfsd/8zd8MghBBw1BhvHhM1oRnGKEFiEc64swYjQBH9LJOGspDrOGxpgzy//Ef/3EQdjwLiyGASU+9CDU8mAgvxCnPrL7wwgv25S9/OZRP3Qh0RBbnOvsQZ6tGrMZnd/E0Rm8o4g5BzGueuF6oE+FKXp67Zf8QarSJId5MSEU6xCETBFEX+4ggRiyyj9T16quvhrZwLBF3lIMoYf957QginTR8RtTPOmWQlvK4ZikbIc9x+cu//Muwr4hX8lAW4pU2suR4MPyccvhRgfrYT44R8eRFNLNOu/khIHrmOVbUzbH+kz/5kzD0m33kM4pinPIQxnxeUezfCLSF/ch7eNnH+OOIeO9wHPkRhs8qDmnmBx3O8fwxJnw7jvntKme7E49RvH9H+o8d69wn8su8xTQbEN6Iz38/hGHNlZKVysUwO/PqWsOW15phNueOEVcMwjPzofIvZAyh8OisRyB4/Vsn/EOYIj4rXu5wrWq7piYzD62r62qp4vWUwuRYV5Zanj973VDDI5ZX215v21ZWW5TgGajTBS95Q5UI64IL3mzZdaM6vtWCPHZRXSnVbddoasf3V+39D++xR4+O28Fp3rfbE7vBsgJpKWVmxwkT4u6R9/Be3TMTQtw1si+AjSX0fwGLrcHGF7p3Q3regLxdi5g3X8a1oOMVLZ+HegkTD/lteCMRNdHDiGcTkYRAQljhUaQjTjxiE0EYxSyiknIoH5GHMI2eSIQZHky8lFFk4vWkc48QZXgs7x5mkhfqpX7KAwQhQwTxKiLamPwF8U8ayuQ5ZEQvIpq8Tz75ZGgrwhdxGT3HwDEmD+uUS50PPPBAOBYITdqHh5ky+JGAHxrYt+iBjsOfOUYIVspCQOKlpT3EsU8cF34MQMAgihGshCmPfcQDTBn8yMDEdNTBD1scP44128hPfQhh9gcv/8/93M+FttF2BDvHDqFLO6gXgcs6bYmT5uCZxmPIZ0sdYmcQr+tBJm4cjlf+XorF45hfz9+/+7fn8/QbrG8nrxczWjY7MFGyJ05M2CMuEg/trlqt2HAR2XTxysuHEIj4d12EhlmRXQR7GZl5KdFCiZ6mUAle2uW1ji0st1zMdm2lXrDFtYI1XUBbqWppcdgWVlO7cHnZzl9asstX1mzFBW8H+eoqmomrghM21OvrQdbiUeZ1RSw9zr9S0qTj4pd2rtlIsmzH91TsqQd32WMPjNueyYpVvF3eTN/frHWUlYWiCXFvkeAV4h4SvxjzXE8gifuHfOcmfm4xLm/Xgnx5uxnyna7++iOEEbEIq1/5lV8JHmBEE4IJkfvZz37WfvVXfzU8PxuH0SKgEGQILjyBlI3gpRyE2T//5//cPv/5z9snPvGJIHpJT1oEXYQwohGRhvikfvKyxHOMl5owIhdDbDOUmWG61BefNUbwxmejaRseUEQgApAh23G/8U5SD/v3uc99LtRF2+OzsWynDIQ1QhPRiZcZURp/EAD2kbb84i/+Yjgu7CP7wHb2kXyUiVDGW45o/2f/7J/Zv/k3/ya8hurnf/7nw48B1MdnQ/ui8Vng3YsinnzUwzBtnuVGlLPPDFumLvLEHzL48YB8HDeEeBx2zueIUKYusbPJX/diMO/1GN1sftIXwj2aZ3lTm6imdni6ZA8dGbeHj07ZvumKjVSRuC3vkLeD3MwEKM/XIkD9HsC/IIh9g5cTBLDnwCvccsG7sta1i7Mrdm5m2c5dWrV3LizbO+frdvZiwy7Mrtqlyyt2aW7ZZtyuLK/ZaqMneHneOIjR7G9WZ1Z2tmQLw5Lbbk0rJnUbrTXt+D4mqRq1R46M2d7xso1U8Ox6jpxXNwTcNo5XXApxb9A3pBBC3ARRYIWOTM4GxcX428m16o/0r+NBxbOJuOKVSQyHJg5PKDOOIoDxThKHSEU8IRYRXwguoF6EJ8+M/vIv/3IwykKAMVQT0Usa8iMaKQtPcHxekXjEMekRnHhFEXkIRowwbUR0A97a6MGlLXhGMTzMUajmBS9lIpYRkZ/61KeCiCY9YpbnngnTRspCvBIfhSvbieO4IYo5JjxbHY8XAjNObsUxQYwjSimL48a7ln/91389/AjAjwGsUz8CPS96CSN4EbbsJ/vLMHTazbFFuNKG2Fa8wpTBsaQN7CPtoCzKQIgjgokTO4t43edN3BibHa98fAznLU+878CgtNG45pnUCsdsyYXjULFtu4a7dmL/iD16fMpOHByz6bHEqsWmlbpNS3jHLSKzByK34/8QvYjPrpdDucwIlXZ5H2/R6k1zMbvmwnbNzrvAPeOC960zK/bmO6t2/tKKzVxZtbnFul1Zqrs4blmzg4DuDVfG1iGMLPB7VtjGZu6LeHbrVqs0bfdEwR47Ou42aif21WzMbz1lF+MIdVobjGKC9QIshLjHSPAKIcQtEjs1MRyX+fhBRAEE+fR5ux6xjP48+bKBeEQnYgrRiYiKQ495JpRJo3h+FM8lz28yTDaKNMRurAOhxjOllEE6wpSJIEPwho6dGyIX8Ro9nQhL6vjTP/1T+6M/+iP767/+6zBkFw9mbHfMSxjhGUUlQ5HJy3Oy5PvmN78ZhhWzDUMUxvy0G68qbYoCkH1CzJKH54Up46/+6q/sq1/9ahgazTFAQFMfsB8cq7iflMf+IeDZZ4jtQ+ySPh4H8iE++REB0Y33GkFK2yB+LuRFrLMvHH+GVSNw+Vz6n5+lfDy4/MjAsGfaw5Bn9oFj+Rd/8Rdhv3i2mXJjHRifXTTWhRCDifehSD6cJx8f71c3kjYDL2rHijwD67ZrtGDH9w/ZUyd32wP7h233SNeqhTUrW8OK1hO9cdKnXlHhKuZP73L2O5//Lflq2To8C9ytWMttuZHYzHzdLs2tWr1TdIFbtFbHxTFe4QLeWzceCKb9FNHzHmfFUllWMh7n8Mxu0vC2rdj+qcQeOTph7zu5x47tHbHJmnk8TwczwVbb25UTvZFwHPqPhRB3HwleIe4j4hfoZl+i4t4TP5tBn9H1Prf8dsLXS99PzJMXMDGuX1jlw3E7AoowIpTnY5ksiQmlWMf7Gl+7gWAcVGYsA3HGMhrxsR6EJ8OG8VzyrCmGYMNLiUeWiaMQvDz7iniMxPyUR/2IO/Lg/cQDzdBiRB9iEq8rQhCxGaENtAuLYQQkZSFYEaK0ieHDlIUXliHUlENd1B33OZYT949w3M56nHQIQY1gRnzzIwLiGhHNBFgIUzzIEI8feeKxZ5ItxC6e4jhUmWNP2fl9oO14kWkz+80wdGaMRpBTF8cTwUtbYj3YzULbxJ2H4xyP9bWO+a1uEzfOrR7HG833rnR+WfKkLN7QoVLX9owW7aGDw/bokVEXvTXbNdSyoWLd5Wvdirx2yIUkXt3s6dqehff8YqEwJ5bogreA9CxbyyVovVOwervgkhWRy0zMJU+DVxgp7XlQut4+PMZdF9XB/B//KTtJXR6nLSt36zaS1G3PSGoPHhi2J45P2vF9w7Zr2O/TnqfY9Xu4W/A+Z7uYI8ZcHSvEvUCCVwghbpL+jgzrgzpBNxIX896IxfQQRU0UUthmYifGxzTR68nES4jPKMzwUkYPL8RyIZabj4OYFkiDR5E4xCjDdBk+jWDl+VoEKJNbMSQZoUfaSMxHGjymCHA8xAwvRjQjUPEaf/rTnw5CFS9yFKqxbRHWEaYM+8XjTDt4phfBiGjGKId1xGQcerwZsZ3UhSClXo4TnlmOIx5yjiMTfTGzMx5pZlNmuDRtyR87RD8ClUmt4iuJgP2mzCh28/vFNoYzI87ZD0Qv3mNENsI6eqnzx4H80W6Um0krNmfQcd/ss7jWMY95+k3cPgYd3+vZrcM1zX0msbKXM1ZJ7Miuij1yeNQedTs4mdh41eVqoW5JoenpMq8pMx5nkjYznq71koLe9RZl5QbzVAWEbzSGJucs5uQ2EdbJ4/e3IHb9Hud1ZQLb63ARW0obVnPBO1Fu2bHdldDGR4+M2b6Jko2UCy52vcTg1WUUiWf3EGzchULpveVGrBD3AgleIYTYQuTFFyByiMOIi2IJBnXQSB+H5UbBxuuD/uAP/iC8+gahhseSNAwZhnx5EOujrHwceRB5vHf2//7f/2v/+3//b/vDP/zDMHQXUchsxwjRvLCmjCjUWGcb4g5RSf0IOsQhr+ZhdmbKQSRGYQgxfx7KiTNAI1LZTzyvvKIoLzYpI3pVo8eZfcofR8IYaTDEOGXjfUXo8jqj559/3v7n//yfYagxnlsmyqJd7EPMG48pxvGKnt7/83/+TxjyTdsQxGxnyDReW/b3b/7mb8J78v/f//t/IcxxYOIufrjgOMb2CyHuTzJxWXbhWfP7StWKLkirfvsar5gd3V21x4+N26PHJm2vi95qadUzrHgOv3cgdv32xp0oyFruuS4yE19ilJxZ9hfx6nfn4BsO5mmi5OR+FgVyuLP5tq6XxYRY5KMihHUQu922ldOWjZVTOzhRsaeO77ZHDo7ZgbGS1bg/hnZ4FhfOie9LGBvdE9GUHzaGtSxGiHuNBK8QQmxREFQIHYbtMsSVJYISopAjHvFHmPR0eohDsOH5RDAhUhkei8jivdAMr8XriQeROOpAgMZygHKIj8OGWcY62YYYQ9Ah2HheFq8u2xlaHF9pRFvJSxsom3XaRv1xIicEIGIVgUp5CHXy4EEmfdx/8rOkDuqPgpeZjJkgiv2gDXGGZ/aNNlMOS4w8GOFILB+L+4jXmEmp8DwzHBlvNUOLGR6Ot5X6GB7ONo5HvlyOK+0iDeukp00IYNLjuaZNiGPaDAhg3t/MceR1TYhsjgPHkP1D1HMM2e8In3U0IcS9JvhNXYQytJgfp/z+6WKQN+RO1Qp2eFfVHjsxaScOjdnuSb/flP2+m3QyweiX8Lqti8gwMDlYJmf9WvcEhML7ekOYuHgv8A1Okni9zKBFBB7dnlc3VoA3mWeIy4W2jflt8OD0sD10eNoePTplh6ZqHlfwPUAbZ+I5CujYMi8g1AnhXbyhRULceyR4hRBiCxFFawShg1BCQPHsLMOB2Y6YwlPK7L6IWLyRiDUEHKIrzhLMkGOeHSUvYpRnRXnmluGziDUsziqMAEXsUQZiExGM2CIv5ce0CDoEH/VHIU6dCF2G4yIWaTNtp24ELmUg9DDCtI3hu4SphzIoi/ow9pN9JD3tYh8Z5ktcFKnUEWdCpj20AeFJOdRLesphnf3iWFEW7aYMjG3sD0Ya9jseP4ZGU3acxZm20I5PfvKT4biShziWsX2Eycswb4438QhXwrwairzEUS/10xaOAe2iLOpnHzlmTIxFOWxjv/jco90KEsdC3DkQvNmAYb8+g77MnoEdcgW5a6xkJ4+M20MuLI8dHLXxkdQqpexVRUhJOutc1ZnlhW7mv+Vfr1C//j3YYz3I94Zb4jGhrNTzhes9M8RpsPDUb8vb1LZdo0U7cWDCHj2+y5djvl62mmdGL1NHJnYpLWtdLE2I+5HCF77whfXzkyFTQojbR74DGYUKk9Z86UtfCsMV8c4wiQ4d8zy32mEV9x/xHIhLhrsyLBX4/Hn9zSAGnQOUgScwbiPM+YT3Dy8tohPxxJLhyngP8dxGkYZQRCxRDh5C8sT31CKmEH+IS7yz1EEcwotzFe8o6wiweL5SN++iBfJSPuCVZfgydcd3+SK2aQOCjzbSjui5xNvKdgQh9SP0aBNto17Ko80IatIgVtlH4vCush/UQRsQgohPyuD4sC/x9UO0F88pddNW9oP9iceKZ2vZX+LYTvnx+AJto26OJ21nG+Wyr/GYsY8I1iiOOc4cI+pAlLLvQB6GVHNs2XfqjMeEcqiLfWUfOIYcS/KQPm6P7aROfjygHNo8iHjORDjm7PP/+l//K7Tx3/7bf7t+/ClH3Br9x5/PjGe7X3jhhfAZPffcc+s/TuTpXxdbF86B/vOANeQkRigMCe7FImkbacGW3U7NNOzlU/P27R+ftrcvpja7XLFmd9RTFIPnNKVcP1d4bVCYgIrzxv9TUvC6+vZsCHT44yBs/X9YJS2RvpW43izQLAuet+j3mqTjYrfcsN3jXXvw8LB9+Ik99r6Tk3ZovGQjflsoe2GI5qxsyohiOys3koli4iHGb2wX4m7w//ut/9gL+dknwSvEnSP/pUeYTg2dZAnenUM8B+LyvQreeB7FdQQSggVBhSBENLFEKMVtpI/bopghL9tIgyEQSRPFHBCHIRJJG9NQDiAyqZfyyYfQhDgcF1FFWbHNpKHTTxm0gzaSnyVQLmlISxlsowzCQB7qiPsY9580hMmLmCBdPEbkJQ3XG20iHfuRLye2A2FNGcTTTtLGfYe4jbLZRnnx2JMu7iNtYAmxfuqgXvIDcVjct1gu6eK+5I8n9WD5emg7aQhTdtxn8vcTt0X6Be+/+3f/Loh5Cd73Rv+xl+DdeXAODLoGM7GLbYhdjIHLLRecDZeS82sde2d21V587aL9+LUle+t8yxbXKpm49eQ8k+snSxC8YcBzLJIFm9x4knaDXtgTxjNsfatHdF0d8y/zNqdW8VJ3jxfs2IEhe/qRaXvixISd2Ddk42W/R5HGs/Fe4fVKnayEDaiJJFef0letCHFXkOAV4i6R/9IjTKdGgndnEc+BuLydgheiWMzH5dP0h/MQj+Xj8+v5cH/ePLEcuFa6SEybpz/fZuXl825WF/ExXb6cQfERtnEsiY8WyddDfCwrrt9JYvn5Ngyiv83XY5DgxcOLF1+C99bp/5wkeHce+fvD1fAZY9yH2M69m4mlEK+JtfwcqHvUlbW2nZ1ZtX96cdZefn3BLs23rNlKre33p9RVb/Du9swLCkWG2vyP352CbQa1R6JY9hKt4OWWPDxSSezo/hF7+MSkPfPYXju8q2LTwwWr8vSxFxuePmaSqlxJg/b1Zu9HQtwJ8oJX32pCCLFF6O9EEM57MyMxLr89hvPrQGclrse4fDiSTxMtX16kP80gG8RmaTYL5+nP17+MbBYfO2z5fcl34oiLFiF8I+lvxAYRt1HujZQthLh/GHiNuiEyuZoRmTEUZkZG8rqgZUrAsWrJDu8esSdP7LIPPbLLnj42ZI8eKNjDezv2yH6zR90eY7m365baI3u6wR7e17UH95md3N/N7EDPPPzA/jTYiZydxPal9qCX+xBlHi7b+06O2fu9zidOTtu+6YqNVF3kFrxtbgWGPoc2C7E14LKLyMMrxB0k31ElzJeePLw7i3gOxOV78fBC/pzKs1l8vpxBafrr2aycG+F2nLfUf6PlXK+tN1LOtcp4L8cm5u3Pc7PxeQbtT0zPtkHbN0Me3jtD/+cnD+/OZNB1vOF7JYR4xMObPcLAkOWOZe/ObXu40TG7stiyuStcpytWbzatHR5/QDRn5WRjeyBbR0yHGZr5t8nplG8VScjJu3R5vVCpWLLhatWmJ4dt12TVJkYSq5VSq7jQDe//7SbB5OEVW4Xf+g//0c/PLCzBK8QdJP9FQJgvAAnenUU8B+LyvQpeGNTBiOdXDEfy5cT4my07Mqisfq5V9o1wI23Mc632QiyH5aC073V/IzFtf/v7822Wrj8+ny9uG0S+nGul60fP8N4Z+j9vCV4BnBWcGtnZkQleJCueXSaiyra5rHThSWzblStxnbRrzSZv1HX8FGEZjPRhfeO8IR7Buy6E+0+pvnVWs0muEN8uZIMVrFx0K3WtlKRWcrGbhEmtSOuClzS8czfkzug/5+Fm70dC3AnyglffakIIcQ+gkzCoo7BZ/PWIHQwMwZIfbhvJx/dbZNC2aHliXCwzWp583hu1QeXk2Sz9ZhbT9XMj+fN5Y/h61p83X96g+Lge6d+OXYt8Odcinlc8pxwnxsqfZ5uFhRC3G66vzLIrjR8rXXi6wMSTypt6K345V5Ku1Vx4jg6ZjQ0VbKyWbNhQthzvs8lqwaawWsGmfblhiU1V+i1LO4GVMxsvFWy0aDbkbaq6ldyKrqyTbtElrm9w0buZ+zjeu653LxLibhLPRgleIYS4h0ThEQ2u12EYtP16cbdS5vW4Vp23Ul6ea5V9q9yOtpE3WuS9lHcj9NcXeS/1cq4Nyh/PQSHE7WPjSnv39RWuw5DARa8L3yIik6VbyUVvqdgzF8RlzMMV156VYuEqq3pcLSnYkNuw9+5dE69bzcsZwrzMvNWCmbkeDiK76m3hOWLmmKcdnsV4ZZFL3uDhze9JZLP7kxD3Bb1Tk7NXCCHEHWSQiNisg3CjHYfYyYi2Gdfbnidf3o3YZlxr281wo/XdDLdSzmZtGBR3J8m3473WezfbLYSAvu+B3CXoV/T6KpcmwhfjGVvW8QBH4x23mGvcq6zkqZlpuexpEK1Xm8f591BY9gzvLcKWfJn/1vP7Ok/ohjp8eyZxfQVjkf0ZyO28Pwlxu5HgFUKIu8BmolcdBHEv4byMBjoPhbgzcGUFAesWxC///XrrFlxaYr0uebY1ux7JEbyr/PM0wcIQY8w78TkL5eONZchxn8Xnb/P/KNeol8cmMK59mtAT2rQCy9rcYz0gxNaB0za7uoQQQtwVEBTFIr+hW3iWstPpDBTDQtxJOPfa7XYI60cXIe4WuXu9X25XScvceiRcl+FfT/T2lut4Yten65ZF5eVqZlQWpeu69UQ2k2SFFw5RP0WHwpj6ilmhmTCL+wThjdKE2FL4eS3BK4QQdwmELRMMlcvl0JFB7LZarfVJhGIaIe4E+XOLc47ZmaFUKoUfYfKCV+ehELcbZGYmPSOErhahmYUeejD+bvyLsjf8w3P7rhRZzEZ+t1AmwSwcjfrCy5E8HGZ3dsOz3HXBGzzMLBG+bnG5XqwQWwwJXiGEuINEEYHAAIRFfC0JYndlZWXd0xZBbFzLhMhzrXOEcP4HlRjm3FtYWAjnIa/LiT/CxPQQ87CMJsR2JH+O3ynL4BpDWWKJhffa5oy4/ORQXS7FnHVTL4ey3PhqyczXc7YR3zPPinmmqyyTvG6U1QtnCbMcTJ+VTV+FZSVkeQcT95P7R7zPbOy3EPcWCV4hhLiDxC/8KHwrlYpNTEyE8OrqahAdCN7YOVAHQdwq+XNn0HlEHOchnVF+aDl37lzw7k5OTgbBm38Fks5DIW4/2WXFd0EUtXnfbOa/XSe4Ze8stAJZGyaqcostsgIxcb5mprVia1/7BqD7hrhf2fh2E0IIcceIgrdardrU1FRYX15ettnZ2fWhpVGQCHGrbNbhjPGI2ujdPX36dPgBZteuXWGpc0+IO0e8NLnOggUB6d3wnse3/1+g73K+nYKSGrBMyrr5SrgFhD/ERA9vJonX2yTEFkSCVwgh7hJ0Vhg+un///iAwlpaW7J133gnCN/8sr4SHuFk4b2JneLMlEGZkwczMjL355pvhB5i9e/eG8zFOppZPL4S4fXBt9V+PW4nY/kEmxP2MBK8QQtwFYqcAYTE9PW0HDx4M4vfs2bNhaOmVK1d6KYW4dWLHM98B5QcU1pkkrV6v26lTp8J5F8Xu7t27w9DmmE4IcefgGou2ldC9QWxlJHiFEOIuwrOS4+Pjdvz48TCUFKHL0NLz588HMcLzvJrwQ7wX4nmTP4c4p/DsXrp0yV577bWwPHToUDDOw+jdFULcOeLonUH39/71fuL266W7k9xM3fdDe4WISPAKIcRdgI4Oz08iLBC9R48etRMnToQJgxC8L774or399tthmHMUvdHoMMhkm1kknit5WCeeH1P4UeW73/1uOM84H9/3vvfZ4cOHbXR0dL0jDvmwENuJQddNvEby8f1pIKaLafPhSP86sB6N7YPIb4/LQeFIPm0+Ps9m8RDzYfny+y1COKaLaTcjnzeG+/Pk4/vLjNv6TYj3ggSvEELcYRAQeUP4joyMBLHx9NNPB48vk1d973vfs5deeikIksuXLwePHM/2MhQ1fuFLjIjNiLMsc65wzqytrdn8/LydOXPGXn75Zfvxj39sP/3pT8O5d/LkSTt27Fg49xjODPHczJ+rMV6I7UheTOVFVTzniUOMXeseHNNgeWI8y5gX8uG80OtPG6/BQfXly4gQN6g+iHH92/rD+XWgvFhmf3ti2pivP29//KD1PKzn25+3uF2IW6XwhS98Yf0M+p3f+Z1eSAhxO8jfoAnzRcEERV/60pdCZ/SJJ56wj370o+EZujzxC0VsfTb7kiYeMcv58P3vf99+9rOf2YULF8KEVgcOHAjGs77Dw8PBI4woiYJGiM2gw0jnHOPVQwyZ58cURhHwIwr3nY985CP22GOPheHM8f27wDIfFjdP//U+Nzdnr7zyir3wwgvhmf3nnntu/T3ceXS87w75z4djznq0GBc/i3gtMTqCezXxzMEQ78cR8jIqJ1q/aIM4sod8MW8sO478iff42IbYDohlUTZtiT+EAuliuYPKiG2IsN4fzzrEbXE79UGMi8R9BPYZODaRmD+WF4nlxLyRzdLn1/uXQlyP3/oP/7EX8vNGgleIO0f+ph5v3BK8O4v8OZCHeIxOS5ytmY4x3l3ODbxwvK8XwRs7EvrCF9ci3mNY0iFmhADnFq8gohPMRGkf+MAHwpKh9ExaFaEDS6eb/Dq/bp3+612C9/4i//nEayVaJIbjD5JM8MaPRqzzXc2Pkvv27VsXrsBIiosXL4b7OD80kTZ+plx73MPjj5l79uwJ2+PoC4Qw93quS65JrsN8m8gP5OG7gR9GMX7A4rol/9jYWHhMhjo4z2KeQedVfr/jej9si+ki+XwYQhfBzv6yzgR48Zjk87JkPcaxhP40kbgd8mmA9fx2Ia6FBK8Qd4n8jTre6CV4dxb5cyAP8XlbXFwMnRg8cXSS43Dmfo+B2Nlsdm+I5wbbYxo6n3SG47uf6VA/8MADQXDRAY/pYt7oGYLN6hHXpv8aleC9v8h/Phxz1qNFolcTIYcg/frXvx7mWGD9ySeftA9+8IPhh6P858gPlT/60Y/sH//xH4PwJS3XE+UiYLkGH3zwwZCfvGwj3be+9a3woyaTGH7oQx8KwpVrNrYhwvcB5xIzrPNoAucU3xek47xiNBCPx/BcPtc4jyrEazzuXxTBkN/na517g9JQJ0IXwc3IJL6n+AGNfeOH2rjfm5Eva1A64kjT365BcUJcCwleIe4S+Zt5vIlL8O4sNvviJz5aXKcjQccmegvwKiCEOVfYlk8vdi7994f8OcS2OHySTi8zMOON4h7D5FRsi8RyBi1jWNwc/denBO/9Rf7z4ZizHi2ux3stgu4HP/iB/fEf/7F94xvfCKMl+L7+xV/8Rfv85z8fvLL8qEQ+ROhXvvIV+73f+70gRBGEcQQF20mHBxZR+su//MtBIJKOsikHoforv/Ir4XpFqObbwygghDfikvb80z/9U3gWn/awnWsd0Yzg5HGFX/iFXwh1UQfik7ZgzWYz7BvEH8Koi7YRHz22lBkNMcs20nH+ko94vp9effXVcF6TnwkYP/3pT4d7DemoK9ZJesrg3kM72U6eWH6j0Vj/jgP2m2sEi8cXywt2IW4ECV4h7hLc0COEuWlL8O4s8ufAIPq30+nIG52d+KwW6NzYuVzvXIrEc4QOJh3G2KnNi13Y7FwiXufZrdH/GUnw3l8MuoaIw/gMYhgRxmibv/mbv7FvfvOb9vrrrwdBxnBkPLz//t//+zBiAgEHP/nJT+wf/uEf7A/+4A+CkGRo8ZEjR4JARNTxWMHMzEw4Bz7xiU8Ejy4/bv7Jn/xJEKZ5wRuFMu2gTvLjOcZ++MMfhmsZjy7DownjTX7zzTfDj6O07zd+4zeCt5g62CfE8htvvBFEMmloE4L44YcfDkt+GKMtvKoMUc2+Uy+GsGUb+/PII4+EiRYBzzT7y7HhfH7ooYfsM5/5TPBek5ayOO/feuut0D7KYpQJgh9PN8OfgZnjaTvHj2NEe9k3ysMQ0NFTHU2IG0WCV4i7BF9YkfiFKsG788ifB9fjZtIKcaPc7D1F96Bbo//6leC9/+j/Xo7L+BkgzpjsjRnzf//3fz8IVX585PNj9A0i7Ld+67eCAOS7m3x4eBGAf/iHfxhmP0fAPvXUU+GzRkDyHDCTE5L//e9/fxBzeD+j4EUIIngpLy94Ebv0Gf7oj/7I/u7v/i4IRNIiLBm6jOBFxDILO+/Xhs997nOhfsrCS029eIUZlh0FL8KVMp555pmwH9TDcOkvf/nLQawicjkOMYyQ/tjHPhbSI0j5IeAv//Ivg1DluODh/bmf+zn7+Z//+fBDAMeDV6DhBab97Atinv4Ogv/RRx8NbUXAI55pXxS88Xgg2vlxgXzUAWzXtSJulLzg1fgAIYS4w8Qv6Rsxhm3JZLfbBp1r1zIhtivXO8cRZwwXRlzybC4CFG8oApbHAhDDCNg4pDiWRRjwSJIOjybiEAGHFxXxi9hkpEV/nlhOf9sQnXhIEa4IQsp5/PHHg2hEDCIKGcaM0PzkJz8ZBCliFoFI+/DYIiYxBC0ClqHUiPnvfOc74VV4586dC2WzX3iyGTZNPGIVLzf5yI84RVRTLm1CCCOU4/Bl1hG3/MhDPjzL8dEc6qBsxDdL4jF+DKJsyiUN7WPiLzzDLBHocVi0EO+F4gc+8IH/1guHYRBCiDsHX2TcvPni4BdjhvXw5RSHRUXyX3hCCCG2JozkocOPcMIb9+EPfziInv57vO7595Z4/BGYPELC5xXfXY33ktFYeC4Rnog9Jpdi6C5eVH5QQrwh0vB44hFG8DGEGOGIsEToITQRorwSDK8lYhGhRxxeY4b60hfgPInQX8ArTFuom/4CQhcBjhCPjy0gpmkL22kn8bTp29/+dhjOzP4hiDG8p0wuhThF6CLKOScRrAhhBC3PFSOi2W+GTpOWOhDveKdJD4hbhkXTJoY00y72DcHPkG48uXib6evQXrzdHDfSEEaQc7xIi8f54x//+FWeZ16dFo8Jxxl0rYgb5Y//+E96IXl4hRBCCCHEDgcvImIXIRY9oYgsxC2iEBGIkCMdgjgO9817HxHMCFNEJmKZH7cRkXiEEYwnT54MQ5ERjlHAXQvK5sdxyiU9ZSAcEYAIPwxxiyikjQw9RsySB48tXlO2U++nPvWpMLEUQpahxYhOxDv7gaCNdVAOohbPMZ5kvMgITzzXlEv9iGCeEcbjjFjnRwEEO/UTh4BlPxHDCHqOKz/+YBxf1oknLceUuvHmIqAR+dTB8c7vK0jsipshf7ZI8AohhBBCiB0LwjIKXkQsw5kRiwg8RBpeVjyRCEMMby4iFg8pYi2WAQhMxCFiDYGKYMbDiWcXzyXiEzGHeMuL5UHEdlEHbUEsIghpZ4TtbGNYMW3Fc0w6xCzeWgQw4hRvK4bnlGHRiFNAaJIXaDtCmPSIXtLSXkQt+0Kb8e7SftIhWtk/vMuURxraShtoF+kJR7FLuzGENaIfYYxXmnWOOZ5shlLHYxvF8fWOkxDXQ4JXCCGEEELsWKL4RGDhZeS5VYbb4qllgqbf/d3ftf/+3/97mDiKocoMWcbLiyjOC1DEIEN4//W//tf2n//zf7b/+l//q/2X//Jf7D/9p/9k/+pf/avgLUUoIoijUGWJ4KMNeREc4xHOgIDluViGyCPKY1rEKmKcYdNf+9rXQtvZTlui8CZMWizWAzEOqAtvasyHsY4RZns+fywjLgHxzDDtP/uzPwtDuRHcDKFmyDMCGnEcy0Q0M3z5137t1+yXfumXwnaOI8eXCcD+9m//Njzji8dcolfcKvHslOAVQgghhBA7irxwwxBVeG8RjHgbEWsIMwQlIhjhhUBF+BHHM7IIUPLEeDykDAlmiC9CD48uhgjGaxqflyUd6bF8G6IAjeKOdAxXRiiSD2HLpE94QakbTyiv9eFZYd4VzIzHbEN40nbELu1jAigEOkvEOnmikGRIMelie2LbaE9+HWgXHtzYRsJ4bqmP8hgeTbsQrbQN4U074j6TPuYH4hnWzNBnJgVDAONRBn5MwPgcyAMxnxA3iwSvEEIIIYTYcUShCYhWhtHi1WUIM8N147BelkzIxJBgnk1FhMbZmskTBS+GeIzP/eLNjYawRODFOmP6WD/LKCQjbGdIMkOKGTJMPQhehG00hO5Xv/rV8MwwYhZRzDDi+FwvgpR94jVBpMfzyszIeIoZgky5tC22C/LL/nAUn7QN2P/oEUdQU398Bprjg9DmxwGEK95w9oElYph08RhyvHlWOE5UFYdCswSJXXHTZKduQLM0C3EX4cuCG71maRZCiO0PHXbN0nx/E0Vm9IQiCgnzfOlv/uZv2i/+4i/aZz/72TDpE0OS+c5GvOEd5TNFAPM5x9fsMAsxcbyPl6HAfLZYFGwIRfLHZ1ZJg6BFUCNAo0c1pmc9ij76DwjJH/3oR+tiF/HKM8XxlUVMNkXdiG7EKQIUjy79DkQvQ58RxjxDyyzMDDcmL/uMd5i2ItAR+uwfwp79og2kQ/TTZkQqs1Lj0cXYJ6Bvg4eXNrF/hKMnnPYz4RUim+PHLNJ/9Vd/ZX/9138d9oW2kZ595/jTNry/1Bt/HNC1Im6UP/6TbJZmzhgJXiHuItyoJXiFEGJnIMG7NUBg8YwsnxWiF48nsw7zmhzEK6/64fuad+viieRZXz5PhBhDcBFjxCECGc5Mnjizcb9QY8l5wTBgxCjikn4A+SgbgRuJ+aiLNlE/5dGPQIASRiQjshGHiF0EKZ5d4imPfUP4xompiGd/GD6MgKf9cZ/Yf56tZTvxtCWew+TjGCDM8ToD+wB4tRHtDNtGzNI+6qXdrBOPCCcfAhbRS1nUiRBGVNNGjhdCHLH9/ve/PwxzZkIs2ifBK26WKHhBgleIuwg3agleIYTYGUjwbh0QX4hCvqMRfAhehjIjahFccfInDGGGeEOM4YlEDBJHGsQucYhOPnOEWoTPGcO7iQHij/oQrVEgIxZJF/NSPuWRFuGL9zYKZYQpzwjzqiEEIuXQXtpJWtqJiCVMfoQ16RG7zByNiEbYUidGv4T2kJb2R8Ec62ffKIs6MARq9GojhmkT7SOecvAi8xwzQpx28EMA8aTj2BJHOZSBKKYM0rMvUSTnxS4mxI0QBG/vdCl84QtfWB8U/zu/8zu9kBDidsAXRSR+gfFr5pe+9KXQEeKLgC8pvjTz6IYuhBBbj/w9H5jsiOGgL7zwQujUP/fcc0G89N/jdc+/98RnRhmai8BCfCLsEIN8PsQh/EjH86fRYxq9nfyITTyil8+YzzsKtXhexDBiF4Ed6yItP3zHumJ/IUK9xLGkD4E3GmHOOuloKyKTMuIPKjE99bBftI16Y3raTTupn7TsF2WznTIoizD7RTxpEMDko52URXwsl/2O+xCPD3mJx6iHOMpmf4ljezzmcV8wttM2yiNfPI6YEDfKf/iP/zEL+OUnwSvEHYQviAhhbtYSvEIIsT3J3/NBgnfrwGeHRVEYLRLDMV20fJq4nrd8fIR16K8rnyZPTM92hCEGxMeyEZoIw35impgHNqsvpunf1h+PxTJZ5rdBrBOLYhVITzjfTtLE4xCJZcW4fFiIGyUveN99ZQghhBBCCLGDQFAhxPBA4smMAjJaFF2E2UaamDZaf958nhiO69hm6fstpidMWvJhcRg1S+L782Hky+fprzNvcT/6t/XHx3KJ6y8Ti/G0Kx8f0+XLJp50sZx8WTEN9Qlxy/jpI8ErhBBCCCGEEGJbIsErhBBCCCGEEGJbIsErhBBCCCGEEGJbIsErhBBCCCGEEGJbIsErhBBCCCGEEGJbsi54NQOaEEIIIYQQQojtRBC8ErtCCCGEEEIIIbYbicSuEEIIIYQQQojtw4bG1TO8QgghhBBCCCG2JRK8QgghhBBCCCG2DZl/N/srwSuEEEIIIYQQYlsiwSuEEEIIIYQQYlsRvbwSvEIIIYQQQgghtiUSvEIIIYQQQgghtiUSvEIIIYQQQgghth0Ma5bgFUIIIYQQQgixLZHgFUIIIYQQQgixLZHgFUIIIYQQQgixLZHgFUIIIYQQQgixLZHgFUIIIYQQQgixLZHgFUIIIYQQQgixLZHgFUIIIYQQQgixLZHgFUIIIYQQQgixLZHgFUIIIYQQQgixLZHgFUIIIYQQQgixLZHgFUIIIYQQQgixfSj0lo4ErxBCCCGEEEKI7UVP9ErwCiGEEEIIIYTYlmxLwdvtdmW3yYQQQgghhBBiq7LtBG8UammaSrDdJPHYRYtxQgghhBBCCLHlKGhIsxBCCCGEEEKIbYoErxBCCCGEEEKIbYkErwho4LIQQgghhBBiu7E1BS/qrGc8YpoFs3/rkT16MVdZILdyvfitaDdDTP/uvBtb4rYQc9WKEEIIIYQQQtyfbF3Bm2bLEHSB2/FQ6v+63d4Gp+PWcmv2lm231DdhQSj3wuSI5qu9Mq+O35IW928zy6XthLhCZr7OUeh2/agGyyYAI084btnm7E9YCiGEEEIIIcT9x9YTvAisnqFtEWGI3Y7LtNTFWRC9YR2RW7A1t+WCm6+veNpVF3RracHqGOFovn3Nt9d9GS3EDbDVUI6H36sNKDvYoLSbWS/Pu9obtvk+XmUb6ULY02SWHQuMHwYQv/F4ZoKXHxMyDzpiOBO9/HGD3kIIIYQQQggh7ie2/DO8mQzr/Su4AHZruzVchC27XXGbcVV81pen3d7x8JmeEX7HRdtpz8u2bLv5tg17h7hovn6auJ4Rvh0Wy7vVMkO+fDvdTvuxCft2lfXS5fJhZ/04XPRjcLnQtcVCwVb9+DX9YKYeNozj7PkwT7ZBPiyEEEIIIYQQ9xmF3/7t316XLf/jf/yPXug+hta6SGPZdYHWcckevLoehg5eSle9S55mvuMirp3abKttK2ka4hNPRlJkXOp5O4kLOzcoenzR8/ErAKVRdj+Z8GMrZPluCbRkL9jPevE3QNCkIRBWr8YLitFZqLdG+W4MXk48UPTVim8a9uOwq1yyqUpikyWzUT9QFd9W9GPa5ah4ZZTAYSEGywSxW69ocTX59xgTLvjxWl5eti996Uu2trZmTzzxhH30ox+13bt391JlkE4IIcTWIn/Ph7m5OXvllVfshRdesFqtZs8995wNDQ296x6ve74QQtxevvCFL6BUAltP8IKL0rxXF7HLkFvkWwOx2zGbaaZ2Zq1pp1ebvmzYlXbXGLqc6WKXap6vHQRvEgQvXzWI3XIQvNlzrGlUxjluRoxeF/+C6/+Ky8q/mUpyZYRAPi97wXomWINoZceJSX2t23Gxm1rJtwz5pvFiwQ4PVezIaMUOu+319VFPXvEiOCahLl8UwkHMBG+BMvVFvSkSvEIIsXOQ4BVCiPuDLS94o9jNBF0GobaLr4VOwS42Unt1fs1emVuyn15ZtvO+vtQtWtOlne9yyOnJrF3MRG8QvC4ESy6WS76h5AmC4PVtkB2g9cPUx3v7ksq+4/Jl+J5tVtVAYuL+dvAUc8fL77jGRey6rPVjEPyzQfinVnQrBcHbtqqL39GkY4dqRXtoetSe2D1uj4xXbW+paKNeNsckfh93cZNTrwvfJEjh93YMtjMSvEIIsXOQ4BVCiPsDBC9wV+5Juq1FFLx4dVnLHLF4ZQu22unapXrb3lxYs5+5vb7csjPNxC60ynapVXFjWbKZVjHYbG8ZrJmtzzZLdtltlvV1y6038pbcunm73l3GzZa5WTs8zsufwXx9plHohYn3ffFjMdOu2EU/HheaZTvn+33a0/zMjxfH7c3FNT8GHVtz5Y90Dl/hue/x7MhvmBBCCCGEEELcb2w5wbshsnoyK6otX+KVXWmnNuOC952Vur3jywudxOaTmi0Xh2w1GbK1QtXqhYpb2ZqFUmZWtJaVrBXCJWv04oljPWwLVrZW1+PwFt8We3dZjfTq9etbvn19Rvkh7PvnaYN5OOxz0Y9BUvVjUrVlPz4Lfmwuu51rJ/bOWsfOLNVtrpnaaprNeB0Oc/4HaA/HQy+EEEIIIYQQ9xvIly3q4c2JrV6ABcJspdOxy82mzaWpLRaKtlqqWT2IOxd7SdfSokvlQscK3ZYlqcvBtGFlt1K3bsVuw+VgwxJfJr4sdn37Vebp+iTwezIvkzrydvPlv7uMYMT79rK1kelW8XU/Ch6ue7113/+6pYWmC9/U6uWCrVXKtloZsuVi1RZcGM+3u7bY9m1dF7yI257Y1agrIYQQQgghxFZhSwpeCM+NBhVWsK4vmT6p7baWdm3JRe+yL+sueFtJKbymKEk6Viu3bNdIYgfGinZkNLHjwwU7MWT2wFDXl11fT+0oNtINdny038yOD4y/D22k4MuiL8t2YqRkJ32/HxwxX6a+ntph3489w2ZjNT82xWy263aS+PEqB6lc7yZhODOvd0Lw4j3PvOo8h5r9WoIJIYQQQgghxP3Klpu0isby7C7LQrdriQtbxG7LVdhCUrAfLKzZ12aW7Fszq/bGWsFmOgjexIaKqU1VzI5MjNpksWBD3baV3QrW8fwu51BvYTKnxK1giZeX9GZvDnhd6wdqC8AxYacQp+HVQ13msE59b/1YuS0nJbucJnapZXZuqWnLrmqZs3mo2bIjpY49MZbYpw+N2/sna3ZyqGijvv9VL5Fpr/idIb4GKpuyav0oiT40aZUQQuwcNGmVEELcH8RJq2BLztLM0OWAf7EkrlXZgaZ/WcwnZt9fXLWvzi7Zd1zwvrlqYYIm17e2u5Ta8dGCPX14lx0aqtiUx9XIH3Knlvp6N3zhhIALO17bk8nGSDhQV3+X3bfQ8tB636eS7wezMTOtF57aRpLYotu5VsHeXOnYj84v2nlfLncSq3S6drjStSfHi/Zzh8bs6cmKPTCU2JiXUfO8RS8lE7jZgdCX9LWR4BVCiJ2DBK8QQtwfbHnBi2iLwhMPL2IVD++8L7/ngvcfELyzq/bWStfmG0Wr+hfQgVLbHnHB+/MP7reTYzXb44JvyPMjbPmaobhgvsKSsd54M6/CN/Sq3RIgcaHojS76McDDG48V3vBTTbOXFlv21bfn7c2ljs13iuFdxIeqZk+M+7E6NOqCt2oPDhdd8KZW9fI2BK+fPHyxezlicyR4hRBi5yDBK4QQ9wd5wbsln+HNXkOEEcis58/0bxtCSRi6y9dOeANt2rFKu23Dnbbt9kQHfa+PlLp2yO1wqeDhxI4XN+xYyexo2ePLSbCjPcuH73ejrcfKvh++L4d9edDXD5aLvr++zff5qAvVQ34s9roNp90gdMOz0P6ly5DxjgvcrsdnR7N3vPki732Zh2Md/gghhBBCCCHE/cmWFbxBzbqlBVdqwTJhlvi/MCC5UPQ4D7uAy3QZy8QqnqfqGauFtpWTlpVZurirdMxqwbpWw5tJXFh2fZlZyLdFrOaytdbthGeV2Y+SHyPXub6/vv++L8N+HIZ8WXbjF+mOC+BOqRSWeIHX33EcjimWHcdw7J2wVb9ICyGEEEIIIe5jtqTghUxquezqaa7Mwxu9kfh1fQNiN2xnmU1EVQyWDVfOUpGnG4Y2J14c4WhZmq1qG/uB9Q5TWGb7trF/EI5Ewdf8+DCsO+BLgkjd4EjPYoUQQgghhBBiSxD1zrYgE2Q9T2QIZ4R1F3KZbWyL6bIcpMnHZeTXt6zxpxfOLyNhe97AlzEIuWghhBBCCCGEuI/ZUC3bSvBek25vLK7D7kcLf8NKtnZVeDvQU7NhQozsf++PEEIIIYQQQmxXMtGzIwRveN4UC8+rZuHsAGQe33WuCm8fVdjTutnubfzJWD8eGeu/C+SXHLdsTQghhBBCCCHub9blDg+77giCasuJ3au5SgNGj2i2toXxPfB9CZ7duBr2Ku5ZthwoZIPq3diShfgb82asi2MhhBBCCCGEuA/ZOUOakXs36bXdeO53Cxrtz3bjhnh3Dg97OcHy9K8LIYQQQgghxP1GT7bsIMHrrGu1HSDapEuFEEIIIYQQO5C8FNpZglcIIYQQQgghxLYniF7/I8ErhBBCCCGEEGJbsiMEr+ZWysHBiAckhq86QFet5NAYaSGEEEIIIcTWAQWzYzy879J1PTgI61KuF9gs7dblxsRqoX/PrzoIVx0p35Sl3V7HSQghhBBCCLGd2DlDmvs0HzseJVxeym0fAde/Z3EJ+birLfvbtcQPxMbMzf3GRhe7btvpiAkhhBBCCCG2FzvyGV4kW1zGsIh0rzom7zo+uYMm/64QQgghhBDifmZHCl5xfXK6VgghhBBCCCG2JBK8QgghhBBCCCG2JRK8QgghhBBCCCG2JUHwFgqFYEIIIYQQQgghxHYhkdAVQgghhBBCCLEd0ZBmIYQQQgghhBDbEgleIYQQQgghhBDbEgleIYQQQgghhBDbEglekaPbW27O9VOIQXS7G0cuH4b+dSGEEEIIIcTtQYJ3h7M+ZZmLruvprrCZP9Jnt0wUtxK9QgghhBBC3HkkeHcicWZuFr1gT4YF4cW/3uq6FfwPFtLwrxfPMuSRDbQ88fVf/fH960IIIYQQQojbgwTvTmPAa6jeFYOI7f0LK/wlDhHHeojeWEZxJ9vcIE3TYEIIIYQQQoi7gwSvyFHYEL89kRYJ2rYXcAnXW8+W4sZA7A4SwkIIIYQQQog7gwSvCMTRzXHYbZIkVkiycBTBhOJ2/x8ysNyIk/VbBHHLMY0mhBBCCCGEuPOo5y0Cmcd2AwRap92xZrNl9UbTGo2G7D1as5kdx3q9bp1ORx5eIYQQQggh7jCFZ599dr3X/fzzz/dC9zm9xyC7Hugm2UrHCrbo+v27Cy37yuVV+9rlZTu92rHlhlm11bZDpY49NVa033j4gD01UbUDpdTKhdRKnidJi1ZIM+2fFrxULxPnnG8JXs2tiX+s3ezY+N74fvneBFWbDUNe8T9vNLrheP3Rm3P2k9WCzRSqVk6bdrDYskeqbfvwRNEe9uN20Fo2mnas7DmTcDj8GPlx4l+R30zWzyAxiChs8fgSXl1dtT//8z+3crlsH/zgB+0DH/iA7d69ez1NfimEEGLr0P9D5tzcnL3yyiv2wgsvWK1Ws+eee86GhobedY/XPV8IIW4vv/3bv90LSfDuTMHrtuJx7xa8FRe8LduTrtrh9oLtmTtjQxdPWfnSWas16lZ00ZsgdP2QdHuCN/GVrXuM7jwcazoyDGMmjOHdnZ2dtUcffdR+6Zd+yR577DEbHx8P6cNQck+vzo8QQmw9JHiFEOL+QIJXgneg4L1kLni7TdtndTveXbETrXnbvThrY4uXbajd9G2U5ATRi9z1Y4T6FTdEnKE5dmyOHj1qTz75pO3duzd0gECCVwghti4SvEIIcX8gwSvBe7XgfcsF74oFwVtKW36sWvZotWMfnSzZI5XUjhTaNurllT174ssodjk0heDhFZvBsY4doCh4i8WilUolGx4etpGRkTC0mbi80M2HhRBCbA0keIUQ4v5AgleC9xqCt+nHqm1PDJt9+sCoPT1esQdrRRvrCV6ORhC84bB0XfByjMRmxM4PyyhiMdbz3twYjsR4IYQQWwcJXiGEuD/IC95M5e0Ect9BV38dXY+gEre4waB4zP+GRfZlG4UZHsdisWTlcsWq1eq7rVK1yqB42UCjoxPDlUp2TPHycpwRu5H+zpIQQgghhBDi1tkZgtc1RMH/FFxMRJnna5nECwIjM/4VCoQjG9sG2/3I1e0Lf9f3ib0mnPrfjWPBccCCr7aXNIgwXw0/Ovf/Et37M2CT6ONav9rHbSz1674QQgghhBC3nx0heHnuNOmmvkxdXWRCDwopApA4hkZ7bBjz20sfUiEM76xl47NvzAbl39z8L/uF+b+wn8E6vr9Yb1tPDHMiBHPdxQ8DacogcVZChFsWTDxBiHLL4rLhuLLB1n984noUuflw/7oQQgghhBDivbEjBG/w7oYQUtBln69kMQR6WxDCvSiXHSE+84feOQuV3aQNKmdzy6R7zMtf/mRSPrOYNu580FkhYU/kEuwnxGdCWVybfuEa168laCV2hRBCCCGEuD3sCMGLPAMmb+p4MEzi5OtB6PWs6yIjWFzvicVrW5b+VizWeys2qLwN22hfz2eby+vxUcj7vqbBOA759KTLCKGNVXGLIGCj5cnH500IIYQQQghxe0Dh7AjWBZ4ruMzLm4lDK2CIjJxFb6cv75SFOm7RBpU32JJghgVl62ZF328sCuTsOGSCl+2YEEIIIYQQQmx9UDk7Cp5nfddgXCIYwdsz4DnWvCS8UxYqZuKs61kv7aAyNjXPh/FociZjo6BF4G6I25A27DgJWQohhBBCCCHE1meHCN4o5vDv9sJO8PWGd9X2BGJvWxSKd1r0hnZ4HWF5PbvZtrwrfaZlMz0b/mTLkI4JqjLb2CaEEEIIIYQQW5sdJHizWZoz/ybCD6EXBje7IfZiOGeI4Zu1QeVcy1yE37ANqm9Tc/GaYoR9X90ycX11OkRuYm1Lui1P0+4J4ozwTtiQRwghhBBCCCG2HjtD8BYK2WRA4Vld13A947HW1BVex9faPSPc6cV1XGR2XCDeuPXy3TEbVOcm5vvAvgXzvNm+hpcSZeHeMeBv14UuFkSwr/cOk5OlWF8VQgghhBBCiC3EDvHwFqxbwL9bdMGXDdxtu4prexhruTV9PTMP+/aWh4m/Obu5PM2bspttT28fMf+Uw/70luxzx/czzFjtcUEQI3yDJ9kzCiGEEEIIIcQ2YEcI3mzQbsnFXtkaLnzrLvbWXNmtFUq26nFrbqu+fdUF8YpvX02Kbr5+K1YoennXN9LdnA2o6xq2FpaeL0myffJ9zszX/Xis+v7XPczxaBWLlrqZpwcNYhZCCCGEEEJsB7aN4N0QaR6KKyGYeXebCNpu2Zbaic03zeYaXZttpHbZbbbVtRm3Szmbafr2mzTyDLJLAyzE99UZjbZsZrR1UN2DbKaZBpttdTyvh90uY+3U5nx5pd215Y5ZI/wYULK2nw68rmkzOKwbx1kIIYQQQtwvxH5avwmx0yk8++yz69fC888/3wvd5zDfUi/QTRiMm007teSC7XsLTXthds2+Nrtsp1ZTW2wWrJwmNlUyOzJctI8cmbQTQ0Xb3e3YEL7fMKy3YG0XeqFMX/cifVG47q8BmTTMXnMUzMsIcb7SC/W2bixjLsjyZOFsLVuJf3st6m1BunvbNjIMZKOW+MZh4hD9ni/k5Vlgs1UPnm0X7DU/Rt88t2Sn1gq22C1ZtduwI6WOPTVSsH92cMI+MFWzB4dLNtLtWtnzJF5WoRAGQIe6EisSQzVCCCHEjiZM9phjbm7OXnnlFXvhhResVqvZc889Z0NDQ9m8Ijn614W4cTb6irEHOQidYWKn8du//du9kJ//W1Hwxu8TnjxFfCHreC4VwfujhZZ9/dKqfW1m2d5YNbvcLrmodcFW6NiuYmrHJoZtd9FsLG27EG55DhdvTFLFs6zxbuDlF7qJi0vkXRYRxWecxhjtmGlPz+sNCuHE05PPBXaBh2N9G8/Fpl43dYTCfHu87YQ5o8P2TDyGIqiz6yKy9zgtorWbMGWVt8ETFXtt6jUjhCO9qF67PB+zLiNvC7x3N3v3bpiX2b9YG8WiXfGyLrrofXu5ZXOdbKh1OW3asVJqTw8n9lkXvO+frNoDLniHvEElL5Xv5MT3NwrwggveECmEEELscCR4BfSfB7eGnxP5YsIpko+4OpzvmfWTxWRb7wU6v8W9wDXu+rW4pQVvdrFngrflF9Oyi7qXF5v27dk1++r5RXvNBe+FTsVaScnKrhCHXDhOlEs27NmqacdKLnoRvFF0ZjMaZyA6kxTvJWS3kbBEaXoksyCHfx5mSRyezqLnSVw8FtxoG+7itNjxsnsKNgjanuj1bIjZOJMy/tKkVy/CN+R3Kd9NWr3toQbP78usykD+RpK1B+t4mjhFl9MTvesvInLBi8Bd9noW26nVPQ4hXGrV7YQL3mdGSva5Q1P2tAveoy5+K15h0cumVcUgeLNw9tfXNpoghBBC7EgkeMXtEbtOKCZ/XsSOXyw/v4yCN3NuRLJQ/JvfcnfR+S3uBQhe4Jrc4oKXCxjB2w0zGS/7BfXaSse+P7dm//jOvL260rUznbKtFMuWJi4mXbThpXT96aIydeGG9PODEARnJnrxxIahyYjdIHjjDYJllhZRySuLkKOEiaOcYoq5WG2Xe4LXG+qVdYuetjf0OhOrCFqWiOxsWyag8QyXvF2lzNPrYjf1PesmTU/n8hfR2i1TytWCN/yhIWE1tIu/SFtEL8O2PYfnRfBm1k2K1vbyOALM1kxe9qHSWLaT5a59aLxinzsybU9MVO1ANbFy4q3rVYHgpXUe5RGZ7A0bhBBCiB2MBK+4bYIXQlGcG70y6fyFcKxjI77r/cqsp9pzRKz/hdALzK3fXXR+i3tBFLzQUytbiyD2MJRdUJ1cytmFXC0nNjZcsuFqarVSwyrJmpWKrSA6m8XE1lygrfhyuVyypUrFFsoVu1JyK1dtsVwLthSWFVuslHx72RZKviyxLIe05Fmq1Gy5ig1lS+J8+1LR83meRcquVD1tzfN5eUVP47bUs+WkZiuFmq0WKrZiboWqrSTVkH/BBfqitw9bLhdtpeRt9uUS5dIe2uzlX2Hp6/OYt3G+mNkVD2Mh3vdrvpTZgpe9lJS9rpKtuehuubDu+LKLwHahXumkNtFp2u6kY/tqRZuuJDZSLFjZj62n2rjPSuQKIYQQQtxZ1ju8vXDohPUsjBxkyTpJMudL0k3XrRCM/punyZIFCEYTYiewJQVvIHe1ch9gR/DeDrtAm66V7MjEkB0ZKdn+Utt2des23qnbcLtuQz2rtRpuTau1W1brdHyZWrXdcetahbDHVTtsc0vbvmz7es/aPQvrLSt7uJDirS1YM0ms4aJzzcVvHXOR2XAB23Sh2UhKbh7ntoZ5fD1he9W3V1yQu3mehovVuovypu8Unl+82Ay/jvWHNq2br7MPblXM41iWvf2ltNO74eF5poyOld2yMtp+HBqZteo22lqz6U7DjpYLdnK0YsfHh2y6WvTjaWE4eNGPMx5dfiPM7pDh7ktgfSGEEEIIIW4HjPzjHyMEo8V/V3WDg2XQZ8z6jdny6nUhdipbV/Dm8WuYX7XwRI74Hu2pJPbw5Ig9Njlsj7piO1nq2PFC04513axlR7utED7iy6PWsSNYoWOHPf9hvykccjvs68QdTTaWR5PUjhZSX3fr5TtsbTvQ7diU56mExhSsw6zPpcStZG0Xv+0Cw4fdbMNaSdEFLlYKzxiTruPLNBhDjbNf6oZcZU652tzrdrDXptCeqyxrU1h6Owgf9vYedKG63wXrfs+LHaCMYmoH/XgcLLU9jDWDHS627Hg5tcfHq/aoH7sTE7Xg4a0FscsvhhiiNxO64Qab07xCCCGEEOJ2EGVtFl4fzrge927ilquFbl7sXju/ENuZrfsMb2x1N45p7oZXC634Zb3gSmyundr5lZadXa7bpeWmrbS61gyjP3j+1VWaZ9m4HfB8rN8SQrSvu7Ijll8D0HPhWVXCLEnjacO8yR5B7U1ff7vettdW2zbbLNhaoWqdUs23u9oMjeVZWk9JuOsyliHBnifg4pRas8I9nmCaWrnTDLNKH6p17eio2aQXVesUrJQmniprf2wfK+TGepvCc7kIbyaiIi4KVqrBGx3ykJn0blVPO+Ei/fhIxY6Nlu3wSMmmPfFwEPKkL4Z2h6MSCvH/WPgnhBBCCD3DK27PM7xR8NLf6iuvt5qG/q/3wcKp0+uLkTwkYM2NxXp2+m8ssxSREHUbifufP6d1fot7Qf4Z3i0peLnEuVppOEKOGC5f4lseariCa/iFveSid6HVseVG28Vu6jeH3kXI5e1pgtT0JQKWcFjnmuxdlz15F1Z7Gs9jMmGcpc/qrHvcjxYa9o3Zur2x2LArxnBm3vKLSKQ2hhQjej1xyJ8Y7/5FWPdqXd+WuBgteVuHGV5cMXt0rGgfODAcJo4a8xRlb2BsC20LhLxZ2wkGI9y7wfA3WC8dKbJafcm++8aSWzVJbLpctKlK4uLXbLjb8fqY3Is8TMIVxXomlimevaNsIYQQYqcjwStu36RV9LWyCU8Jr+PBjTU/b/LVeTicSrk0rGbnl/fXcucZfcBsbSPuvZLf93xdOr/FvWBbCN5MsGUzBiMog2R1sRhnqUNU8lKetqfJvLEuihNyxZuAp4tpCXtMKLN3TbLItiKqM1GH5etmiSd1zVe+OdOwvz67Yj+aWbTznaItlWrWLJQ9E7NDu6DsCd5QH0OWXTcyOzORYUKBXuUlD/P88GTasIdrBfvAVMU+e2LKjo+WbNwFMs8pr4twLNuZ0B7KzpYb29HUwbPrYQjbfQXjhUX5/QHmpWZoeMUbVGGGZ29P0OXdnuANonejUPzNQgghhPCvylyHHyR4dx63Knj7zwFcE/Gp3TyhePqldC5DmP/0f9kW48NKMMolLmEZSoBexsDt68cNErw6t8W9Ii94t7xaCeKNZe8yRvIh0nhFUNmt5jaMx7TbtqFuy4asacPW6lnbRnw56jbi4TG38d5y1NMF6zZ9W2bDnn/ELYsjH+k6bqlN+s1kd6lkY35hV2mDx+EMzY7wxg2AcKZtPS4o4Ezsoh/Xn5X1iKpHjJS6NuU27XkmfT/GfT9GXYSOeJ1YFm6vt2uEdsX2+nK049b2eLfhVmaER9pZ/HinZRMp1rRJzz9BeV2Errc9bVvq6+F2Gw4tfzaEf9ilcGPDhBBCCCHErYJYjMaIxI3eVex5YVnHMjg4vHOWunVSX6aJLxPvERas5Rl5nA3nCtZ1c9Xp+SKegP4bFWxUIsS2ZssK3sz7ml2pUfTG4bnMbMw7dYP31PeQH7vwXBZ9d4vdolviwtLDnqfomUtuZU/OG25ZVoIRhyVhybOzWTrSF11MZ/HZNrOhpGij5bLVil6+t4P2AMOKudmEYcwe7oSbDzceGs0Q5sSb6ULS6+HjQAzjee2WClaplWxkpGrVUmIVT077aAP1BfNKSr7DJc+LZW3Nwuwrv+b1qsludm78wysb9r9nZV/P8sf9Q7BzTLMbbvCAU0bEI/PHXwghhBBC3Bp5sYshSMPCe1obPa7MQseOcOyC+Wrq4Vana41WamtY28O+jgAOo/lCWVjMBL1wPkqIbcoWFbwbl3y8UhFkmdhloibCLnoTv7SDeQKUb7cUjPfOhiG6YQNTQAUJGETghrlk7FkhZZnFFfLxwbL8xULRqsWSFYtlryq8tdbrpIXcoIrenqK3qxSWiF+ehY35Q1leRkjny9D+oovQoYoNjdYsKbpM9bhQk+8oIjkI5SCWe+H19vTaFuv0cq42bxvtw5hUK8j+UkiftSU7KWg5lQbBHo3YeGNcv0ESWF8RQgghhBADGdBnGtCFWk+F8GUZiH3KzDreH2x7x7fp4nal3ra5pYadn1u1M7PYml1YaNrCmm9rmTU8HZ7f+Ahf9vdGLWPQFmxT1hW5EPeeLSl4s0uexmeeyCDO+IuodWFWYPgGnlQPI4IzsebrLugQlNwouOhjOPNeZiUGAesCkoykjzWE531Tv/FgvRtQ8Ni6hSEkvt70Ja8fQmhmbemJyU7JEiz1MOaCNHsmlrAL5LTshVW8XBfj5MFLXCpaKRhi1P95exDdmcD2f70bSWhHwn7SlsyTvC60e+v5YS14lzNPuG/3cDBPS/pw7MKCJUYbPU+oig1htZcmWxVCCCGEENci9NYyC2/tcMPt2ouij+cdM4/3PhlGFt+AfzbxHmah2/EsHUvT1IVu9taR1aaZ61s7M5/ay++s2jdevGR/9a1T9ocvvG5/9s1T9sKPLtmPz9Tt1JXUZhtmi+2C1T1fGEXolvWEfa1ADNb2Dd6b7bLEPM7bSZ+318x8k68yysvaHOmt0YHs9VeFuJeg5rYcCL4YytY2/vXkoP/LtuKxDKn9TxC2BRerYbhzdpF3C22/LLnQMwkcL9IoilmL+Sism6R+T0qt5Ueu4fF+r7FlXy745vlO11Y8R9PX0czUEyjaOI4AAE2gSURBVCakIiuC1Y1wdvFnojnU46I0CHLDM4woN2ulbWt0Om6ptT1hmHzLl9kEBr12F1peT8c63qa2ty2YV+C3w5Am8ZsVryAK9XubMIRqXq3G1RjOlhxHvL3hb1hbTxcDQVhz+sRIIYQQQggxiNjzC70/ViCLDJb1D2MkC8Sm9zl7Qhex2fIO4nK9azMLbXvzQt1++PoV+/pPLtk//uSifePVK/bdN+r2g7c79r03Gvatny3ZP/xkxr720ox997V5++n5VTvr+eY9/6p3KpveJ217fzSbrcX/InDpgeYEL/XTnqhbWcss7gn/srjQ6tihDNDDDbFC3HO2pOCFKGuv+ufXFcso0TbEb0+UxYUL1szi0w2ZQEQqcunyN7t4NwSvaz/j2WBmV266sFzz8JJvnfc7wKzfiC622nap2bJFDze8bIZTZ7+YZe/gzTyyXmq4efRuKr5k6DXlB48r9RD2cuvtli03m7bQaNmS3+UQ1nXfhqDFELkdxK6L9hYCvBff9rDHekHU27Gi17c+GZbvT3YsOAY9I+wWxXBmpMrEbvjHej5xsPyKEEIIIYQYROhLBqNfmfX3IKyFPiL9w14/sZeSvwjSpnfp6q4/VxpdW1hJ7fzlur1+dsl+/MYV+9ZLl+xrP7lg33511n5yes3emDE7c6Vqb88m9vI7Tfv2K5ft6y9esm+46P2n1+ft5TNLvq1hMyteVrNga2liTW9MmOiK2r2+8I+2hPZkS+9eZs0CVrz9YR+CZevreDjblM8kxL1lywreftavuwG2frn51RmGBvsFHj2u6NIgRj0hFzveWQyPqmvXzLvKzcATNJOirRaKtuzLeV+/4EL0VLNtP1uq2xsLy3ZmcdEW2g1rBCHrstUNL3KaZJ7YNGlbWmy5ePbSk6Zva3i44fFNX7Y8zltQ9BtNsWB1r3+m0bS3llftjUbbznpd8/5pLSWJrXn99ULJ1gzzsH+MYTi1Wyacs5tptvRMQaxmtx7wtXWDuAxHqreSSeONf/y/ygLrASGEEEIIMRBGDTJHSzT6a97fS7yvSP+wQL+Qnqdbl2HMXe97ev+uW7GVbtUurRTsrUtNe+ntZfu2C9h//N5p+8aPTtuLb162UzN1m10r2Wqn4r3PiuflsbmStTtFW6l7X/Vyw159e96+8cN37Cvfe8f+8UcX7Uenvd86Z3be8y20i96XLHvft2KNpGItX6aFshuPtWVzzOAwCWveX8aBku1NZiGMaA+9TLZFruowCnFPKX7wgx/8b72wff7zn++FthdR6HHhofCzH6Oyf1yaLb+MV138LrlKXPDloi9XPM2q27Lbkl/cC65dL3e6NuMK+Hyra+80OvbGStN+urBmr8wu2WtX6nbWMyx6ukZSso6LUp7hDc/cennB4RsqduP9u+EmwY3DV307syWHdKGVxKVWZBhLC2+ti21f8CvcirdhybMve6pFz7PktugCftnbvepp1kgXnvHIbjuF3tDj+B60+ENcb9XxiB4bce8m5hdCCCHEjbG2tmazs7P29ttvhzk5PvzhD1u5XH7Xd6q+Y7c/9LYyOYjRGcMp4qI3OEhYuhD2bUxG1ewktsDQZe/wnbnctp+dXrRX3pr35RV77cxSELkXl82u1EveL6xaw4ZcILtQ7Zatm2YToHov0q1kTdfQa82urTa6YTj0lZXU5rzcK6ttW/G+bKPTDs8Etz19kNqxz8jS1+mXZi2nzVknMvRfe3uCxb5kSJMFnd5WL0vnt7gX/Omf/mkvtAMFb3atsvTL0i/All+yKy4WZ/xqv+B2rpXaRRe1sy5q5zw8207tkocv+M3iTL1tp9ba9pbfJF5bbturVxr26tyq/XRuxc6tujDulK2elK3FbMy+5Be2OIsyrz+Kl7sHs3sANwxfKYbtfmPxJe0iATeS1Ouv11u25vWvuC36TWuu4Tcqb99cp+AC3Lx9hWCXW2bz3v4Fv3ktuzpu8rCH11BKvPwgeik3VJtZr/5wD4q2sXgXulkJIYQQN4cEr+gn63dFsRsnhGLS08TFp/dJW4UwdPnsXNPevFi3n55ZtZffnLdXXfC+dd77m1faNrdWdKFbs7XukDULw9ZKai6Umfy06MbDetkEqt2kai0vs9kpWist22ozcaHr/dy5hs0vt2xxteVCuBH6mU3vg2a+Ze+vJpnoxRJvI48B0uYgaL39mdjdkO+Z+Xrw/rKWk8P81/kt7gF5wVt49tln1/Xg888/3wttTcIzBwPgZgJsDkOYCbu5TnSRanbJBeJPr6zYqZWmC9u2NUp+0/AbD/94noGhzS1frvi2JU+76EIUbzBe1WUXnsx610qLfrMpWtNvEi23Tm+G4+C19e1FF6AM+2CocxqGsGQ3D4Rw4jciZnDmRpUNSaZ1LSt3m1ZzG/VGj3n6cb9/jJULNlYruZWtWikFMcvNJel0rZx2rNpp2VixY4dqiR0fLdsDYzUb93RlbxMpuQXRsnDT6pHVl7Ehy28M3cSEEEKIjP5+yNzcnL3yyiv2wgsvWK1Ws+eee86Ghobe9d2p79LtQ3iTh1v+M81OC48P/7xfSl/QQ/RPW94PzMzF6HJqs/MNu3Bp2d46t2ynLq7ZxSsdW17rBC8twrXp/c1Wl5GE1eCVxZj8NI4SLMZqqZ9w12tKGSrd9u1BCnuajg2XUxuttm18uGX7poft4J4xO7J/3A7uqtn+ybLtGkts2DuMVW9rqdDy/nMmZguFsv9lLzKBuwFhr9Dbkb32kiV/yRMSCHFXcY3bC+0YD2/vguRXKsJ+4SEsee510aMvuIB9ZW7NXp5ftVcXG3a6gTc3tTNr7Q1b7djZ1dQu1M0uNhO73C7ZQqdsy92K1QvV4NXllUQdF5Zc6NQUBC/LcMX3WuH1shpEJkkC2S9qDBDJXiXEsx2Ztb28pseteqZFF9cLrtLn/b512dt8ydt4gTZ52y66XVpu2uxy3RbWml6B38hKie0eLttQyQW1l8U/bobxd7cM2pG1LUuxseVG0Je0EEIIMRh5eMU6QTBmMAiP+WHWOonNraV2fqFlb8/U7Wdnl+yVU0v26ulFe/3cmp253LHLSwVbbpas3qlYo4vIrXl/s2odF57IV/qVPL6WnUIuor0e+nTBYgB8mdXv6b3ujqvtZsusXi/Y6pr3MVc6trjUtKWVpq2stWyt0bJWh7I81/rMplkfN5QRSnOjkvV9y+Kyx+limhAU4q6z44Y0Z1e7X4xB8HrI/6RuvFZo0TddRPBeXgnP4b6x1LAZF5az7a7NNDs25zbfSG2+2bVFvzEsd5hEoGwNK1nLre3GcxKeJfPc9upBwoaZkcOD/PyGx50Gr262DLNEe+4wM1+IwzxZDPu9opv4jcut7eGW3zwaHtnouvj1LMu94ctXvG1XXPgSXnKhu1xvWKPVsiG/H+32PwdHazZSzgRvNvWAF00V1EWbaDH15Yg3qBtBX9JCCCHEYCR4dx7Rw5sndrlCj9A7oY22mXc3bdZF5juzdXvt3Iq9cnrJXj61aD87s2xvXazbzKL3Uetla6ZVawWhizGZVNn7bSUvjlKzPmcx6Xg/L+tXdjtMs9rrezIBVuiLkpq+adYW3DGsddKytTtVW2u6qF5t2/xi3RaW6i5867a0Sn+SV2PigMmmqGJumvhKyqyv6OXQj6X8cA73jPC6hf9C3HXygpezdkfApZ09W+AXplsYSJIXmX5TsLRtScdvDh2/UYRlFk7SjhV9W9mtlrqYdBvpNG20Xbfx9qqNtVd8fcnjF92WbLizaCPtRd++4PEeJs63DXdJw/YVGw55fJliyyF+qEv+nnUW3Ei/bFW3Srpm1W4zWCVtWskt4abWbpq1fdlBPGeWsB9BaCO/syEz8dZ79U2H2A3jnxBCCCGEeG/w7tx14evCj15Zq+PCslGw81c6LmxX7DsvztjXf3De7YJ996XLLnrX7J25gs03h2y5M2SNbs06haoLzqqLXB636wld75cW0oaVug3vE65a2fucVfqN3QUbLXq/M/F+ZMH7m4VVqxaYg7nhxhStCOOsv+cy2bpJxdJk2GXysNXTYVtoVO3sXOrtWLHvvTxrX//RefvqD8/bt16ctZdPr9rZK6ktebez4fsRXmeUsl8ugpmoNU/obMb+pRD3nh3xDG94fsH/IQAzYWfBI9soJGHip3fW2vbdM3P2yuVVO73Stka5FoYS4wkmMUM/gjbGuIrDL10ZpCHcKfJe3PD7V++Z3fjrl2/v3ehCeb04phTglzjA25y1Lg6BDtGBMKFBEOSJi1gmt+IZXMR71oKux2ElD1dciNf8BjjuN7WTExV7cs+ovW/vpE1Xy1bx/al62WVPh4eXXwKpKJTPksIcnvTN9jJr5/XQr9JCCCFERn8/RM/w7jyi0GXJ54pxViw3zOZXOnZ+rmGnLy3b6YsrdnpmxS4tdmyOiU+bRRe4PJNbCkOVux3vj6VF75XhVUVQZm4M+rT0Hxn3Vy60rZy0reg2OlS0keGiVSuJNZtMepraivdvm+3EhTZSNzy9633KbL4YepNG77GLhZ6s9w1xmDStVGhardSy0arZ+HBik6NlO7x3zI7vG7bje4t2YNeQTY9Vbajk/UrvRyLDqSHDyw59aOrITGe3uBfkn+HdGYI3zFgMmYcXiYeIbPnFuOhq81KjY69eXrLTi027WPf4Ir94IT57l2ovO0Ixk4Y9EeqWrfm635e6zIjsEUW/5hG82ZARl7bcs6h5fRgIWf3G4jcHBGcYDs0N0ZehWL/vkJLCKb/jFWcDUaIc7Yl38jAjH/G+j+Vuy6pp00b9ZnVguGRHJ/3GNDlho+VSEMQ1r58lbQwz7oUysn2hHkBUU4MErxBCCHFzSPCKTPB6P5PJSr3fFd4I0kntwmJqb12qh9cLvXV20c7OrNnskovSdjl7NrdQ8f5gJkaxAt4Q3t7hfbzQJwv/cawgXRGlDRsud2yk2rVhF6b7podsz1TNRkdKtrrasvmFul26vGKLq6mL7cTWXPQ2Uh7FK1unWM76j97nC/U4nLkF78cW0qx/iogupi3vM7ZcVHds72TVjuyu2EP7U3v0gWl74PCk7XYhXPNuI6IXwRv6pjQUwRsaTNk32qMU4vay4wQvP1xtXM7Zr1iZ59TCM7FLHpip+82hmc3azDt0uVDj7HOI0LDsXbHrXlfK82UmF7MbEkI3WNiUidggaH0b4VAuqb1sbgeUQzswboph2HWY0Xmj3rg9/CLHBvB04dczt1Cm5yn5jlZcSAfR68qW2Zkna0PBu0t7Kj3Bm92GKJxG0jZ+BMiQh1cIIYS4NSR4dxrRYZB9fvStotjtMCuU97t4Bna50bZXzjXtR28t2Q9fuWCX5ju2uJa4AK2G+WAYbIxThH5d6CtyHuGAwMPLkudzCy5C3cpJy6putVLD9k5U7MCuYTu0Z9QO7R22PdMVG3UFulZv29xC087NrNiZi0t2dnbVLi60bblZtLWuC+uE9/Z6fd65pK+Z9Ui9h5i4BX+IC1jqDM8AZwK4Wm7beLVuB8bm7f0P7bWnH9pvjx6Z9H5mwUUv6TMPb+jBej86HhH6qVlYiLvLzhO8ITrelLiSnSBUkb4Fa/oFv+bRDTemhg/eVt+WLy9crPGK9WUsjVBGJhK5cYQhw9yxsuhQY6g1Vwjpwo3Rw+Hm1ksO/UI7bPclorefTBpnIKKR6kW/OVU8cyUpWLXIq4sKoU0MXkHOYoFeBZncxXr7kCvzWugLWgghhNhAgncnkX3W2d/4+fla2gleXvQub+5Ya5vNLrftOz9bsu/9bNFeeXPBltZK1miXM2+r99WYoDR1wbhRlgtGxG4aBjSHocbFYtP7dC0bH+mGVwbtnyrboekhO+SC9+DuYZsaK9vocGJV16ytdmor9Y7NL7XswuVVO+eC98xs3S7Mt212qWtLzZKttcyavK3Ie4VhMizjOeGqR3gv0c/jMC+M95LpKfOsXsHbUCmu2URp3p44Omofemi3feLxvbZ/rGhjZU9PNs8RRiT6Cn3N2J/U6S3uBXnBuzNmaXZhF0Qjqo+Lj6syXIrZvMX8rfpNabiY2FixYONuLEfC0kJ4lHAp254Z4X7L0o2WPG/OWB9jGbZbsDG/IREfbL3MzLJ0vW257bRroPnNEiPdiLcDGyoWreb7VPG7DF5d3+Q3zMzC/QfbCPjfjX+D4Mu434QQQgixOZqlebvi/cn440b47HqfH1Fd3Aj8c7no21ZdL15ywfvi27xuaMUuLTC0uOYycsha3WLvkTgXyYkrUNwjXhRDoXGc8Gwsw4mHqx2bGO7YrvGOHdlbtoeODNv7HpyyR4+N24OHRuzonopNeedytGw25J2+mi9Hatmzt1NjVZsar9rEaNXLKbpo5q0dmXMED25sK8/3MilW5h7xNoThkW7ed+bRuo7no4VNF/Ml71d7sXZ836hN4OH1+oLg9T/BU+3lZf/C7vT+CHF32aGzNGc7G0RfCGdPRUTj8uYyj8bkThVPi2CMFuJuwEg3yDZLk4+/FSt7O7GsvYT9JulLPLu+CMY+sxxEvC1lqYUQQgghxM2T89Em3vNy8ddyzbjaaNuVpVVbcOukCMzew2VheF9I7QIzc8JkE6V6v7TQskqyaiOVFTu82+yJk+P2sfcdsJ975qB94n177akHxu34/pqL4KILzqzfR1mdjovO3rO/5WJi4yNlO7h32B49OWkfeXqf/fxHD9gnP7jXnjw5aod2JV5+2+tpuq5tWNquu15vUoqLbp4X9lYGER90vLfXy+6WbWG5YTNzS7ZSb1nTBX3H25vtediruHdZRiHuA3aM4A2Eay/cEXpwIWcXZbAQzm49HJiir8f3l4Xhwr1lSNcL3w9Gu6JtxGf7EU0IIYQQQtwONnpX2dNhUdxlhgOBv20XiXVXvEurLVutM2Ny6uIwSwUFRDEuFxe75kKSGZMLLiopk+HL06Mde+hI1d7/yJh95PFxe+ahMXvs6JAd31223SNdG6ukns6FqYvT1Pt+dVefs/MNm51r2PyVpi2tNG1trWnddttGq4UwDPrkwSF73wOj9sHHJu2Zx3bZg0fGXTSXwqzMJRe+CG0EbyZas73E24wIZ7hz19vYbCW2vNa1xZWOefHZ88Bhp8jjO71umf9YiHvNzhK865cu5uSvwRj2K3ZdAPtqEI5uHKh87i1htN2XQgghhBDidpPvZfX6jr1OGN3KIHibqS0sufBspL4e5aDLwJCO3qVbELylzHwdsVkrdWzPhNkTD4zZMw+P2dMnR+yRQxU7OpXY7qGujfBMrbUtG5qcTZK17ML6nfMLdtrt7MUFuzi7ZJdmrtj83IKljYYNuzjeO5rYA/sqwUP8zCPT9uiJqSCEh8p4epk+y8vEw0vzMPrAwTLRi+BtpyXfr8Tmlzq23OhaK83kcdZ3Du8l8Zx0QtURFfcHO0Lwcglu/OtdwGELtyM3nre4yojPDg6X8Ib14nz7fWP9bcuZ7jFCCCGEEO+Gvt4giwzalreMjR7lep8y/C2EYb7ZcObUZq+s2VK9HSZG7YY3gWSiN+usMZS55H06NxeOzMpM/26olNr0aMEeODhkh12Q7h4ym3TBitCtWcuqhY5VvM9a6rWl1emGYdOvvfW2/ezNt3x52t5464y9+rM37LXX3rTLs/PWcdE75CJ03MvZ4+Udmijasb012zXmAjtpuHiue5MY0hzeLRL2LDp+MvMtPHfsUrveKduFuYZdWemEyV+znqj3s709GEcha5kQ94b83AicnTuD7NrLWXYhA8cjPGrhVzPP+GYXeS8h6+vHK4tjPf6Cd88tsB7YLFoIIYQQQvTRL2SZYTl7ly59vndv37DYKwyJggWnCaveScTavrLabNvcYsOFb9dFMGIx+j/5GxJ7vqT3iqBCELvFJLWhigvckcT2TVZscrhow0XmkzEXuDxyRzqGPveGQ7tQrrugXq03eZORjU6N2e79u21satJK1eEw5LjZ6ljXGxReU+ntHHYlO1Et2IGpxKaGUqsVmy67Wy4MOt5/7Hlo2RmH7iSCIXsyuOT7UfL9KtjsYsuWGh0X8gh4TxXS9zL5+kZPW4h7QxS9O0PwxmuvHz8GiNxMwLrYRfT6DYAwmThE7zL/w8G7vyy2a8P8Luh/NttxIYQQQoidDcI10i9o8/SnWxfE6/G9cFj3/P4XydjqpC50Oy54677kBT8lj2cmY0/l/bTsXy8xE035im+1UpiZuWATIyUXuyUbKvdeT+RCl+doU1e13W7ZreRC2UV024W1V7CyVrfqcNX2HtxtRx84bHsPH3DRO23Fyoi12kxo5d1Drwuvbdlt2NXzrhGziSEPl9MwIzTPA9Mg2hWqo0/phK6l/0uSYhjSvNIq2OXlpi3VXfB6lrSXMEvHUXDzOHrThIW4V6CVdo6H14kX4YZll+HG0I3e725c7G7dYH4zypvne1fcfWhCCCGEEOL6IF7f7UzwnqHHR7Ebl1k869GyNHh3e1MZe18xi+P53cXVls0v4eFlwqrE+2je9fb/mZjcyIP3lL4o79wtFVs2Nupid3zIquWi14nf1QVrmPW5aM129hwtHmOGTjfbXZu/smgzc/PWaLVCPzBBJFc8nUtlxPbiUsvWXHzzfmAUN8OOeVNIrYiwrtrU2JCVmeqZfqTHr1voMMc1/norC94GF+hzKy1bdMHLO33TbDdiMoeMQtwf7CjBu371Rrgy16/Od1v8uyX/6T4jhBBCCHFTbAhYeoGZwI0WSbLn4DY0XUjqf4JYzPIyYdVKnZmMU1tpdK3Z4blehjQz8wqikZSeiGK8rPBInQtgBG/RBe/oSNnGR4e93IKtuqicX27b3HLHzl5es9OXluz83KotNdoMQA5NSYolKyUVD9dsYaltZy8s2/mZNbvi9dc7RWswrNmFbhh+TLvJ47tRLSY2OTZsUxNjLnjxI+Ot9bb59mDxH6I3GG1PwjDpZRfQi6tt389O2F+0e8gU95FKwrER4t6yswQvFx70X3xh/epI1rJLPIY34rYGW6elQgghhBD3krzQxTqdjjUaDWu322EIcz5NJoCJ6fUre4sIyVuuRFfWOrbkIrXBcOIwDJkJqxCMniHk8Z4awaB28fIypLhjpWLbRobLNjxaC5NRXV5cs7OXFu0dF7pvnZ+318/M+nIuxNc7qXU9//DQsI2OTrjwHbbZuba9cWrB3jy9YPNLqXWSqhWrNbNSyVx3M3ra8/AoX9cqpcQmRodscnLUN7vgZbs3Kxv72AOh6zEIdHqXqbcfwVt39bzEPq52QjvJF3app5Z7q0Lcc3aU4OUijRffu8z/xHD2J65f/S+Lv///CSGEEOLegCi6EW40nbh7RE9uvV63c+fO2eXLl21tbW1d9GZkn1te0oWJqhI8mwjGrrXaXVtmyO9y29qdxOPocmcDl7N8OQHp/zppx0MdKxZTF6GpC96i1apFW2u07PSZC/biq2/YS6+fcrF7wcXujP307bN26sK8XV5oBnFdGx2xsYkpF6M1m1to2zvnFu3UmSu2vJZadXjEdu+btJHxqiVlc9HrtQZvcscqxa6NDVdsYqxm5TB8utc6hG/PMv2a9S9Tb2fHlW3H95HXLK3UU1tcaYfng0PCdaHs0t7TECPEvWZbCd78cJOr6I9eX89uPpmF6QA2rPfr1LvMM2+Ff7Gdt4NNj6sQQgghBpIXs5lHcOO7NHoK82HZ3bd4/OMyhvHuInS/+c1v2pe//GX76le/aj/96U9tbm5uw+OLQA3mctWz4Z/NJmlimXgZDGdu2vxS0+qdikvacuiXJeG9uW0Ped7E8yaZxzSIUI8rFVo2UUltvFawoUrBxXLHGq22Nag3KbhoHbXx6SlrJxU7M7Nsr56asXdm6za7ajZb79qblxbszOUVu3ilYZcur9rCYt1anr9aKVm5RB8X/Fz0tvKv4lGjXtfESNGGqomn8a0uusNcNrl/GR4K3l5futjtpoktLzftysKatw8h7XEUHfaRwduhpmBC3Evimb9tiF8qecs25CwQVzgEbuHl34hehptkcdwIBv/LJma/v219Rwcy6DhtZkIIIYS4cfrFVP77NMZBPp3s3tggELRXrlyxH//4x/Z3f/d39md/9mdB9L788st2/tw5W1xYsGajkYleF3aUgi+TmYrpQzIcmCG+i8sNm19s2Fq7jJQN50AUvOZLDwSB2AndTs6RjlXcJocKNlYtWNnFcKPRDIK6UqvZ+OS47T+01/Yf2W9D41M2u9i0n566bG+cXwmi9+z8mp2du2JL5PF2sHtND68tr9oqtlK3er1lrn9DWxl6XPIWI6zHhhIbHS65ME7CUOf85K10KWln6Fr2BC//007BBW/D5hZWfR+71mb/w2neoXa3LIsQ9xrOxZ3D+sXabwMjt/Q/IYQQQtwbwqRGORBQeA2jwGJ59RBZcbeJP0JEy8N6uVy28fHxMKz5H/7hH+z3fu/37Hd/93fD8vs/+IHNXrpkabtjxYILRE+ffaZu/hG71rV6q2NLLjAXV9as3Yle4J4HlPS9utIwS3NqxRLe1aJVq2UbGx2xYrFsa2ttuzgzFzy8I6Ojtnf/fpveNWnjEyM2NjlpabFqc0sde+vcsp1657ItudjdP1ayx4+O24ce22sfeuKgHdxVtfrSgr38kzdcsJ+yt0/N2MJKI8zsHJ4l9nYX/XSt1co2NT5mw74suahFtiNa39WjpOEIW7e27+jyat0Wlla9jWmYuIr99AMYu9Lr+ynEvaT4wQ9+8L/1wvb5z3++F9rZ9N/48gy6Md6PXE/0boV9EEIIIbYyPAc6Oztrb775Zvjefd/73heEbrvdlt0ja7Va6zYonh8mWPLZ8ezuW2+9FT6/ixcvhs9yZmbGLvtydmbWFhcWg6AruGJEINP1SgtFW22aXbzSspffvmJvX1yzxVbFOlZ2nYiEZLiwi01P7FLTc2c/jpSYQKrQsPGh1I7sHbUjB8ZsfLRka6trtuKiud5oWbFcozJbq6d27sKSXVlq2lqza2suNpve3lrStgf2j9kDh6fsyP5x2zNVs0ri51u9YVcuXwlv3azVqjY5NerCumi9Oaqs3k1soVGwc1dSm1louSBuh9cdZVt7/UU/fzP5y99sLCFzTg95nVMjiT1waNomhos2VPZtIYunCKMnydorQ4i7CCMzIoVnn312/ceX559/vhfaXmw2ZOVW2EoX7bX2WzcfIYQQ4vbC9y4Wv2Pn5+fDs58Mi2XGXxwLCCO2573A+k6+82zWJ+LYsy163ONngdhF5P5//9//Z1/5ylfswoULYdvw8LBNTU3ZscNH7fHHH7NP/dyn7Kn3PWVHjh+1mm9rdUs2u5TaT8+s2t9/76x997VFm22OWbuQiVWzti87Lhu9TYWSpZ4eAVl2NTpcWLKDEx175pFd9sHHJ+3QnrItzC3a6dPn/VxaturwhE1M7vK8ZXvr9Ex4zRDDiFdc0Fa6DTs0UbGPve+I7dkzakPDZd/WtbPnFu3tN2fsjZ+dsenpCTt+fK89+uhemxxNbKjkktsbMt9K7I3LXfvqS2v2vVfn7I1zK9bouEAPPl7M2+pt5D/P5yb+j6HQ1DldXbVHD5bt13/uQXvscNX2T2T7EmZqZs/8mOn8FveCL37xi72Qn4kSvJuz1S/Qa+23bj5CCCHE7YXvXYzvWATU0tKSvfPOO/anf/qn9sorr9jo6Oj692/8jmb9Vvsp4uaIn00khuNnwGeGsc4SL+9LL71kr7/+uq2srIS0xWLRSqWSTYxP2OHDh+2Z9z9tn/ncZ+xDH/mwHTh0xBrdsp2ba9n3X1uwb740ay+eXrX59qgL3krw/vJ8KxM6hZp9PfPymiXdlg0XV23feNeePDFpH35y2h4+Ohye6T196pyL3kt2+fKKC9lJK1VGbHG1ZUNj41as1TzcsKS5antHi/axJw+6IK9aucpLjro2M1P3c3DR3np9xqanxr3NLtaPDdvokIUZmpmGebZu9vqltn3tpWX74WtX7NSFVWulFc/tsrbg5SBeOVb+v5u2LfF2F32l5G2eLC3bA3sT++yHD9kzD47acRfpFQSvp89mlJHgFfcGCd4bZKtfoNfab918hBBCiNsL37v5714EE5Mf/eQnP7EzZ86EobIR0uW/i2+1ryJuH3wGCF287wxzXlxcDM/v/uAHP7CFhYWQplQqW7Vatb1799mDJx+0j330Q/bxT37MHn/yCZvavc+W20V761Ldvv7jWfv+64v2xoWWLXdGrZWUwyzGLqUtYVRzKC17SpYBzom1rFpYtanhjh3fO2wffnzanjo5YQeny3Zl7orNXJy3y7PLNjQ0atWhkfA+3aQ6ZKutrp06O2ON1VWbHqnYR99/3Kanq54GoZraxYtr9s6pK/b6qxdsamLMjrjgffDBCRsfTcKQ5mY7sVOzTXvpnVUX6HP21vmGzSymntcFerfohnD2djMigfM1zDCdTZCaeHjcRfrR6a599LFJ+8STU/bY0RGr+g4WPW2WSn1OcW+Q4L0BtsPFea391s1HCCGEuL3E7924RDwhchke22w2w/Oh4t7B5xL7P/2fVYR1BO/y8nJ4fpdJqng1EcPT8eyOjY0FsfvAyYfsySeetI9/7EP20MMP2N79+1yADttcvWA/O7dqf/ed8/byqTU7M88zsiPWLLh49LqRt8XUhWBvyC/vs+W53kLStrKt2XCpZbuGC/b0yUl75qFJe/LkuJVcWLbWmlZfadlQrWq1oarXldhKs2vnZ5fsRy+/Hl4/NDI8bE8/QVuGbdgFbbvdsQvnl+ydt+ft1OsXbXJ0xI4enrbHHt1jk5MVS4oFm18xe/HtRfvBa1fsh6/N2eXlxNZaeHcRvJl3Ny24dE2yB36ZYRohbL4NT/Vocc0OjLXsiWNl++yH9toHHp6yWrFrZd9XfNc8z8teC3G32XGCVwghhBDiToPABUQVwilajO8XV+LeED8f6F8CP0wwO/Pf//3f21/8xV/YD3/4wxC/a9cue+CBk/axj3/cHnexe+LECdu3Z9qFZtVK1Yq1CmW7sNy1F0+v2F998x17/VzLLi0WrWkj1nblx6zICN2iW5IG36dLXd6+yyuKWlYquOgtNK3m4eO7E3vy2Ih94ukDtn+6ZuNDiVW8jeUirw1K0Js2v9ywMxfn7cVX3/Rw2zqFapi9+eChMZtwQctz45cvLdmVyyvWWkltemzEDuybsAeOT9nYuG934f3G+aZ956Xz9qPXLts5F+erraq1uxVvG69RQuQyXzNi3Y+R/2Ot2+XZ46J1065VCyu2q7ZqJ/d27Fc/ecg+8dReGy2b7wcDosPUVXKyiHuCBK8QQgghxG1mkOCN6+L+JC90gXW88m+88Yb9/u//fhiOztDmo0ePBoF78uSD9tDDD9u+AzwrO2m1SinMsIwgbLgQfHuuYz94aykI3tOzZldWmTxqKHvXrqdBABY7RRe8wf/pIjV1Q/K64E3SzNK2i8imHZtO7OmHpuwptwcOjdh4pWAVrysJ78JNbaXRsbmlehC9CN7LCy6AL8za6HjNRkYr1m62wnt8S0nJ9u/aY3umRm3X5JBNTdSs6Rr7wnwzDLt+8Y05e/P8qi3UXbSnNRezZWRqdt5yLiN6w7JrBd49jPfXDflb6S7bRHnFju+q2698/JB96n17bXq4YNViJnh51lfnv7gX5AUvl58QQgghhHiPxI59v4gCdfrvPwZ9TsRFg2PHjtmnPvWpMMP2v/yX/9L++T//FXvi8cdt7769Vq3VrJi9g8cz8oOH2Uq9bVeWWy5GUxeVDAfOhG32PKsLRk+HlzcJQ4Kz2GwLz8qW3KrWLgzbUqNiZ+dS+8nr2SRSCysda3TwBjMhFBNHtW24mtje6VF75OQRe+zBw3Z0/4QVmku2duWKLc0u2sr8sqUueIerRTt8ZMqOHJuyPfvHrFgp2uXFhr3+zoK97GL37GzLlr2+JmLXhaxZ2Q0Pru+W71TqIjdb8eMS1jk+iGHmai57m4rWaBdseS21xdXO+vt4OYLZURTi3qL38AohhBBC3EaiWELk9r9+SHZv7VrEz43PDBsZGbGnn37avK9sDz30kO3Zsye8lqhYYrhv9rnibWVgcsdFXqNTtNMza/bGuSU7dXHVRWRpfbbjQpJNT8Xreopp0QUvryPyMrxNDE/uFsN0VtbxFYYMh8i0YI1m02rVUnhvbs2FatW1aNU1aYGX6rI7nj8ploJktrRl3UbDThw+aA8eP2IH9+2y8bFhGxsbsuldo9522lKwhaWm/fTNGXvxtVl7/XzD5lcTW/N2dgo1r7bibfXywvHqyVWWrIf2u+BlMiveK5yUvd627523MVmzPRNF2zNest3jFauWfD+9faGc0FAh7i759/Bu3IWFEEIIIcQtk/cMRvrXxb0lL3oHCWDiELtMTvXwww8HoYuXd3p62oaGhsJrifDqhhcK+WebvW+WZ1yLLv1coLZSF6nt4An1Dz9YOAM8XSb88PoWrO11tBPy0RWPHuCsPR0vn+eBV7tVW6iX7a0LTXvxjSX76Tsrdn6hY8ttz4so9nIYAl1NmjZWSe3AxJA99cAhe/ToHjt5YMIePDxhjxybtgcOTdnkCJ7bJHhg3zy7bK+dWba3Z+o230y8nnKYRTr1NjFsOWWYtbc6PLdL87weBHawxPey0PbIlm9sIfXDv3qnaavNhq25sc+ZJ9uT6fQX9wESvEIIIYQQt5nreRPzkFZ25y1yI/G1Ws327dtnU1NTIcwMzQjhsB1x6qIu6boARNN6dxovLq/vQd9lYi/4a30N4esLt0wcu9j1MlqIWjdeLxRKoDzPiCe44yKWbQ1z0ZvW7Mzltr18ainMpvz2TNMurxZsLS256PVuvNfDZFc117/TIzU7eWS/Hdw9ZrvGSrZnomwH94zagT1jNlKrWtM16vnLTXvFy3njQsMuLBVsOa1Yg1cmIXa9OMRuJmJ5ttiL97YGteCLzKvse+milyHV1m36hpanaXn6di8XO8u+9iysCXFvkeAVQgghhLgN5AVTnnz8IBN3h0HHvT8ub3FoczTiMjI1x2pmvfRuQ5WSjbr6DJM2uThkyG8YzuzpkIJY6nk7ictDF45pgmBs+vZomQc1ZSIrF76dYmJLrdTOXVmzl0/P2avvLNqbl5o2Wy/YYrtkKy5YGY5cdwHccNGNp7ZVIJxYo8sM0Zmtuno9M+ti961le/ntZTvPjMydmreOYc74qzOxDqGd3sasrZnFtpMOCt6+Eq9S8jZXfFkrd21spGJjo0PBA84/TxXSCnGv0TO8QgghhBB3kCiUNgSTuFcwxLz/89jsc9n08wrxiNwsTDqctwjCerNrq/W2zS2u2aqHGy1zUcnEVUA6vLoMa/b0LmgLhZYL5VZYWiFdF5pY+NvzuKbdjrU7eFBdyLa6tlJP7dLlul2Yqdv5mYaddTtzqW5nPe7s5VW3FRe4bh4+PVu3U779lVOr9tPTq3bqYsuWmhUXxFUvL748KDPaGKy3byxDi1jSbhfRBRfUzL5c8j3j2d2JasuO7CrZkyem7cHDkzY5VHIRnJUWiqIcIe4y+Wd49VoiIYQQQojbwPWe11XH/96S/3zyn8WtPGcdciCeWbpITX3RchU7s9SxN86v2rdeumgvvbNip2Y7ttCsWsfFZTajcRKGNKcuCBGzRWtZsYsPtu3bef0PoZKl4T29SFEkacdKLogrblMjJZseq9iusaqLzaxE5lRmaHPYDxpU4L2+bc/sYrlAfSVrpBW7ONexi/OpXVmhjooLWIZiM+w6TEcVassK6O2f71cIMZQ5xHg6bxcSueQCvGJ1Gy+v2YHJ1J58YMQ++tQ+e/z4lE2Uk/Ae3uA39n3VeS/uBfnXEsnDK4QQQghxG4id+81M3F/Ez6T/c7qW+Z/M0xmsl9dFo69ZEZFXTIKlScnWmml4TVG9iYfWxWXXhazLwCyvi0E8vC49GR6M9Mxak6VjFugkWCZGEcMuM63ZLtjKWsfmFho2O1+3y1eaNrfUciG7ZhfmVu3SQt0uXVnz5ZrNeJrLK6nNrZjNLHbdzBYbZWsno15/NpSZZ4fZg/CKpPBMMJ7ebD/DvtKk0LCsDQVvWxGx221YzVbswFjXHj44bB987ICd2D9qu0ZLLnajdPZ/oZhQgBB3Fc3SLIQQQgghxC2S+T57gtBB8DJJVdVF7ORw0U4cHLWHjk6E5dRI14ZK+G0Z3MwEVZ4+jIFGXBY9XPSwW+pC1y3xcMKri3pWcLO0bGlaccFbstVm0ZbrTH5VteLwmNUmpqw0MmbJ0IhVxyesNjlltfFp3zZpHmHt4rA1PH/Dy8ELzRzLwWdLO/xfeC8wYjYY7UKg5kSqJwzeYyzNvNK1YtOmhzv2wIHh4NV94MCI7RopW8WzRXERihHiPkCCVwghhBBCiJskit0shCDsuBjs2HDF7MB0xU4eHrcHj47bwemSjddSqyQt347oddHoyRMEbxC55cy6mfGO3iLCt1O0IkYajwse4p51C2WrjozYxPSk7do3Zbv2Ttvu/bvswOG9tnf/bpveu8ttr41P7bKh0QkrVYctKZVxt3o5Hbe2S1pmkM7Ebf+/AAI37htpU9+/btNcdttYtWOHdlXs4SPj9uixSTswWbbRaoJ8z3JHsSvvrrgPkOAVQgghhBDbnvzQ5NsxzHajhFzIg6VC16pFs32TJXvo8Ig9fmLSxWHJRsoNF68rlqTN8A7fJE2CuE26VRe0bmmlJ4CJ41lZBGT8l60RW0x8veSd+ISXALUt9fLGx8p2cP+4Hdg/bJVS2zqtho2NjtjkxJiNj4/ayMiQVcuej+HT3ZaXg5+X53dhw1Od0fX2MNwabzSeawY/I9jbNlTwcstN2zdRsCce3G0Pudjdv6tqQ6WCldgnzEsIRyT8ubpkIe4FErxCCCGEEELcAGg4jA70RieaGFe4hcy/yT8mdhqvJnZoqmKPHZuwh46M2qE9LnqrdRfDdd/eDGKyEKZrzoY1h+dowz8GSyNmO8F8Q6gl9QUhrFgsWq1aseGhsrej4yK3a8PVgg1XCkHUWtq2cpJY2ZVxuVSyUuJC2v+ROchbrzt4bb3s/D/ieN8u9Re6Xg6WIpKZ5qrlYrfl4r1sDx0dt4ePT9iB3VUbrfn+JghdhHIc6N1vQtw7JHiFEEIIIYS4CaLozbRolL8ll3aI3mxtyFXvrpGSPXhg1B45OmYnDw/ZromOjVQaVi40wuRPVz/PSxjBiNBl1uaWy862r/m/8Hoil7++nSqZ1KpSqVjNLUw81ROlPCNc8oIot9PyfK3UzfO10a0uRXNDmCE8yxtFr9dBOIheXw9e3tBGhjLzCqKO7Rru2okDw/boiUk7dmjYpsaLLrYzgYywzUqlBsLECXHvkeAVQgghhBDiBkHUBYkbhu8i7IgpBivg5XUxWvQECM9M9CZBJD58YtxOIBLHulYpNn172xIXmOTe8Iri0W25/nWx69ZJ2tZ2odkuuHh1FYtDmDmh264lG82O1eu+3QVts9G2VqMTPLm1ypCVihVbWqzb3PyaXbnSsOXljjVb3tq07IYwz1oexK6X2fWy+Ze1wS0Mae4NZ/Y0DNGeGCra8f0u3o9N2MkjozY+XPB6oic6E7zkZpkJXiHuDyR4hRBCCCGEuCkyaZfJ37jshQvMd4y/18KsxcOufPeMle3EfmY0nrRje6u2a6httcKqlbr14JkNYjGITxeOwTzshQQL8dk2rOPisuGKd25xzc7OLtmZ2RV7Z8bNl+fmGnbBBe7FK3U7f3nZLvj2mbkVW1yuW5PXI9G80HYXtC6iC9byMEbZmVTNZC4ioWtlT1MtMCOz2bE9VXvqxIQ9eGDI9o+VbLiYDd32pvHX/2OEgch4jIS4t0jwCiGEEEIIcVPkxd16IIhGYJH4H7y8ZQ+P1xI7NFm1x45N2UMHRuzgVGKjpboL4jXvjDc8X6cnaF0kkjmIR++mY54iRLnxBxnZ6nRtfrlh5y6v2JnLa3ZqZs3evLhqb5xfsVOXXAhfrtuF+TWbubIWhPHyatOa7Y7npPyut81lbfAwN72qdla3b83eEUxNeHZ5zVLLRkpNOzhZtIcPjdiTx0bt2HTVJqsFF+yIevzb3r4odkP7e/sgxH2CBK8QQgghhBA3DSIvCr3eqi8QusF60YQrLgLHXSQe3z1kjx6dskfc9rqIHK4wY/KaF9N0iclzui44g1uX2ZqZtblqSVp2K4V38oYlry8qVMJ7eVudqjXTYVtuVm120eyNM0t2Ya5lS/WS1dtVa3ka0nVddieFnhmzPSNUEaaZyMbSMGTa18NkVd6ubt1qxYbtGevaw0eG7amTE3Z0T9kmhwpW8f0qeXbe4Rv82UGc93Y4SGch7h8keIUQQgghhLgDBP3n8IRv1cXxSCWxQ3tG7KHjU3by6KTtmSrZULVlRRe8SaHj5jIUweviNryeCJHbxRC6vXDY5iX6duu4hedyy9ZqFW11NQ1L61bXn9cN4plZoNfLQlAXvZ6SdQzjpUPIXwY0t70tDSsna97Wpu2ZMHv42Lg9fHTUju6v2ugQMz8jIPASI+azJ5iz/Yx760s0bzQh7jESvEIIIYQQQtwxmCIqe6a37Fpw10TFjh8atUcemLYjB4ZscjROYuWCNyRHsGIuJoMXNeuw45XNPLPER/OYdXPhypxXLmCL4TVExGXiM44yDssQl1jqgrddqFinULI0eGgRsS1vY92GinWbHu3Y0T0Ve+LktD1waMR2TxSt7DsQ32F89buM82EIteVMiHuHBK8QQgghhBB3iEy0dl3wdq3mInHYle/0SNEePDwavKfHDg7bWM2FZsK7edsufF2oBp3YcSHadN2bmSUtj2t5eMPSnvEaIyu0rcBsy75MbSNft9DwNFjTUq8jmJfd8Uo6VvW0DFDG85taqdsKk1SNVVp2ZHfVHj06aY8cHrO942WredlFb1eCNsa9O9B9GwVuNCHuPRK8QgghhBBC3AG6vffmRi8rorLiEnO0bLZvshg8pw8fHbcDu8o2Xm1b2RpWTF34uoBlFmVLOtZNmFQKEYsAZnKrOMHV1ZZ6Ban37HkSOKRLPD4Y4Z7FvJ6u68I6DUOeEbtm5S7yt2XjldQOTw/Zw4en7OEjk7ZvvGJj3t6K58tmeI7m++SadsPTm19GE+LeI8ErhBBCCCHEbSA/zBexmwWwTAAWPK7oEbVi1yaGzI7sqdlDR0btpAvfPeMFGy42XHiuWbHL7MmMT0bMZpNKbdh6cT3B2avCI7L362avFQobELY9C6o25At/wj/Xw1ZyEY7YrXido8WO7cH7fHDSxe6UHd8/ZhPVxIY8L0/78tIiagpCvrd/7x7anDch7j0SvEIIIYQQQtwmrhaAPYhjqHKSWNFFbKnQtkrStomai97dQ/bMI/vs5MFR2z2S2nBhxcrpmiXtlrnGtEIn6c3QzJKJrLCya+ENS7oVj2NGZ5aZMUlVmKiql5dJsAphAquyC+rERW7XhgotG7KGDbnIrnWWbc+w2UkXue97cK+d2Ddq08NFF7s8f+xyOs0kdcFFN8Oaw9Dma2naTHWHoBD3EgleIYQQQgghbhPv8nz6ohvC0eiAd63U7dhQMbXpkcRO7B+2J05M2KPHRm3PaMvGSi5AC27dplW7Daukbr4kXA1xfZa6gO66pXhqY7gVvLbkW7fU14PVPc+yl3/Fbd5GkwXbO9Kykwdq9vjxCTtxYMimR0tWRdhaGjzToeVZ86+PxK64j5DgFUIIIYQQ4jawPoy5R97bm3o4ZdWXeEqLTBlV6NhYuWv7xovhWd6nHpyyE/vKtmesbROVVd+2YqOlFRspLttI4lYk7HHRktVgI0VfFtfccsuYb1Nb9DLnbLw4b7uHV+34vqI95oL70WPjtn+qZCPVKHYZxky7o2xgH6/ez6uI462FuE8oPPvss+tn7PPPP98LCSGEEEIIIW6GzZ5t7bgIDNEFhgTzLGzHumk7yMZOt2htq9jCmtmFubq99tYVe/nURTt16YqttVNrd9IsbyDxvAjPvKiM4WxKKaatYobnbOm2ntnzhYd5Yz7a0bKxWtEOTI/Yo8f3ue0Oz+2OVRMrMytz18tJPR0inZmZQ9aN+jbKiksnCN4eHswdBiHuGl/84hd7IT8HJXiFEEIIIYR471xL8Pb8pJYEwZu6Fs0Eb9e3daxkjTSxpXrXZucbdnZuwWYWV6zeaVsnpUxyZhNNZQoyGvgSQd1bQ1QHsRtiWK7XnFlPkGYldGy4nNj0aNUO7ZmwvZNDNjlStgpi1/MzlJn8YV9idb2cGwbrG7Nq47ovJHjFvUCCVwghhBBCiNvMpoLXDWEbBKALyDBUOCUWfRjkrxuDnBNrtLtWT1MXwKk1u5l3lxKD2GXZK7f3VK0Tl3nI0W95sev/PIqJm0seXSkWgvANXl1PUgwtIk+v9Hep1rjev3SybI7H8T+3SYi7hQSvEEIIIYQQt5kodvshNm7ZEJIbabPtxLjw9ZWOh7Dgp91INoBrqcnNMyJ4Ey8YwUsJiatShG705GZt25DUVxNjB2/tJy/8hbhb5AUvYxuEEEIIIYQQdwgkXzT+xmW0+I+Oecmjyi4Sq0liNax4LStcwwalj5alqfas7BVnj+hmshuyVg4yiEsh7n8keIUQQgghhLjDXC0Z82uZxRDQQcf7yhRVxTtiCFwX2G54YKMFgtd3o12DTYitgwSvEEIIIYQQ9wlRTrJM0u4dMZ7fDRZFrhDbGAleIYQQQggh7hKbPeebJ8jQ6ye7ZaLM7W/LVZ5eIbYJErxCCCGEEELcBq4nFqPAvK7o9c2UdKdMiJ2EBK8QQgghhBC3ieglzdut0i9Ub9luU3uE2IpI8AohhBBCCHEfgh/4TpgQOwkJXiGEEEIIIe4juoV3i9T3YkLsZCR4hRBCCCGEuN9A9N4p8+IlhMVOQYJXCCGEEELsaJhE6k5arCNPf5p3be8tgXBm/f+utS37B9eqJ8+72nCd9DdCLOO9mhC3igSvEEIIIYTYsdyImCJNmqbBblR85YVaf57NyliPZxnz9q0T0U3jei9ufTmIa23boL+tm7VRiK2GBK8QQgghhBB9IPgwRG6n07lqPQrffhGcj8tbzNufZ1PLCjNP2Gcex/ZeuBAszZYen/jmAplJtx6fm625ZxDCNzljM23rZ1DcIK7av03KGRQvxHtFglcIIYQQQogBRBGWF4abibIbFWsxXSwbi+XHdf8T1iEK05Cmty0vUzfyZOH17RtFvIt8/psl1rde7w1yLXF9M+UIcbNI8AohhBBCCDEAhBje2FarZfV63VZWVmx1dTWsR5GWF6v5dNjy8vJVxrZ2ux3KBJasNxqNkDd6fiOEY/kxXSw7lr+0tBSWtCuWT768UULebhXKyhPLv1GuJXqFuFMUnn322fWz9Pnnn++FhBBCCCGE2P5sJtiIZygzInJ+fj7Y2tqalctl279/v+3evTuEEXFRFM/NzQVbXFxcHwYdKZVKNjIyEvJNTExYtVoNIjUK1tHRURsfH7ehoSFLkuRdQpp0MzMzduXKlSBqI9RdLBatUqmEMmL5xFEGRnmDYFtsY76t+XiIbaGuGIaYZrPyB5UBxA8qB/LxeTaLF2IQX/ziF3shP3ckeIUQQgghxE4lL7YiMQ6P6qVLl+wnP/mJ/fjHPw7h6elp+/jHP27ve9/7bNeuXUFYIkARraTBXnvttSCU8x7bWq0WxOhTTz1ljz32mB08eNAuX75sp0+fttdff92OHz9uDz74oB04cGBdSANlIKBPnTpl3/3ud+2VV14JdREfoQ2IXcp85pln7NFHHw1tQ2TnxXOeQYKTJfHYoONyK8QyIS5vpuz+vELcCHnBW/zgBz/433ph+/znP98LCSGEEEIIsTOIAiwv9FjigUWQfvWrX7W///u/t+9973tBpCJcEabRk4o3FxH6T//0T/bCCy/YV77yFfvZz35mb775ZhCzb7zxhr311lt29uzZUC5e3MnJySCgf/rTn9q3v/3t4KFFpCKo895ZxPTCwkIQ0V/+8peDvfjii6Fcyo9GO/EAI6wpG0M4A2UgwPFQs8TwGkeimEREkxahT1qMdLQ5tgdjnbT5dITJG9MAx6XZbK7Xh5GO40o822NayIfz5MsU4kb4sz/7s15IglcIIYQQQuxgEFJR5MZwNIYnIyy/9rWv2YULF4KgQ5jiSd23b5/t3bs3eFFJi4Aj7dtvvx2GHbMdr+3Ro0fDEOixsbHw3C2Cj/SHDh0K64hUvLeUSVpEL0I1emapEw/vmTNnQvkMrUZwHzt2zE6cOBGWe/bsCUKXesnDcOnDhw+HOEQlwhpR/OqrrwbxTX2zs7OhDsR1FMYIU8onLQIbkU46ymC/SUfbEa60iX1FsJP23LlzIY50HBNA2FIX5VEOx5D9oA20ie20lXZEA+qAKHJZxrAQN4IErxBCCCGEEH0gqhBbeC+xd955J3hT8dwyZBgRSxqetcWDeuTIkSDwyINYRPhFL+4HPvAB+9SnPmXe1w5DjBG9pEHAIhwZvoxwRGDinUUAUx5iFsFIPQhA0uM9Pn/+fEjH+tNPP20f+9jH7KMf/ag9+eST9sADD4T24H2mbDzP1El+BDWeaUQ79oMf/MBefvnlsG8IWbzNPFtMmLgf/ehHwUv9rW99y374wx8GcYowjcOmOS54nBla/Y1vfMP+8R//MRwf1hG9pEPE0g7awzBs0iG2MYaHf+c73wkimH2n7uHh4WBR2EaLn0l+KcSNIMErhBBCCCGE0+9NjIIXMYr3EsGL6Hv44YeDSGX4LmkQdSdPngyCkbx4bhG8eDDh/e9/fxC9pMETjABEfJIfzyuClHoQfeSJHt4oeBGrlIsQRXAiePGW0i6eH8Yog3wIXNpEOQhwPL4IYcpHhCI6EaUvvfRSEM0IW9oCpJ2amgrtQox+/etft29+85th30lLvdRJ+0lLmRcvXlxPh0CmXQh99gXBi/hGyOIhR2Qjijk21Isx3Jt2IeTxaGO0IT+UO3p7I/HzEeJGkOAVQgghhBAiR174IjIRYwhAxBnreGrxpOLdjDMls463F5EZPbwYApBZlRGLeD7jZFaIZ+pBpCKIEY+IQkQgHt4oeBGXCD7SRsGLQESEMow4imTqwluL6GSJ6GQoM2IXcY6AJD/l8GwwQ6wRyfHZY/YBrzXDrRlijOcVLyxi9fHHHw/lkJZ0CGLKYIkQ5lliyuUYsC/Ui5eWY4PgJR9CmePH8WBf2b+HHnooeLKBYeAcv/zw8H6hSx1RBAtxo+QF7+A5xIUQQgghhNjGIKSwGI5LDIGHsEWwsmSCKgQdhmjDu4ugRSTGGZOjICMvIhaBy0RXf/mXf2l//dd/HcQkwhWxyyzN8bnbvJCL7eiHeOpAIDJMmLLxmlL2n//5n9vf/u3fhomvEMG0F28zYhMhjpBkZmgEOyIWcYuoZDttx8hDXjy31EP6z3zmM/brv/7r9qu/+qthaDZtRsQieDkuCHD2k30ijjp5Jjlu45ld6qDtHC/2mxmkKfezn/1sENN4dcmHIczjvsblZsdDiJtBglcIIYQQQuwoBomqGMYQYIhZhFt8LhYhixcXLyTijAma8Kji0USIki8vehGSCELy45ElDi8uQ5F5BpdhvAjBSL7+axnlICypl7IZmkw9tIf2EYfoRJDTTurA4xqHLiN2EbVsoyxEKaIVgUq5DNFG3H7oQx+yT3ziE+sClTCCn31kfxDJCGQmtsIrzDO5UejGNsXjgrCPnuePfOQj9uEPfzgMEcebTXm0h3SRuK9C3A40pFkIIYQQQuwooqAaJKwQgojGOLkSQ5KZXRhBh2eViZwYpougxFuKkERQUg7P+iI2GS6MQMQ7+rnPfc5+/ud/PhieUob/MqQXYYk4RDQzpBkvMvEI4ThpFUZ7EKSIS7ywxDFhFSL0l37pl+wXfuEXwvojjzwSxC3eVoQvnmgEJ3l4jpYlZVEPZSB2EZoMc0YII1AR+WxDlMdng2kLQ5wZesySdjBbNMeH4xSNfUEEUyZ548zUDMFmO/UynJltwLBohDFeaGaaJp72c+wQ5XH/MYhLIW4EDWkWQgghhBA7lryYwvLiF8GIeON52ThkGcGG4EX8xmdoEXeEEcOIX4QeZeEN5llXnpVFiCJyMcIISURtHFYc20I4b8RBbFP0gCIGmSkZMfvEE0+ESbEYJowxXJnhy4C3lzYhThHhTFaFuCR/FOiIy1g28YhZ6sbLiwiPXlrC3//+94No5phQLnlJz2uRPv7xj9sv//Iv26/92q/Zb/zGbwQjDiGNqKdM6oF4vInrF7b5/RbidiLBK4QQQgghdhxRaEWL4g+Bi4jFi4mnFPGK9zEOCWYYLoaYQxQiKhleHAUvHlG2kSb/3C9LBClCEbFH2ghhBF+/EATaFQ0PLV5bPL60E/GJESaOodikow3ANvYF0Ro9sLSVeIQ9ZdFuRDqeZdpNOXEiLF5hxLPBf/d3fxeeR0bwUgeeX44LghePNd5sPNh4mz/96U+H54XZFkV0bD/EfWUZLe573Gchbica0iyEEEIIIXYkeYGFIEP8IRDx5PLKHYbh4p39F//iX4QhxAg6hB3eS8Qcnl6EXzSG6fIcK6KQ1xHhzY0CNwo/6ojiGA8yQ42ZxTgOaUZYI0DZHoUiIpRymeUZby1DqhGjvBroq1/9apjAiuHXiHTqY3gzXt+4PwhYPL3kR8iSH68123mWlrbi9UUQkx5hy5BlxC6vNMLTy/7x7DEzKrM/tJu0lEX5lM2s0ZTL8Gd+HOD5YMoiHfvHzNEMdUa48+wvw7/jkGaebya8mfCVGBY3g4Y0CyGEEEKIHU0Un1FUxjiG9MbJm/BSIhzxWDJ8GCPMhE5MwITHFoGGII2zIiMc8Zbyip7oyY1irV+04YklHWKSocoI3Xy7Yl7KoT0MhSY9ghoRipBENCKcaQP1Mmz6ox/9aPAqY4hzxCTDkGMbiY8zRcfnheNszuwjopa01MGSdYZoI0zxVCOQP/nJT4ZXEtHm6GWm3ew/HmCEN3USph5EMGmB/WE/2MY+ka7/2Ahxu5CHVwghhBBC7CiiyMXyINgY+suwX7YhanlWFoGIYEOkYQg3hC7CEzGHIRgZIoyYQ8AiBhGK/a8eihCHSCUPZVEHQ6fj871sx2gHE0yRjiHWbENUxqHVsW6EKG1leDEiHU9qbCv5EZWkR9QyDBlvK+IXMYz3lfzsI/VHgU09iH4EPkI4vncYMYsHl3S0h3qoDyHMDwJ4jRHfwD7SBrzX1BHzEQ+ss422kS7udz+D4oTYjLyHt/Dss8+uX+nPP/98LySEEEIIIcT2JArdQcvo4UWQ4XVFACJaEXYRxCfPwDIEGA8pYhKBiADGKAdRiBBE3EGsIw8CFqMs6iA9IjSKPgwRjmAlHZNR0S6GBMfyohCkHvLSXuomTDry0U6WlEVbowinXtZJT1xMj8eWJevsH8eBNOwjx4FyOAa0B88uXmDiKSumRbySP74uKdbDkvwcY+JpR77suN/9DIoTYjO++MUv9kISvEIIIYQQYgeSF6CE43oMY9GDOQi2I9yiEIvLWE6/cIvxeWIcy/70/Xnzdi2iaIwMyhfriu2PFsnnGbQ9Qv5YbtzeX39MQ1w8lqzn8+bzDKoHNosXYhB5watneIUQQgghxI4DAZUXWdEQXwhdPJtRiA0ytpGGtFEYx7xxfVC+vOXz9KfPE9OSjjrxnvYb8YPanM8XLdaXD+fz5OuJafLbN0uHbVZWfxkxvj+PELcbCV4hhBBCCLHjyYuxvN0uBpV9qzaIQelu1QYxKF20m2VQGdczIW4VCV4hhBBCCLFjuVtiiuG7g2ynMuhYYELcbiR4hRBCCCHEjqbfmxjtdnEtIbcTRZ6ErbibSPAKIYQQQgghhNiWSPAKIYQQQghxB7mWt/h2epK3Cjtxn8W9Q4JXCCGEEEKIO0wcJt1vO5VBxwIT4nYjwSuEEEIIIYQQYlsiwSuEEEIIIYQQYtvB9GgSvEIIIYQQQgghthVxLnAJXiGEEEIIIYQQ24b8i68keIUQQgghhBBCbEskeIUQQgghhBBCbEskeIUQQgghhBBCbEskeIUQQgghhBBCbEskeIUQQgghhBBCbEskeIUQQgghhBBCbEskeIUQQgghhBBCbEskeIUQQgghhBBCbEskeIUQQgghhBBCbEskeIUQQgghhBBCbEskeIUQQgghhBBCbEskeIUQQgghhBBCbEskeIUQQgghhBBCbD+6ErxCCCGEEEIIIbYbLnZBglcIIYQQQgghxPahJ3ZBglcIIYQQQgghxLZEglcIIYQQQgghxLZEglcIIYQQQgghxLZEglcIIYQQQgghxLZEglcIIYQQQgghxLZEglcIIYQQQgghxLZEglcIIYQQQgghxLZEglcIIYQQQgghxLak8Oyzz+ZeyyuEEEIIIcSN0+1uva7kVmyzuDsUCoVeaGtxL9r9nq6iu3gJysMrhBBCCCGEEOLucJd/b5LgFUIIIYQQQogtzN0etHDL1d3ldoIErxBCCCGEEEJsce6W6N1KYtfM7P8PpPm1HNIWF5QAAAAASUVORK5CYII=;" parent="1" vertex="1">
          <mxGeometry x="700" y="1070" width="956" height="572" as="geometry" />
        </mxCell>
      </root>
    </mxGraphModel>
  </diagram>
  <diagram name="Cópia do Página-1" id="X9Afc9vs8Y26itaHrPXp">
    <mxGraphModel dx="2427" dy="609" grid="1" gridSize="10" guides="1" tooltips="1" connect="1" arrows="1" fold="1" page="1" pageScale="1" pageWidth="827" pageHeight="1169" math="0" shadow="0">
      <root>
        <mxCell id="8UfcVMUYJMqAKjJ9puZm-0" />
        <mxCell id="8UfcVMUYJMqAKjJ9puZm-1" parent="8UfcVMUYJMqAKjJ9puZm-0" />
        <mxCell id="Qwj7utCCqi1MULFdhWgS-38" value="Ambiente SaaS - Parceiro Juridico" style="rounded=0;whiteSpace=wrap;html=1;fillColor=none;labelPosition=center;verticalLabelPosition=top;align=center;verticalAlign=bottom;" parent="8UfcVMUYJMqAKjJ9puZm-1" vertex="1">
          <mxGeometry x="1180" y="385" width="200" height="410" as="geometry" />
        </mxCell>
        <mxCell id="Qwj7utCCqi1MULFdhWgS-39" value="" style="rounded=0;whiteSpace=wrap;html=1;fillColor=none;labelPosition=center;verticalLabelPosition=top;align=center;verticalAlign=bottom;" parent="8UfcVMUYJMqAKjJ9puZm-1" vertex="1">
          <mxGeometry x="100" y="270" width="980" height="600" as="geometry" />
        </mxCell>
        <mxCell id="Qwj7utCCqi1MULFdhWgS-40" value="Ambiente GCP - ApiGee" style="rounded=0;whiteSpace=wrap;html=1;fillColor=none;labelPosition=center;verticalLabelPosition=top;align=center;verticalAlign=bottom;" parent="8UfcVMUYJMqAKjJ9puZm-1" vertex="1">
          <mxGeometry x="-170" y="325" width="200" height="545" as="geometry" />
        </mxCell>
        <mxCell id="Qwj7utCCqi1MULFdhWgS-41" value="API de Cadastro" style="rounded=0;whiteSpace=wrap;html=1;" parent="8UfcVMUYJMqAKjJ9puZm-1" vertex="1">
          <mxGeometry x="1220" y="455" width="120" height="60" as="geometry" />
        </mxCell>
        <mxCell id="Qwj7utCCqi1MULFdhWgS-42" value="Api Bacen" style="rounded=0;whiteSpace=wrap;html=1;" parent="8UfcVMUYJMqAKjJ9puZm-1" vertex="1">
          <mxGeometry x="1220" y="645" width="120" height="60" as="geometry" />
        </mxCell>
        <mxCell id="Qwj7utCCqi1MULFdhWgS-43" style="edgeStyle=orthogonalEdgeStyle;rounded=0;orthogonalLoop=1;jettySize=auto;html=1;" parent="8UfcVMUYJMqAKjJ9puZm-1" source="Qwj7utCCqi1MULFdhWgS-44" target="Qwj7utCCqi1MULFdhWgS-64" edge="1">
          <mxGeometry relative="1" as="geometry">
            <mxPoint x="-140" y="502.5" as="targetPoint" />
          </mxGeometry>
        </mxCell>
        <mxCell id="Qwj7utCCqi1MULFdhWgS-44" value="" style="html=1;verticalLabelPosition=bottom;align=center;labelBackgroundColor=#ffffff;verticalAlign=top;strokeWidth=2;strokeColor=#0080F0;shadow=0;dashed=0;shape=mxgraph.ios7.icons.smartphone;" parent="8UfcVMUYJMqAKjJ9puZm-1" vertex="1">
          <mxGeometry x="-410" y="370" width="28" height="60" as="geometry" />
        </mxCell>
        <mxCell id="Qwj7utCCqi1MULFdhWgS-45" style="edgeStyle=orthogonalEdgeStyle;rounded=0;orthogonalLoop=1;jettySize=auto;html=1;entryX=0;entryY=0.5;entryDx=0;entryDy=0;" parent="8UfcVMUYJMqAKjJ9puZm-1" source="Qwj7utCCqi1MULFdhWgS-46" target="Qwj7utCCqi1MULFdhWgS-64" edge="1">
          <mxGeometry relative="1" as="geometry">
            <mxPoint x="-140" y="502.5" as="targetPoint" />
            <Array as="points">
              <mxPoint x="-100" y="580" />
            </Array>
          </mxGeometry>
        </mxCell>
        <mxCell id="Qwj7utCCqi1MULFdhWgS-46" value="" style="strokeWidth=1;shadow=0;dashed=0;align=center;html=1;shape=mxgraph.mockup.containers.browserWindow;rSize=0;strokeColor=#666666;strokeColor2=#008cff;strokeColor3=#c4c4c4;mainText=,;recursiveResize=0;" parent="8UfcVMUYJMqAKjJ9puZm-1" vertex="1">
          <mxGeometry x="-600" y="520" width="262" height="130" as="geometry" />
        </mxCell>
        <mxCell id="Qwj7utCCqi1MULFdhWgS-47" value="Page 1" style="strokeWidth=1;shadow=0;dashed=0;align=center;html=1;shape=mxgraph.mockup.containers.anchor;fontSize=17;fontColor=#666666;align=left;whiteSpace=wrap;" parent="Qwj7utCCqi1MULFdhWgS-46" vertex="1">
          <mxGeometry x="60" y="12" width="110" height="26" as="geometry" />
        </mxCell>
        <mxCell id="Qwj7utCCqi1MULFdhWgS-48" value="www.sironapp.com" style="strokeWidth=1;shadow=0;dashed=0;align=center;html=1;shape=mxgraph.mockup.containers.anchor;rSize=0;fontSize=17;fontColor=#666666;align=left;" parent="Qwj7utCCqi1MULFdhWgS-46" vertex="1">
          <mxGeometry x="130" y="60" width="250" height="26" as="geometry" />
        </mxCell>
        <mxCell id="Qwj7utCCqi1MULFdhWgS-49" value="API de Contas" style="rounded=0;whiteSpace=wrap;html=1;" parent="8UfcVMUYJMqAKjJ9puZm-1" vertex="1">
          <mxGeometry x="1220" y="555" width="120" height="60" as="geometry" />
        </mxCell>
        <mxCell id="Qwj7utCCqi1MULFdhWgS-50" value="Availability Zone" style="fillColor=none;strokeColor=#147EBA;dashed=1;verticalAlign=top;fontStyle=0;fontColor=#147EBA;whiteSpace=wrap;html=1;" parent="8UfcVMUYJMqAKjJ9puZm-1" vertex="1">
          <mxGeometry x="380" y="390" width="440" height="195" as="geometry" />
        </mxCell>
        <mxCell id="Qwj7utCCqi1MULFdhWgS-51" value="Availability Zone" style="fillColor=none;strokeColor=#147EBA;dashed=1;verticalAlign=top;fontStyle=0;fontColor=#147EBA;whiteSpace=wrap;html=1;" parent="8UfcVMUYJMqAKjJ9puZm-1" vertex="1">
          <mxGeometry x="380" y="600" width="440" height="195" as="geometry" />
        </mxCell>
        <mxCell id="Qwj7utCCqi1MULFdhWgS-52" style="edgeStyle=orthogonalEdgeStyle;rounded=0;orthogonalLoop=1;jettySize=auto;html=1;" parent="8UfcVMUYJMqAKjJ9puZm-1" source="Qwj7utCCqi1MULFdhWgS-53" target="Qwj7utCCqi1MULFdhWgS-72" edge="1">
          <mxGeometry relative="1" as="geometry">
            <Array as="points">
              <mxPoint x="590" y="430" />
            </Array>
          </mxGeometry>
        </mxCell>
        <mxCell id="Qwj7utCCqi1MULFdhWgS-53" value="Amazon EKS" style="sketch=0;outlineConnect=0;fontColor=#232F3E;gradientColor=none;strokeColor=#ffffff;fillColor=#232F3E;dashed=0;verticalLabelPosition=middle;verticalAlign=bottom;align=center;html=1;whiteSpace=wrap;fontSize=10;fontStyle=1;spacing=3;shape=mxgraph.aws4.productIcon;prIcon=mxgraph.aws4.eks;" parent="8UfcVMUYJMqAKjJ9puZm-1" vertex="1">
          <mxGeometry x="550" y="452.5" width="80" height="100" as="geometry" />
        </mxCell>
        <mxCell id="Qwj7utCCqi1MULFdhWgS-54" style="edgeStyle=orthogonalEdgeStyle;rounded=0;orthogonalLoop=1;jettySize=auto;html=1;" parent="8UfcVMUYJMqAKjJ9puZm-1" source="Qwj7utCCqi1MULFdhWgS-55" target="Qwj7utCCqi1MULFdhWgS-72" edge="1">
          <mxGeometry relative="1" as="geometry">
            <mxPoint x="750" y="666.047619047619" as="targetPoint" />
            <Array as="points">
              <mxPoint x="590" y="666" />
            </Array>
          </mxGeometry>
        </mxCell>
        <mxCell id="Qwj7utCCqi1MULFdhWgS-55" value="Amazon EKS" style="sketch=0;outlineConnect=0;fontColor=#232F3E;gradientColor=none;strokeColor=#ffffff;fillColor=#232F3E;dashed=0;verticalLabelPosition=middle;verticalAlign=bottom;align=center;html=1;whiteSpace=wrap;fontSize=10;fontStyle=1;spacing=3;shape=mxgraph.aws4.productIcon;prIcon=mxgraph.aws4.eks;" parent="8UfcVMUYJMqAKjJ9puZm-1" vertex="1">
          <mxGeometry x="550" y="675" width="80" height="100" as="geometry" />
        </mxCell>
        <mxCell id="Qwj7utCCqi1MULFdhWgS-56" style="edgeStyle=orthogonalEdgeStyle;rounded=0;orthogonalLoop=1;jettySize=auto;html=1;" parent="8UfcVMUYJMqAKjJ9puZm-1" source="Qwj7utCCqi1MULFdhWgS-58" target="Qwj7utCCqi1MULFdhWgS-53" edge="1">
          <mxGeometry relative="1" as="geometry">
            <Array as="points">
              <mxPoint x="310" y="490" />
            </Array>
          </mxGeometry>
        </mxCell>
        <mxCell id="Qwj7utCCqi1MULFdhWgS-57" style="edgeStyle=orthogonalEdgeStyle;rounded=0;orthogonalLoop=1;jettySize=auto;html=1;" parent="8UfcVMUYJMqAKjJ9puZm-1" source="Qwj7utCCqi1MULFdhWgS-58" target="Qwj7utCCqi1MULFdhWgS-55" edge="1">
          <mxGeometry relative="1" as="geometry">
            <Array as="points">
              <mxPoint x="310" y="720" />
            </Array>
          </mxGeometry>
        </mxCell>
        <mxCell id="Qwj7utCCqi1MULFdhWgS-58" value="Application Load Balancer" style="sketch=0;outlineConnect=0;fontColor=#232F3E;gradientColor=none;strokeColor=#ffffff;fillColor=#232F3E;dashed=0;verticalLabelPosition=middle;verticalAlign=bottom;align=center;html=1;whiteSpace=wrap;fontSize=10;fontStyle=1;spacing=3;shape=mxgraph.aws4.productIcon;prIcon=mxgraph.aws4.application_load_balancer;" parent="8UfcVMUYJMqAKjJ9puZm-1" vertex="1">
          <mxGeometry x="270" y="553" width="80" height="110" as="geometry" />
        </mxCell>
        <mxCell id="Qwj7utCCqi1MULFdhWgS-59" style="edgeStyle=orthogonalEdgeStyle;rounded=0;orthogonalLoop=1;jettySize=auto;html=1;" parent="8UfcVMUYJMqAKjJ9puZm-1" source="Qwj7utCCqi1MULFdhWgS-61" target="Qwj7utCCqi1MULFdhWgS-58" edge="1">
          <mxGeometry relative="1" as="geometry" />
        </mxCell>
        <mxCell id="Qwj7utCCqi1MULFdhWgS-60" style="edgeStyle=orthogonalEdgeStyle;rounded=0;orthogonalLoop=1;jettySize=auto;html=1;" parent="8UfcVMUYJMqAKjJ9puZm-1" source="Qwj7utCCqi1MULFdhWgS-61" target="Qwj7utCCqi1MULFdhWgS-62" edge="1">
          <mxGeometry relative="1" as="geometry" />
        </mxCell>
        <mxCell id="Qwj7utCCqi1MULFdhWgS-61" value="Amazon API Gateway" style="sketch=0;outlineConnect=0;fontColor=#232F3E;gradientColor=none;strokeColor=#ffffff;fillColor=#232F3E;dashed=0;verticalLabelPosition=middle;verticalAlign=bottom;align=center;html=1;whiteSpace=wrap;fontSize=10;fontStyle=1;spacing=3;shape=mxgraph.aws4.productIcon;prIcon=mxgraph.aws4.api_gateway;" parent="8UfcVMUYJMqAKjJ9puZm-1" vertex="1">
          <mxGeometry x="120" y="553" width="80" height="110" as="geometry" />
        </mxCell>
        <mxCell id="Qwj7utCCqi1MULFdhWgS-62" value="Lambda Authorizer" style="outlineConnect=0;dashed=0;verticalLabelPosition=bottom;verticalAlign=top;align=center;html=1;shape=mxgraph.aws3.lambda_function;fillColor=#F58534;gradientColor=none;" parent="8UfcVMUYJMqAKjJ9puZm-1" vertex="1">
          <mxGeometry x="125.5" y="420" width="69" height="72" as="geometry" />
        </mxCell>
        <mxCell id="Qwj7utCCqi1MULFdhWgS-63" style="edgeStyle=orthogonalEdgeStyle;rounded=0;orthogonalLoop=1;jettySize=auto;html=1;" parent="8UfcVMUYJMqAKjJ9puZm-1" source="Qwj7utCCqi1MULFdhWgS-64" target="Qwj7utCCqi1MULFdhWgS-61" edge="1">
          <mxGeometry relative="1" as="geometry" />
        </mxCell>
        <mxCell id="Qwj7utCCqi1MULFdhWgS-64" value="APIGEE" style="editableCssRules=.*;html=1;shape=image;verticalLabelPosition=bottom;labelBackgroundColor=#ffffff;verticalAlign=top;aspect=fixed;imageAspect=0;image=data:image/svg+xml,PHN2ZyB4bWxucz0iaHR0cDovL3d3dy53My5vcmcvMjAwMC9zdmciIHhtbG5zOnY9Imh0dHBzOi8vdmVjdGEuaW8vbmFubyIgd2lkdGg9IjIwLjE4MDIzMTA5NDM2MDM1IiBoZWlnaHQ9IjIwLjE4MDIwODIwNjE3Njc1OCIgdmlld0JveD0iLTAuMDAwMTE1MTY1MTIzMTMzOTIwMTMgLTAuMDAwMTAzMzQ0NDkzMjU0NTUzNTMgMjAuMTgwMjMxMDk0MzYwMzUgMjAuMTgwMjA4MjA2MTc2NzU4Ij4mI3hhOwk8c3R5bGUgdHlwZT0idGV4dC9jc3MiPiYjeGE7CS5zdDB7ZmlsbDojNjY5ZGY2O2ZpbGwtcnVsZTpldmVub2RkfSYjeGE7CS5zdDF7ZmlsbC1ydWxlOmV2ZW5vZGQ7ZmlsbDojNDI4NWY0fSYjeGE7CTwvc3R5bGU+JiN4YTsJPHBhdGggY2xhc3M9InN0MCIgZD0iTTMuMjkgMTAuMDlsMS4zMi0xLjMyLTEuNzktMS43OWEyLjk0IDIuOTQgMCAwIDEgMi4wOC01IDIuOTIgMi45MiAwIDAgMSAyLjA3Ljg2bDEuOCAxLjc5IDEuMzItMS4zNEw4LjMgMS41YTQuODEgNC44MSAwIDEgMC02LjggNi44em0xMy42IDBsLTEuMzIgMS4zMiAxLjc5IDEuOGEyLjk0IDIuOTQgMCAwIDEtNC4xNiA0LjE1bC0xLjc5LTEuNzktMS4zMiAxLjMyIDEuNzkgMS43OWE0LjgxIDQuODEgMCAxIDAgNi44LTYuOHoiLz4mI3hhOwk8cGF0aCBjbGFzcz0ic3QxIiBkPSJNNi45OCAxNy4zNmEyLjk0IDIuOTQgMCAxIDEtNC4xNi00LjE2bDEuNzktMS43OSA0LjE2IDQuMTZ6bTYuMjMtMTQuNTRhMi45MyAyLjkzIDAgMCAxIDUgMi4wOCAzIDMgMCAwIDEtLjg2IDIuMDhsLTEuNzkgMS43OS00LjE1LTQuMTZ6bS0zLjEyIDEwLjQ2YTMuMiAzLjIgMCAwIDEtMy4xOS0zLjE5aDBhMy4yMSAzLjIxIDAgMCAxIDMuMTktMy4xOWgwYTMuMjEgMy4yMSAwIDAgMSAzLjE5IDMuMTloMGEzLjIgMy4yIDAgMCAxLTMuMTkgMy4xOXptNi44LTMuMTlsMS43OS0xLjc5QTQuODEgNC44MSAwIDAgMCAxNi41NzQuMTUzIDQuODEgNC44MSAwIDAgMCAxMS44OCAxLjVsLTEuNzkgMS43OS02LjggNi44LTEuNzkgMS43OWE0LjgxIDQuODEgMCAwIDAgMi4xMDYgOC4xNDdBNC44MSA0LjgxIDAgMCAwIDguMyAxOC42OGwxLjc5LTEuNzl6Ii8+JiN4YTs8L3N2Zz4=;" parent="8UfcVMUYJMqAKjJ9puZm-1" vertex="1">
          <mxGeometry x="-100" y="588" width="40" height="40" as="geometry" />
        </mxCell>
        <mxCell id="Qwj7utCCqi1MULFdhWgS-65" value="CloudWatch" style="sketch=0;points=[[0,0,0],[0.25,0,0],[0.5,0,0],[0.75,0,0],[1,0,0],[0,1,0],[0.25,1,0],[0.5,1,0],[0.75,1,0],[1,1,0],[0,0.25,0],[0,0.5,0],[0,0.75,0],[1,0.25,0],[1,0.5,0],[1,0.75,0]];points=[[0,0,0],[0.25,0,0],[0.5,0,0],[0.75,0,0],[1,0,0],[0,1,0],[0.25,1,0],[0.5,1,0],[0.75,1,0],[1,1,0],[0,0.25,0],[0,0.5,0],[0,0.75,0],[1,0.25,0],[1,0.5,0],[1,0.75,0]];outlineConnect=0;fontColor=#232F3E;fillColor=#E7157B;strokeColor=#ffffff;dashed=0;verticalLabelPosition=bottom;verticalAlign=top;align=center;html=1;fontSize=12;fontStyle=0;aspect=fixed;shape=mxgraph.aws4.resourceIcon;resIcon=mxgraph.aws4.cloudwatch_2;" parent="8UfcVMUYJMqAKjJ9puZm-1" vertex="1">
          <mxGeometry x="116.5" y="283" width="78" height="78" as="geometry" />
        </mxCell>
        <mxCell id="Qwj7utCCqi1MULFdhWgS-66" style="edgeStyle=orthogonalEdgeStyle;rounded=0;orthogonalLoop=1;jettySize=auto;html=1;" parent="8UfcVMUYJMqAKjJ9puZm-1" source="Qwj7utCCqi1MULFdhWgS-68" target="Qwj7utCCqi1MULFdhWgS-65" edge="1">
          <mxGeometry relative="1" as="geometry" />
        </mxCell>
        <mxCell id="Qwj7utCCqi1MULFdhWgS-67" style="edgeStyle=orthogonalEdgeStyle;rounded=0;orthogonalLoop=1;jettySize=auto;html=1;entryX=0;entryY=0.5;entryDx=0;entryDy=0;" parent="8UfcVMUYJMqAKjJ9puZm-1" source="Qwj7utCCqi1MULFdhWgS-68" target="Qwj7utCCqi1MULFdhWgS-69" edge="1">
          <mxGeometry relative="1" as="geometry">
            <Array as="points">
              <mxPoint x="320" y="180" />
            </Array>
          </mxGeometry>
        </mxCell>
        <mxCell id="Qwj7utCCqi1MULFdhWgS-68" value="Filter Subscritption" style="rounded=1;whiteSpace=wrap;html=1;" parent="8UfcVMUYJMqAKjJ9puZm-1" vertex="1">
          <mxGeometry x="270" y="292" width="120" height="60" as="geometry" />
        </mxCell>
        <mxCell id="Qwj7utCCqi1MULFdhWgS-69" value="NewRelic" style="rounded=0;whiteSpace=wrap;html=1;" parent="8UfcVMUYJMqAKjJ9puZm-1" vertex="1">
          <mxGeometry x="460" y="150" width="120" height="60" as="geometry" />
        </mxCell>
        <mxCell id="Qwj7utCCqi1MULFdhWgS-70" style="edgeStyle=orthogonalEdgeStyle;rounded=0;orthogonalLoop=1;jettySize=auto;html=1;entryX=-0.027;entryY=0.285;entryDx=0;entryDy=0;entryPerimeter=0;" parent="8UfcVMUYJMqAKjJ9puZm-1" source="Qwj7utCCqi1MULFdhWgS-53" target="Qwj7utCCqi1MULFdhWgS-38" edge="1">
          <mxGeometry relative="1" as="geometry" />
        </mxCell>
        <mxCell id="Qwj7utCCqi1MULFdhWgS-71" style="edgeStyle=orthogonalEdgeStyle;rounded=0;orthogonalLoop=1;jettySize=auto;html=1;entryX=-0.035;entryY=0.829;entryDx=0;entryDy=0;entryPerimeter=0;" parent="8UfcVMUYJMqAKjJ9puZm-1" source="Qwj7utCCqi1MULFdhWgS-55" target="Qwj7utCCqi1MULFdhWgS-38" edge="1">
          <mxGeometry relative="1" as="geometry" />
        </mxCell>
        <mxCell id="Qwj7utCCqi1MULFdhWgS-72" value="Amazon ElastiCache for Redis" style="sketch=0;outlineConnect=0;fontColor=#232F3E;gradientColor=none;strokeColor=#ffffff;fillColor=#232F3E;dashed=0;verticalLabelPosition=middle;verticalAlign=bottom;align=center;html=1;whiteSpace=wrap;fontSize=10;fontStyle=1;spacing=3;shape=mxgraph.aws4.productIcon;prIcon=mxgraph.aws4.elasticache_for_redis;" parent="8UfcVMUYJMqAKjJ9puZm-1" vertex="1">
          <mxGeometry x="940" y="600" width="50" height="102" as="geometry" />
        </mxCell>
      </root>
    </mxGraphModel>
  </diagram>
  <diagram name="Cópia do Cópia do Página-1" id="3JLUU36cTqaoQ4qNV4Wi">
    <mxGraphModel dx="2694" dy="710" grid="1" gridSize="10" guides="1" tooltips="1" connect="1" arrows="1" fold="1" page="1" pageScale="1" pageWidth="827" pageHeight="1169" math="0" shadow="0">
      <root>
        <mxCell id="A9q0iuLAdQJ2H1m2nL76-0" />
        <mxCell id="A9q0iuLAdQJ2H1m2nL76-1" parent="A9q0iuLAdQJ2H1m2nL76-0" />
        <mxCell id="A9q0iuLAdQJ2H1m2nL76-2" value="Ambiente Externo" style="rounded=0;whiteSpace=wrap;html=1;fillColor=none;labelPosition=center;verticalLabelPosition=top;align=center;verticalAlign=bottom;" parent="A9q0iuLAdQJ2H1m2nL76-1" vertex="1">
          <mxGeometry x="1180" y="385" width="200" height="410" as="geometry" />
        </mxCell>
        <mxCell id="A9q0iuLAdQJ2H1m2nL76-3" value="" style="rounded=0;whiteSpace=wrap;html=1;fillColor=none;labelPosition=center;verticalLabelPosition=top;align=center;verticalAlign=bottom;" parent="A9q0iuLAdQJ2H1m2nL76-1" vertex="1">
          <mxGeometry x="100" y="270" width="980" height="600" as="geometry" />
        </mxCell>
        <mxCell id="A9q0iuLAdQJ2H1m2nL76-5" value="API de Cadastro" style="rounded=0;whiteSpace=wrap;html=1;" parent="A9q0iuLAdQJ2H1m2nL76-1" vertex="1">
          <mxGeometry x="1220" y="455" width="120" height="60" as="geometry" />
        </mxCell>
        <mxCell id="A9q0iuLAdQJ2H1m2nL76-6" value="Api Bacen" style="rounded=0;whiteSpace=wrap;html=1;" parent="A9q0iuLAdQJ2H1m2nL76-1" vertex="1">
          <mxGeometry x="1220" y="645" width="120" height="60" as="geometry" />
        </mxCell>
        <mxCell id="ZknFx4OJnqgQjCVrV1zv-2" style="edgeStyle=orthogonalEdgeStyle;rounded=0;orthogonalLoop=1;jettySize=auto;html=1;" parent="A9q0iuLAdQJ2H1m2nL76-1" source="A9q0iuLAdQJ2H1m2nL76-8" target="A9q0iuLAdQJ2H1m2nL76-25" edge="1">
          <mxGeometry relative="1" as="geometry">
            <Array as="points">
              <mxPoint x="-40" y="555" />
              <mxPoint x="-40" y="600" />
            </Array>
          </mxGeometry>
        </mxCell>
        <mxCell id="A9q0iuLAdQJ2H1m2nL76-8" value="" style="html=1;verticalLabelPosition=bottom;align=center;labelBackgroundColor=#ffffff;verticalAlign=top;strokeWidth=2;strokeColor=#0080F0;shadow=0;dashed=0;shape=mxgraph.ios7.icons.smartphone;" parent="A9q0iuLAdQJ2H1m2nL76-1" vertex="1">
          <mxGeometry x="-160" y="525" width="28" height="60" as="geometry" />
        </mxCell>
        <mxCell id="A9q0iuLAdQJ2H1m2nL76-13" value="API de Contas" style="rounded=0;whiteSpace=wrap;html=1;" parent="A9q0iuLAdQJ2H1m2nL76-1" vertex="1">
          <mxGeometry x="1220" y="555" width="120" height="60" as="geometry" />
        </mxCell>
        <mxCell id="A9q0iuLAdQJ2H1m2nL76-14" value="Availability Zone" style="fillColor=none;strokeColor=#147EBA;dashed=1;verticalAlign=top;fontStyle=0;fontColor=#147EBA;whiteSpace=wrap;html=1;" parent="A9q0iuLAdQJ2H1m2nL76-1" vertex="1">
          <mxGeometry x="380" y="390" width="440" height="195" as="geometry" />
        </mxCell>
        <mxCell id="A9q0iuLAdQJ2H1m2nL76-15" value="Availability Zone" style="fillColor=none;strokeColor=#147EBA;dashed=1;verticalAlign=top;fontStyle=0;fontColor=#147EBA;whiteSpace=wrap;html=1;" parent="A9q0iuLAdQJ2H1m2nL76-1" vertex="1">
          <mxGeometry x="380" y="600" width="440" height="195" as="geometry" />
        </mxCell>
        <mxCell id="A9q0iuLAdQJ2H1m2nL76-16" style="edgeStyle=orthogonalEdgeStyle;rounded=0;orthogonalLoop=1;jettySize=auto;html=1;" parent="A9q0iuLAdQJ2H1m2nL76-1" source="A9q0iuLAdQJ2H1m2nL76-17" target="A9q0iuLAdQJ2H1m2nL76-36" edge="1">
          <mxGeometry relative="1" as="geometry">
            <Array as="points">
              <mxPoint x="590" y="430" />
            </Array>
          </mxGeometry>
        </mxCell>
        <mxCell id="A9q0iuLAdQJ2H1m2nL76-17" value="Amazon EKS" style="sketch=0;outlineConnect=0;fontColor=#232F3E;gradientColor=none;strokeColor=#ffffff;fillColor=#232F3E;dashed=0;verticalLabelPosition=middle;verticalAlign=bottom;align=center;html=1;whiteSpace=wrap;fontSize=10;fontStyle=1;spacing=3;shape=mxgraph.aws4.productIcon;prIcon=mxgraph.aws4.eks;" parent="A9q0iuLAdQJ2H1m2nL76-1" vertex="1">
          <mxGeometry x="550" y="452.5" width="80" height="100" as="geometry" />
        </mxCell>
        <mxCell id="A9q0iuLAdQJ2H1m2nL76-18" style="edgeStyle=orthogonalEdgeStyle;rounded=0;orthogonalLoop=1;jettySize=auto;html=1;" parent="A9q0iuLAdQJ2H1m2nL76-1" source="A9q0iuLAdQJ2H1m2nL76-19" target="A9q0iuLAdQJ2H1m2nL76-36" edge="1">
          <mxGeometry relative="1" as="geometry">
            <mxPoint x="750" y="666.047619047619" as="targetPoint" />
            <Array as="points">
              <mxPoint x="590" y="630" />
            </Array>
          </mxGeometry>
        </mxCell>
        <mxCell id="A9q0iuLAdQJ2H1m2nL76-19" value="Amazon EKS" style="sketch=0;outlineConnect=0;fontColor=#232F3E;gradientColor=none;strokeColor=#ffffff;fillColor=#232F3E;dashed=0;verticalLabelPosition=middle;verticalAlign=bottom;align=center;html=1;whiteSpace=wrap;fontSize=10;fontStyle=1;spacing=3;shape=mxgraph.aws4.productIcon;prIcon=mxgraph.aws4.eks;" parent="A9q0iuLAdQJ2H1m2nL76-1" vertex="1">
          <mxGeometry x="550" y="675" width="80" height="100" as="geometry" />
        </mxCell>
        <mxCell id="A9q0iuLAdQJ2H1m2nL76-20" style="edgeStyle=orthogonalEdgeStyle;rounded=0;orthogonalLoop=1;jettySize=auto;html=1;" parent="A9q0iuLAdQJ2H1m2nL76-1" source="A9q0iuLAdQJ2H1m2nL76-22" target="A9q0iuLAdQJ2H1m2nL76-17" edge="1">
          <mxGeometry relative="1" as="geometry">
            <Array as="points">
              <mxPoint x="310" y="490" />
            </Array>
          </mxGeometry>
        </mxCell>
        <mxCell id="A9q0iuLAdQJ2H1m2nL76-21" style="edgeStyle=orthogonalEdgeStyle;rounded=0;orthogonalLoop=1;jettySize=auto;html=1;" parent="A9q0iuLAdQJ2H1m2nL76-1" source="A9q0iuLAdQJ2H1m2nL76-22" target="A9q0iuLAdQJ2H1m2nL76-19" edge="1">
          <mxGeometry relative="1" as="geometry">
            <Array as="points">
              <mxPoint x="310" y="720" />
            </Array>
          </mxGeometry>
        </mxCell>
        <mxCell id="A9q0iuLAdQJ2H1m2nL76-22" value="Application Load Balancer" style="sketch=0;outlineConnect=0;fontColor=#232F3E;gradientColor=none;strokeColor=#ffffff;fillColor=#232F3E;dashed=0;verticalLabelPosition=middle;verticalAlign=bottom;align=center;html=1;whiteSpace=wrap;fontSize=10;fontStyle=1;spacing=3;shape=mxgraph.aws4.productIcon;prIcon=mxgraph.aws4.application_load_balancer;" parent="A9q0iuLAdQJ2H1m2nL76-1" vertex="1">
          <mxGeometry x="270" y="553" width="80" height="110" as="geometry" />
        </mxCell>
        <mxCell id="A9q0iuLAdQJ2H1m2nL76-23" style="edgeStyle=orthogonalEdgeStyle;rounded=0;orthogonalLoop=1;jettySize=auto;html=1;" parent="A9q0iuLAdQJ2H1m2nL76-1" source="A9q0iuLAdQJ2H1m2nL76-25" target="A9q0iuLAdQJ2H1m2nL76-22" edge="1">
          <mxGeometry relative="1" as="geometry" />
        </mxCell>
        <mxCell id="A9q0iuLAdQJ2H1m2nL76-24" style="edgeStyle=orthogonalEdgeStyle;rounded=0;orthogonalLoop=1;jettySize=auto;html=1;" parent="A9q0iuLAdQJ2H1m2nL76-1" source="A9q0iuLAdQJ2H1m2nL76-25" target="A9q0iuLAdQJ2H1m2nL76-26" edge="1">
          <mxGeometry relative="1" as="geometry" />
        </mxCell>
        <mxCell id="A9q0iuLAdQJ2H1m2nL76-25" value="Amazon API Gateway" style="sketch=0;outlineConnect=0;fontColor=#232F3E;gradientColor=none;strokeColor=#ffffff;fillColor=#232F3E;dashed=0;verticalLabelPosition=middle;verticalAlign=bottom;align=center;html=1;whiteSpace=wrap;fontSize=10;fontStyle=1;spacing=3;shape=mxgraph.aws4.productIcon;prIcon=mxgraph.aws4.api_gateway;" parent="A9q0iuLAdQJ2H1m2nL76-1" vertex="1">
          <mxGeometry x="120" y="553" width="80" height="110" as="geometry" />
        </mxCell>
        <mxCell id="A9q0iuLAdQJ2H1m2nL76-26" value="Lambda Authorizer" style="outlineConnect=0;dashed=0;verticalLabelPosition=bottom;verticalAlign=top;align=center;html=1;shape=mxgraph.aws3.lambda_function;fillColor=#F58534;gradientColor=none;" parent="A9q0iuLAdQJ2H1m2nL76-1" vertex="1">
          <mxGeometry x="125.5" y="420" width="69" height="72" as="geometry" />
        </mxCell>
        <mxCell id="A9q0iuLAdQJ2H1m2nL76-29" value="CloudWatch" style="sketch=0;points=[[0,0,0],[0.25,0,0],[0.5,0,0],[0.75,0,0],[1,0,0],[0,1,0],[0.25,1,0],[0.5,1,0],[0.75,1,0],[1,1,0],[0,0.25,0],[0,0.5,0],[0,0.75,0],[1,0.25,0],[1,0.5,0],[1,0.75,0]];points=[[0,0,0],[0.25,0,0],[0.5,0,0],[0.75,0,0],[1,0,0],[0,1,0],[0.25,1,0],[0.5,1,0],[0.75,1,0],[1,1,0],[0,0.25,0],[0,0.5,0],[0,0.75,0],[1,0.25,0],[1,0.5,0],[1,0.75,0]];outlineConnect=0;fontColor=#232F3E;fillColor=#E7157B;strokeColor=#ffffff;dashed=0;verticalLabelPosition=bottom;verticalAlign=top;align=center;html=1;fontSize=12;fontStyle=0;aspect=fixed;shape=mxgraph.aws4.resourceIcon;resIcon=mxgraph.aws4.cloudwatch_2;" parent="A9q0iuLAdQJ2H1m2nL76-1" vertex="1">
          <mxGeometry x="116.5" y="283" width="78" height="78" as="geometry" />
        </mxCell>
        <mxCell id="A9q0iuLAdQJ2H1m2nL76-30" style="edgeStyle=orthogonalEdgeStyle;rounded=0;orthogonalLoop=1;jettySize=auto;html=1;" parent="A9q0iuLAdQJ2H1m2nL76-1" source="A9q0iuLAdQJ2H1m2nL76-32" target="A9q0iuLAdQJ2H1m2nL76-29" edge="1">
          <mxGeometry relative="1" as="geometry" />
        </mxCell>
        <mxCell id="A9q0iuLAdQJ2H1m2nL76-31" style="edgeStyle=orthogonalEdgeStyle;rounded=0;orthogonalLoop=1;jettySize=auto;html=1;entryX=0;entryY=0.5;entryDx=0;entryDy=0;" parent="A9q0iuLAdQJ2H1m2nL76-1" source="A9q0iuLAdQJ2H1m2nL76-32" target="A9q0iuLAdQJ2H1m2nL76-33" edge="1">
          <mxGeometry relative="1" as="geometry">
            <Array as="points">
              <mxPoint x="320" y="180" />
            </Array>
          </mxGeometry>
        </mxCell>
        <mxCell id="A9q0iuLAdQJ2H1m2nL76-32" value="Filter Subscritption" style="rounded=1;whiteSpace=wrap;html=1;" parent="A9q0iuLAdQJ2H1m2nL76-1" vertex="1">
          <mxGeometry x="270" y="292" width="120" height="60" as="geometry" />
        </mxCell>
        <mxCell id="A9q0iuLAdQJ2H1m2nL76-33" value="NewRelic" style="rounded=0;whiteSpace=wrap;html=1;" parent="A9q0iuLAdQJ2H1m2nL76-1" vertex="1">
          <mxGeometry x="460" y="150" width="120" height="60" as="geometry" />
        </mxCell>
        <mxCell id="A9q0iuLAdQJ2H1m2nL76-34" style="edgeStyle=orthogonalEdgeStyle;rounded=0;orthogonalLoop=1;jettySize=auto;html=1;entryX=-0.027;entryY=0.285;entryDx=0;entryDy=0;entryPerimeter=0;dashed=1;" parent="A9q0iuLAdQJ2H1m2nL76-1" source="A9q0iuLAdQJ2H1m2nL76-17" target="A9q0iuLAdQJ2H1m2nL76-2" edge="1">
          <mxGeometry relative="1" as="geometry" />
        </mxCell>
        <mxCell id="A9q0iuLAdQJ2H1m2nL76-35" style="edgeStyle=orthogonalEdgeStyle;rounded=0;orthogonalLoop=1;jettySize=auto;html=1;entryX=-0.035;entryY=0.829;entryDx=0;entryDy=0;entryPerimeter=0;dashed=1;" parent="A9q0iuLAdQJ2H1m2nL76-1" source="A9q0iuLAdQJ2H1m2nL76-19" target="A9q0iuLAdQJ2H1m2nL76-2" edge="1">
          <mxGeometry relative="1" as="geometry" />
        </mxCell>
        <mxCell id="A9q0iuLAdQJ2H1m2nL76-36" value="ElastiCache for Redis" style="sketch=0;outlineConnect=0;fontColor=#232F3E;gradientColor=none;strokeColor=#ffffff;fillColor=#232F3E;dashed=0;verticalLabelPosition=middle;verticalAlign=bottom;align=center;html=1;whiteSpace=wrap;fontSize=10;fontStyle=1;spacing=3;shape=mxgraph.aws4.productIcon;prIcon=mxgraph.aws4.elasticache_for_redis;" parent="A9q0iuLAdQJ2H1m2nL76-1" vertex="1">
          <mxGeometry x="940" y="600" width="50" height="102" as="geometry" />
        </mxCell>
        <mxCell id="ZknFx4OJnqgQjCVrV1zv-3" style="edgeStyle=orthogonalEdgeStyle;rounded=0;orthogonalLoop=1;jettySize=auto;html=1;" parent="A9q0iuLAdQJ2H1m2nL76-1" edge="1">
          <mxGeometry relative="1" as="geometry">
            <mxPoint x="-102" y="663.5714285714287" as="sourcePoint" />
            <mxPoint x="120" y="600" as="targetPoint" />
            <Array as="points">
              <mxPoint x="-40" y="664" />
              <mxPoint x="-40" y="600" />
            </Array>
          </mxGeometry>
        </mxCell>
        <mxCell id="ZknFx4OJnqgQjCVrV1zv-1" value="" style="image;aspect=fixed;html=1;points=[];align=center;fontSize=12;image=img/lib/azure2/management_governance/Managed_Desktop.svg;" parent="A9q0iuLAdQJ2H1m2nL76-1" vertex="1">
          <mxGeometry x="-170" y="640" width="68" height="63.2" as="geometry" />
        </mxCell>
      </root>
    </mxGraphModel>
  </diagram>
</mxfile>
